<mxfile host="app.diagrams.net" modified="2024-04-08T19:06:28.911Z" agent="Mozilla/5.0 (Windows NT 10.0; Win64; x64) AppleWebKit/537.36 (KHTML, like Gecko) Chrome/123.0.0.0 Safari/537.36" etag="eNk6fFHRNhhrU1OPJyZO" version="24.2.2" type="device">
  <diagram id="C5RBs43oDa-KdzZeNtuy" name="Page-1">
    <mxGraphModel dx="6563" dy="4289" grid="1" gridSize="10" guides="1" tooltips="1" connect="1" arrows="1" fold="1" page="1" pageScale="1" pageWidth="827" pageHeight="1169" math="0" shadow="0">
      <root>
        <mxCell id="WIyWlLk6GJQsqaUBKTNV-0" />
        <mxCell id="WIyWlLk6GJQsqaUBKTNV-1" parent="WIyWlLk6GJQsqaUBKTNV-0" />
        <mxCell id="4ze2XtRtzKSnxw6VI-vd-8" value="Event" style="swimlane;fontStyle=1;align=center;verticalAlign=top;childLayout=stackLayout;horizontal=1;startSize=26;horizontalStack=0;resizeParent=1;resizeParentMax=0;resizeLast=0;collapsible=1;marginBottom=0;whiteSpace=wrap;html=1;rounded=0;" parent="WIyWlLk6GJQsqaUBKTNV-1" vertex="1">
          <mxGeometry x="1670" y="1370" width="590" height="440" as="geometry" />
        </mxCell>
        <mxCell id="4ze2XtRtzKSnxw6VI-vd-9" value="- eventID : String&lt;br&gt;- name : String&lt;br&gt;- location : GeoPoint&lt;br&gt;- locationName : String&lt;br&gt;- time: Timestamp&lt;br&gt;- attendeeLimit : Integer&lt;br&gt;- attendees : Map&amp;lt;String, Long&amp;gt;" style="text;strokeColor=none;fillColor=none;align=left;verticalAlign=top;spacingLeft=4;spacingRight=4;overflow=hidden;rotatable=0;points=[[0,0.5],[1,0.5]];portConstraint=eastwest;whiteSpace=wrap;html=1;rounded=0;" parent="4ze2XtRtzKSnxw6VI-vd-8" vertex="1">
          <mxGeometry y="26" width="590" height="114" as="geometry" />
        </mxCell>
        <mxCell id="4ze2XtRtzKSnxw6VI-vd-10" value="" style="line;strokeWidth=1;fillColor=none;align=left;verticalAlign=middle;spacingTop=-1;spacingLeft=3;spacingRight=3;rotatable=0;labelPosition=right;points=[];portConstraint=eastwest;strokeColor=inherit;rounded=0;" parent="4ze2XtRtzKSnxw6VI-vd-8" vertex="1">
          <mxGeometry y="140" width="590" height="8" as="geometry" />
        </mxCell>
        <mxCell id="4ze2XtRtzKSnxw6VI-vd-11" value="+ Event(id : String, name : String, location : GeoPoint, locationName : String, time : Timestamp, organizer :&amp;nbsp; String, organizerID : String, qrCode: QRCode, attendeeLimit: Integer, attendees : Map&amp;lt;String, Long&amp;gt;) : void&lt;br&gt;+ getEventID() : String&lt;br&gt;+ getLocation() : GeoPoint&lt;br&gt;&lt;span style=&quot;font-weight: var(--cib-type-body1-font-weight); color: rgb(17, 17, 17);&quot;&gt;+ getOrganizer() : String&lt;br&gt;&lt;/span&gt;&lt;span style=&quot;font-weight: var(--cib-type-body1-font-weight); color: rgb(17, 17, 17);&quot;&gt;+ getOrganizerID() : String&lt;br&gt;&lt;/span&gt;&lt;span style=&quot;font-weight: var(--cib-type-body1-font-weight); color: rgb(17, 17, 17);&quot;&gt;+ getTime() : Timestamp&lt;br&gt;&lt;/span&gt;&lt;span style=&quot;font-weight: var(--cib-type-body1-font-weight); color: rgb(17, 17, 17);&quot;&gt;+ getEventName() : String&lt;br&gt;&lt;/span&gt;&lt;span style=&quot;font-weight: var(--cib-type-body1-font-weight); color: rgb(17, 17, 17);&quot;&gt;+ getAttendees() : Map&amp;lt;String, Long&amp;gt;&lt;br&gt;&lt;/span&gt;&lt;span style=&quot;font-weight: var(--cib-type-body1-font-weight); color: rgb(17, 17, 17);&quot;&gt;+ setEventID(eventID : String) : void&lt;br&gt;&lt;/span&gt;&lt;span style=&quot;font-weight: var(--cib-type-body1-font-weight); color: rgb(17, 17, 17);&quot;&gt;+ setLocation(location : GeoPoint) : void&lt;br&gt;&lt;/span&gt;&lt;span style=&quot;font-weight: var(--cib-type-body1-font-weight); color: rgb(17, 17, 17);&quot;&gt;+ setOrganizer(organizer : String) : void&lt;br&gt;&lt;/span&gt;&lt;span style=&quot;font-weight: var(--cib-type-body1-font-weight); color: rgb(17, 17, 17);&quot;&gt;+ setTime(time : Timestamp) : void&lt;br&gt;&lt;/span&gt;&lt;span style=&quot;font-weight: var(--cib-type-body1-font-weight); color: rgb(17, 17, 17);&quot;&gt;+ setEventName(name : String) : void&lt;br&gt;&lt;/span&gt;&lt;span style=&quot;font-weight: var(--cib-type-body1-font-weight); color: rgb(17, 17, 17);&quot;&gt;+ addAttendee() : void&lt;br&gt;&lt;/span&gt;&lt;span style=&quot;font-weight: var(--cib-type-body1-font-weight); color: rgb(17, 17, 17);&quot;&gt;+ getAttendeeLimit() : Integer&lt;br&gt;&lt;/span&gt;&lt;span style=&quot;font-weight: var(--cib-type-body1-font-weight); color: rgb(17, 17, 17);&quot;&gt;+ isFull() : boolean&lt;br&gt;&lt;/span&gt;&lt;span style=&quot;font-weight: var(--cib-type-body1-font-weight); color: rgb(17, 17, 17);&quot;&gt;+ getLocationName() : String&lt;br&gt;&lt;/span&gt;&lt;span style=&quot;font-weight: var(--cib-type-body1-font-weight); color: rgb(17, 17, 17);&quot;&gt;+ getQrCode() : QRCode&lt;/span&gt;&lt;span style=&quot;font-weight: var(--cib-type-body1-font-weight); color: rgb(17, 17, 17);&quot;&gt;&lt;br&gt;&lt;/span&gt;" style="text;strokeColor=none;fillColor=none;align=left;verticalAlign=top;spacingLeft=4;spacingRight=4;overflow=hidden;rotatable=0;points=[[0,0.5],[1,0.5]];portConstraint=eastwest;whiteSpace=wrap;html=1;rounded=0;" parent="4ze2XtRtzKSnxw6VI-vd-8" vertex="1">
          <mxGeometry y="148" width="590" height="292" as="geometry" />
        </mxCell>
        <mxCell id="4ze2XtRtzKSnxw6VI-vd-12" value="AttendeeArrayAdapter" style="swimlane;fontStyle=1;align=center;verticalAlign=top;childLayout=stackLayout;horizontal=1;startSize=26;horizontalStack=0;resizeParent=1;resizeParentMax=0;resizeLast=0;collapsible=1;marginBottom=0;whiteSpace=wrap;html=1;rounded=0;" parent="WIyWlLk6GJQsqaUBKTNV-1" vertex="1">
          <mxGeometry x="440" y="2040" width="320" height="140" as="geometry" />
        </mxCell>
        <mxCell id="4ze2XtRtzKSnxw6VI-vd-13" value="- attendees : ArrayList&amp;lt;Map.Entry&amp;lt;String, Long&amp;gt;&amp;gt;&lt;br&gt;- context : Context" style="text;strokeColor=none;fillColor=none;align=left;verticalAlign=top;spacingLeft=4;spacingRight=4;overflow=hidden;rotatable=0;points=[[0,0.5],[1,0.5]];portConstraint=eastwest;whiteSpace=wrap;html=1;rounded=0;" parent="4ze2XtRtzKSnxw6VI-vd-12" vertex="1">
          <mxGeometry y="26" width="320" height="34" as="geometry" />
        </mxCell>
        <mxCell id="4ze2XtRtzKSnxw6VI-vd-14" value="" style="line;strokeWidth=1;fillColor=none;align=left;verticalAlign=middle;spacingTop=-1;spacingLeft=3;spacingRight=3;rotatable=0;labelPosition=right;points=[];portConstraint=eastwest;strokeColor=inherit;rounded=0;" parent="4ze2XtRtzKSnxw6VI-vd-12" vertex="1">
          <mxGeometry y="60" width="320" height="8" as="geometry" />
        </mxCell>
        <mxCell id="4ze2XtRtzKSnxw6VI-vd-15" value="+ AttendeeArrayAdapter(context : Context, attendees : ArrayList&amp;lt;Map.Entry&amp;lt;String, Long&amp;gt;&amp;gt;) : void&lt;br&gt;+ getView(position: Integer, convertView : View, parent : ViewGroup) : View" style="text;strokeColor=none;fillColor=none;align=left;verticalAlign=top;spacingLeft=4;spacingRight=4;overflow=hidden;rotatable=0;points=[[0,0.5],[1,0.5]];portConstraint=eastwest;whiteSpace=wrap;html=1;rounded=0;" parent="4ze2XtRtzKSnxw6VI-vd-12" vertex="1">
          <mxGeometry y="68" width="320" height="72" as="geometry" />
        </mxCell>
        <mxCell id="4ze2XtRtzKSnxw6VI-vd-16" value="User" style="swimlane;fontStyle=1;align=center;verticalAlign=top;childLayout=stackLayout;horizontal=1;startSize=26;horizontalStack=0;resizeParent=1;resizeParentMax=0;resizeLast=0;collapsible=1;marginBottom=0;whiteSpace=wrap;html=1;rounded=0;" parent="WIyWlLk6GJQsqaUBKTNV-1" vertex="1">
          <mxGeometry x="2641" y="580" width="300" height="270" as="geometry" />
        </mxCell>
        <mxCell id="4ze2XtRtzKSnxw6VI-vd-17" value="- userID : String&lt;br&gt;- name : String&lt;br&gt;- eventsAttended : Map&amp;lt;String, Long&amp;gt;&lt;br&gt;- location : Geopoint" style="text;strokeColor=none;fillColor=none;align=left;verticalAlign=top;spacingLeft=4;spacingRight=4;overflow=hidden;rotatable=0;points=[[0,0.5],[1,0.5]];portConstraint=eastwest;whiteSpace=wrap;html=1;rounded=0;" parent="4ze2XtRtzKSnxw6VI-vd-16" vertex="1">
          <mxGeometry y="26" width="300" height="74" as="geometry" />
        </mxCell>
        <mxCell id="4ze2XtRtzKSnxw6VI-vd-18" value="" style="line;strokeWidth=1;fillColor=none;align=left;verticalAlign=middle;spacingTop=-1;spacingLeft=3;spacingRight=3;rotatable=0;labelPosition=right;points=[];portConstraint=eastwest;strokeColor=inherit;rounded=0;" parent="4ze2XtRtzKSnxw6VI-vd-16" vertex="1">
          <mxGeometry y="100" width="300" height="8" as="geometry" />
        </mxCell>
        <mxCell id="4ze2XtRtzKSnxw6VI-vd-19" value="+ User(deviceID : String, userName : String, location : GeoPoint eventsAttended : Map&amp;lt;String, Long&amp;gt;) : Void&lt;br&gt;+ setUserID(userID : String): Void&lt;br&gt;+ setName(name : String): Void&lt;br&gt;+ setLocation(location GeoPoint): Void&lt;br&gt;+ getLocation(): GeoPoint&lt;br&gt;+ createEvent(id : String, name : String, location: GeoPoint, time : Timestamp) : void&lt;br&gt;+ getUserID() : String&lt;br&gt;+ getName() : String" style="text;strokeColor=none;fillColor=none;align=left;verticalAlign=top;spacingLeft=4;spacingRight=4;overflow=hidden;rotatable=0;points=[[0,0.5],[1,0.5]];portConstraint=eastwest;whiteSpace=wrap;html=1;rounded=0;" parent="4ze2XtRtzKSnxw6VI-vd-16" vertex="1">
          <mxGeometry y="108" width="300" height="162" as="geometry" />
        </mxCell>
        <mxCell id="4ze2XtRtzKSnxw6VI-vd-20" value="MapView" style="swimlane;fontStyle=1;align=center;verticalAlign=top;childLayout=stackLayout;horizontal=1;startSize=26;horizontalStack=0;resizeParent=1;resizeParentMax=0;resizeLast=0;collapsible=1;marginBottom=0;whiteSpace=wrap;html=1;rounded=0;" parent="WIyWlLk6GJQsqaUBKTNV-1" vertex="1">
          <mxGeometry x="2340" y="1920" width="380" height="170" as="geometry" />
        </mxCell>
        <mxCell id="4ze2XtRtzKSnxw6VI-vd-21" value="- fusedLocationClient : FusedLocationProviderClient&lt;br&gt;- map : GoogleMap&lt;br&gt;+ db : FirebaseFirestore" style="text;strokeColor=none;fillColor=none;align=left;verticalAlign=top;spacingLeft=4;spacingRight=4;overflow=hidden;rotatable=0;points=[[0,0.5],[1,0.5]];portConstraint=eastwest;whiteSpace=wrap;html=1;rounded=0;" parent="4ze2XtRtzKSnxw6VI-vd-20" vertex="1">
          <mxGeometry y="26" width="380" height="54" as="geometry" />
        </mxCell>
        <mxCell id="4ze2XtRtzKSnxw6VI-vd-22" value="" style="line;strokeWidth=1;fillColor=none;align=left;verticalAlign=middle;spacingTop=-1;spacingLeft=3;spacingRight=3;rotatable=0;labelPosition=right;points=[];portConstraint=eastwest;strokeColor=inherit;rounded=0;" parent="4ze2XtRtzKSnxw6VI-vd-20" vertex="1">
          <mxGeometry y="80" width="380" height="8" as="geometry" />
        </mxCell>
        <mxCell id="4ze2XtRtzKSnxw6VI-vd-23" value="# onCreate(savedInstanceState: Bundle): void&lt;br&gt;+ onMapReady(googleMap: GoogleMap): void&lt;br&gt;+&amp;nbsp;onRequestPermissionsResult(requestCode : Integer, permissions : ArrayList&amp;lt;String&amp;gt;, grantResults : ArrayList&amp;lt;Int&amp;gt;): void&lt;br&gt;- placePins(map: GoogleMap): void" style="text;strokeColor=none;fillColor=none;align=left;verticalAlign=top;spacingLeft=4;spacingRight=4;overflow=hidden;rotatable=0;points=[[0,0.5],[1,0.5]];portConstraint=eastwest;whiteSpace=wrap;html=1;rounded=0;" parent="4ze2XtRtzKSnxw6VI-vd-20" vertex="1">
          <mxGeometry y="88" width="380" height="82" as="geometry" />
        </mxCell>
        <mxCell id="4ze2XtRtzKSnxw6VI-vd-33" value="UserArrayAdapter" style="swimlane;fontStyle=1;align=center;verticalAlign=top;childLayout=stackLayout;horizontal=1;startSize=26;horizontalStack=0;resizeParent=1;resizeParentMax=0;resizeLast=0;collapsible=1;marginBottom=0;whiteSpace=wrap;html=1;rounded=0;" parent="WIyWlLk6GJQsqaUBKTNV-1" vertex="1">
          <mxGeometry x="2641" y="370" width="280" height="150" as="geometry" />
        </mxCell>
        <mxCell id="4ze2XtRtzKSnxw6VI-vd-34" value="&lt;div&gt;- users: ArrayList&amp;lt;User&amp;gt;&lt;/div&gt;&lt;div&gt;- context: Context&lt;/div&gt;" style="text;strokeColor=none;fillColor=none;align=left;verticalAlign=top;spacingLeft=4;spacingRight=4;overflow=hidden;rotatable=0;points=[[0,0.5],[1,0.5]];portConstraint=eastwest;whiteSpace=wrap;html=1;rounded=0;" parent="4ze2XtRtzKSnxw6VI-vd-33" vertex="1">
          <mxGeometry y="26" width="280" height="34" as="geometry" />
        </mxCell>
        <mxCell id="4ze2XtRtzKSnxw6VI-vd-35" value="" style="line;strokeWidth=1;fillColor=none;align=left;verticalAlign=middle;spacingTop=-1;spacingLeft=3;spacingRight=3;rotatable=0;labelPosition=right;points=[];portConstraint=eastwest;strokeColor=inherit;rounded=0;" parent="4ze2XtRtzKSnxw6VI-vd-33" vertex="1">
          <mxGeometry y="60" width="280" height="8" as="geometry" />
        </mxCell>
        <mxCell id="4ze2XtRtzKSnxw6VI-vd-36" value="&lt;div&gt;+ UserArrayAdapter(context: Context, users: ArrayList&amp;lt;User&amp;gt;)&lt;/div&gt;&lt;div&gt;+ getView(position: int, convertView: View, parent: ViewGroup): View&lt;/div&gt;" style="text;strokeColor=none;fillColor=none;align=left;verticalAlign=top;spacingLeft=4;spacingRight=4;overflow=hidden;rotatable=0;points=[[0,0.5],[1,0.5]];portConstraint=eastwest;whiteSpace=wrap;html=1;rounded=0;" parent="4ze2XtRtzKSnxw6VI-vd-33" vertex="1">
          <mxGeometry y="68" width="280" height="82" as="geometry" />
        </mxCell>
        <mxCell id="4ze2XtRtzKSnxw6VI-vd-37" value="AdminAllOptionsFrag" style="swimlane;fontStyle=1;align=center;verticalAlign=top;childLayout=stackLayout;horizontal=1;startSize=26;horizontalStack=0;resizeParent=1;resizeParentMax=0;resizeLast=0;collapsible=1;marginBottom=0;whiteSpace=wrap;html=1;rounded=0;" parent="WIyWlLk6GJQsqaUBKTNV-1" vertex="1">
          <mxGeometry x="1268" y="31" width="230" height="90" as="geometry" />
        </mxCell>
        <mxCell id="4ze2XtRtzKSnxw6VI-vd-39" value="" style="line;strokeWidth=1;fillColor=none;align=left;verticalAlign=middle;spacingTop=-1;spacingLeft=3;spacingRight=3;rotatable=0;labelPosition=right;points=[];portConstraint=eastwest;strokeColor=inherit;rounded=0;" parent="4ze2XtRtzKSnxw6VI-vd-37" vertex="1">
          <mxGeometry y="26" width="230" height="8" as="geometry" />
        </mxCell>
        <mxCell id="4ze2XtRtzKSnxw6VI-vd-40" value="+ onCreateDialog(savedInstanceState: Bundle): Dialog" style="text;strokeColor=none;fillColor=none;align=left;verticalAlign=top;spacingLeft=4;spacingRight=4;overflow=hidden;rotatable=0;points=[[0,0.5],[1,0.5]];portConstraint=eastwest;whiteSpace=wrap;html=1;rounded=0;" parent="4ze2XtRtzKSnxw6VI-vd-37" vertex="1">
          <mxGeometry y="34" width="230" height="56" as="geometry" />
        </mxCell>
        <mxCell id="4ze2XtRtzKSnxw6VI-vd-41" value="AdminEventActivity" style="swimlane;fontStyle=1;align=center;verticalAlign=top;childLayout=stackLayout;horizontal=1;startSize=26;horizontalStack=0;resizeParent=1;resizeParentMax=0;resizeLast=0;collapsible=1;marginBottom=0;whiteSpace=wrap;html=1;rounded=0;" parent="WIyWlLk6GJQsqaUBKTNV-1" vertex="1">
          <mxGeometry x="1220" y="-325" width="330" height="220" as="geometry" />
        </mxCell>
        <mxCell id="4ze2XtRtzKSnxw6VI-vd-42" value="&lt;div&gt;- db: FirebaseFirestore&lt;/div&gt;&lt;div&gt;- eventsRef: CollectionReference&lt;/div&gt;&lt;div&gt;- selectedEvent: Event&lt;/div&gt;&lt;div&gt;- isFetching: boolean&lt;/div&gt;&lt;div&gt;- PAGE_SIZE: int&lt;/div&gt;&lt;div&gt;- lastVisible: DocumentSnapshot&lt;/div&gt;&lt;div&gt;- eventDataList: ArrayList&amp;lt;Event&amp;gt;&lt;/div&gt;&lt;div&gt;- eventArrayAdapter: EventArrayAdapter&lt;/div&gt;&lt;div&gt;- TAG: String&lt;/div&gt;" style="text;strokeColor=none;fillColor=none;align=left;verticalAlign=top;spacingLeft=4;spacingRight=4;overflow=hidden;rotatable=0;points=[[0,0.5],[1,0.5]];portConstraint=eastwest;whiteSpace=wrap;html=1;rounded=0;" parent="4ze2XtRtzKSnxw6VI-vd-41" vertex="1">
          <mxGeometry y="26" width="330" height="144" as="geometry" />
        </mxCell>
        <mxCell id="4ze2XtRtzKSnxw6VI-vd-43" value="" style="line;strokeWidth=1;fillColor=none;align=left;verticalAlign=middle;spacingTop=-1;spacingLeft=3;spacingRight=3;rotatable=0;labelPosition=right;points=[];portConstraint=eastwest;strokeColor=inherit;rounded=0;" parent="4ze2XtRtzKSnxw6VI-vd-41" vertex="1">
          <mxGeometry y="170" width="330" height="8" as="geometry" />
        </mxCell>
        <mxCell id="4ze2XtRtzKSnxw6VI-vd-44" value="&lt;div&gt;+ onCreate(savedInstanceState: Bundle): void&lt;/div&gt;&lt;div&gt;- fetchEvents(): void&lt;/div&gt;" style="text;strokeColor=none;fillColor=none;align=left;verticalAlign=top;spacingLeft=4;spacingRight=4;overflow=hidden;rotatable=0;points=[[0,0.5],[1,0.5]];portConstraint=eastwest;whiteSpace=wrap;html=1;rounded=0;" parent="4ze2XtRtzKSnxw6VI-vd-41" vertex="1">
          <mxGeometry y="178" width="330" height="42" as="geometry" />
        </mxCell>
        <mxCell id="4ze2XtRtzKSnxw6VI-vd-45" value="AdminImagesOptionActivity" style="swimlane;fontStyle=1;align=center;verticalAlign=top;childLayout=stackLayout;horizontal=1;startSize=26;horizontalStack=0;resizeParent=1;resizeParentMax=0;resizeLast=0;collapsible=1;marginBottom=0;whiteSpace=wrap;html=1;rounded=0;" parent="WIyWlLk6GJQsqaUBKTNV-1" vertex="1">
          <mxGeometry x="1620" y="-470" width="220" height="100" as="geometry" />
        </mxCell>
        <mxCell id="4ze2XtRtzKSnxw6VI-vd-47" value="" style="line;strokeWidth=1;fillColor=none;align=left;verticalAlign=middle;spacingTop=-1;spacingLeft=3;spacingRight=3;rotatable=0;labelPosition=right;points=[];portConstraint=eastwest;strokeColor=inherit;rounded=0;" parent="4ze2XtRtzKSnxw6VI-vd-45" vertex="1">
          <mxGeometry y="26" width="220" height="8" as="geometry" />
        </mxCell>
        <mxCell id="4ze2XtRtzKSnxw6VI-vd-48" value="&lt;div&gt;+ onCreate(savedInstanceState: Bundle): void&lt;/div&gt;&lt;div&gt;- preload(title: String, type: String): void&lt;/div&gt;" style="text;strokeColor=none;fillColor=none;align=left;verticalAlign=top;spacingLeft=4;spacingRight=4;overflow=hidden;rotatable=0;points=[[0,0.5],[1,0.5]];portConstraint=eastwest;whiteSpace=wrap;html=1;rounded=0;" parent="4ze2XtRtzKSnxw6VI-vd-45" vertex="1">
          <mxGeometry y="34" width="220" height="66" as="geometry" />
        </mxCell>
        <mxCell id="4ze2XtRtzKSnxw6VI-vd-53" value="AdminImageView" style="swimlane;fontStyle=1;align=center;verticalAlign=top;childLayout=stackLayout;horizontal=1;startSize=26;horizontalStack=0;resizeParent=1;resizeParentMax=0;resizeLast=0;collapsible=1;marginBottom=0;whiteSpace=wrap;html=1;rounded=0;" parent="WIyWlLk6GJQsqaUBKTNV-1" vertex="1">
          <mxGeometry x="1953" y="-622" width="230" height="250" as="geometry" />
        </mxCell>
        <mxCell id="4ze2XtRtzKSnxw6VI-vd-55" value="" style="line;strokeWidth=1;fillColor=none;align=left;verticalAlign=middle;spacingTop=-1;spacingLeft=3;spacingRight=3;rotatable=0;labelPosition=right;points=[];portConstraint=eastwest;strokeColor=inherit;rounded=0;" parent="4ze2XtRtzKSnxw6VI-vd-53" vertex="1">
          <mxGeometry y="26" width="230" height="8" as="geometry" />
        </mxCell>
        <mxCell id="4ze2XtRtzKSnxw6VI-vd-54" value="&lt;div&gt;- imageRecyclerView: RecyclerView&lt;/div&gt;&lt;div&gt;- loadedImages: List&amp;lt;String&amp;gt;&lt;/div&gt;&lt;div&gt;- adapter: ImageAdapter&lt;/div&gt;&lt;div&gt;- storageRef: StorageReference&lt;/div&gt;&lt;div&gt;- TypeRef: String&lt;/div&gt;&lt;div&gt;- Title: String&lt;/div&gt;" style="text;strokeColor=none;fillColor=none;align=left;verticalAlign=top;spacingLeft=4;spacingRight=4;overflow=hidden;rotatable=0;points=[[0,0.5],[1,0.5]];portConstraint=eastwest;whiteSpace=wrap;html=1;rounded=0;" parent="4ze2XtRtzKSnxw6VI-vd-53" vertex="1">
          <mxGeometry y="34" width="230" height="94" as="geometry" />
        </mxCell>
        <mxCell id="4ze2XtRtzKSnxw6VI-vd-56" value="&lt;div&gt;+ AdminImageView(title: String, type: String)&lt;/div&gt;&lt;div&gt;+ onCreateDialog(savedInstanceState: Bundle): Dialog&lt;/div&gt;&lt;div&gt;- populateListView(): void&lt;/div&gt;&lt;div&gt;- deleteSelectedImages(): void&lt;/div&gt;&lt;div&gt;+ onImageLongClick(imageUrl: String): void&lt;/div&gt;" style="text;strokeColor=none;fillColor=none;align=left;verticalAlign=top;spacingLeft=4;spacingRight=4;overflow=hidden;rotatable=0;points=[[0,0.5],[1,0.5]];portConstraint=eastwest;whiteSpace=wrap;html=1;rounded=0;" parent="4ze2XtRtzKSnxw6VI-vd-53" vertex="1">
          <mxGeometry y="128" width="230" height="122" as="geometry" />
        </mxCell>
        <mxCell id="4ze2XtRtzKSnxw6VI-vd-57" value="AdminUserActivity" style="swimlane;fontStyle=1;align=center;verticalAlign=top;childLayout=stackLayout;horizontal=1;startSize=26;horizontalStack=0;resizeParent=1;resizeParentMax=0;resizeLast=0;collapsible=1;marginBottom=0;whiteSpace=wrap;html=1;rounded=0;" parent="WIyWlLk6GJQsqaUBKTNV-1" vertex="1">
          <mxGeometry x="950" y="-313" width="200" height="230" as="geometry" />
        </mxCell>
        <mxCell id="4ze2XtRtzKSnxw6VI-vd-58" value="&lt;div&gt;- db: FirebaseFirestore&lt;/div&gt;&lt;div&gt;- usersRef: CollectionReference&lt;/div&gt;&lt;div&gt;- userDataList: ArrayList&amp;lt;User&amp;gt;&lt;/div&gt;&lt;div&gt;- userArrayAdapter: UserArrayAdapter&lt;/div&gt;&lt;div&gt;- lastVisible: DocumentSnapshot&lt;/div&gt;&lt;div&gt;- isFetching: boolean&lt;/div&gt;" style="text;strokeColor=none;fillColor=none;align=left;verticalAlign=top;spacingLeft=4;spacingRight=4;overflow=hidden;rotatable=0;points=[[0,0.5],[1,0.5]];portConstraint=eastwest;whiteSpace=wrap;html=1;rounded=0;" parent="4ze2XtRtzKSnxw6VI-vd-57" vertex="1">
          <mxGeometry y="26" width="200" height="114" as="geometry" />
        </mxCell>
        <mxCell id="4ze2XtRtzKSnxw6VI-vd-59" value="" style="line;strokeWidth=1;fillColor=none;align=left;verticalAlign=middle;spacingTop=-1;spacingLeft=3;spacingRight=3;rotatable=0;labelPosition=right;points=[];portConstraint=eastwest;strokeColor=inherit;rounded=0;" parent="4ze2XtRtzKSnxw6VI-vd-57" vertex="1">
          <mxGeometry y="140" width="200" height="20" as="geometry" />
        </mxCell>
        <mxCell id="4ze2XtRtzKSnxw6VI-vd-60" value="&lt;div&gt;+ onCreate(savedInstanceState: Bundle): void&lt;/div&gt;&lt;div&gt;- fetchUsers(): void&lt;/div&gt;&lt;div&gt;+ onResume(): void&lt;/div&gt;" style="text;strokeColor=none;fillColor=none;align=left;verticalAlign=top;spacingLeft=4;spacingRight=4;overflow=hidden;rotatable=0;points=[[0,0.5],[1,0.5]];portConstraint=eastwest;whiteSpace=wrap;html=1;rounded=0;" parent="4ze2XtRtzKSnxw6VI-vd-57" vertex="1">
          <mxGeometry y="160" width="200" height="70" as="geometry" />
        </mxCell>
        <mxCell id="4ze2XtRtzKSnxw6VI-vd-61" value="EventDetailsAdminActivity" style="swimlane;fontStyle=1;align=center;verticalAlign=top;childLayout=stackLayout;horizontal=1;startSize=26;horizontalStack=0;resizeParent=1;resizeParentMax=0;resizeLast=0;collapsible=1;marginBottom=0;whiteSpace=wrap;html=1;rounded=0;" parent="WIyWlLk6GJQsqaUBKTNV-1" vertex="1">
          <mxGeometry x="1210" y="-670" width="330" height="220" as="geometry" />
        </mxCell>
        <mxCell id="4ze2XtRtzKSnxw6VI-vd-62" value="&lt;div&gt;- db: FirebaseFirestore&lt;/div&gt;&lt;div&gt;- eventsRef: CollectionReference&lt;/div&gt;&lt;div&gt;- usersRef: CollectionReference&lt;/div&gt;&lt;div&gt;- docRefEvent: DocumentReference&lt;/div&gt;&lt;div&gt;- selectedEvent: Event&lt;/div&gt;&lt;div&gt;- TAG: String&lt;/div&gt;&lt;div&gt;- eventID: String&lt;/div&gt;" style="text;strokeColor=none;fillColor=none;align=left;verticalAlign=top;spacingLeft=4;spacingRight=4;overflow=hidden;rotatable=0;points=[[0,0.5],[1,0.5]];portConstraint=eastwest;whiteSpace=wrap;html=1;rounded=0;" parent="4ze2XtRtzKSnxw6VI-vd-61" vertex="1">
          <mxGeometry y="26" width="330" height="114" as="geometry" />
        </mxCell>
        <mxCell id="4ze2XtRtzKSnxw6VI-vd-63" value="" style="line;strokeWidth=1;fillColor=none;align=left;verticalAlign=middle;spacingTop=-1;spacingLeft=3;spacingRight=3;rotatable=0;labelPosition=right;points=[];portConstraint=eastwest;strokeColor=inherit;rounded=0;" parent="4ze2XtRtzKSnxw6VI-vd-61" vertex="1">
          <mxGeometry y="140" width="330" height="8" as="geometry" />
        </mxCell>
        <mxCell id="4ze2XtRtzKSnxw6VI-vd-64" value="&lt;div&gt;+ onCreate(savedInstanceState: Bundle): void&lt;/div&gt;&lt;div&gt;- initializeFirestore(): void&lt;/div&gt;&lt;div&gt;- removeEvent(eventID: String, eventsRef: CollectionReference, usersRef: CollectionReference): void&lt;/div&gt;" style="text;strokeColor=none;fillColor=none;align=left;verticalAlign=top;spacingLeft=4;spacingRight=4;overflow=hidden;rotatable=0;points=[[0,0.5],[1,0.5]];portConstraint=eastwest;whiteSpace=wrap;html=1;rounded=0;" parent="4ze2XtRtzKSnxw6VI-vd-61" vertex="1">
          <mxGeometry y="148" width="330" height="72" as="geometry" />
        </mxCell>
        <mxCell id="4ze2XtRtzKSnxw6VI-vd-65" value="ImageAdapter" style="swimlane;fontStyle=1;align=center;verticalAlign=top;childLayout=stackLayout;horizontal=1;startSize=26;horizontalStack=0;resizeParent=1;resizeParentMax=0;resizeLast=0;collapsible=1;marginBottom=0;whiteSpace=wrap;html=1;rounded=0;" parent="WIyWlLk6GJQsqaUBKTNV-1" vertex="1">
          <mxGeometry x="2350" y="-655" width="360" height="350" as="geometry" />
        </mxCell>
        <mxCell id="4ze2XtRtzKSnxw6VI-vd-66" value="&lt;div&gt;- mContext: Context&lt;/div&gt;&lt;div&gt;- mImageUrls: List&amp;lt;String&amp;gt;&lt;/div&gt;&lt;div&gt;- selectedPositions: SparseBooleanArray&lt;/div&gt;&lt;div&gt;- preloadCount: int&lt;/div&gt;&lt;div&gt;- longClickListener:OnImageLongClickListener&lt;/div&gt;&lt;div&gt;- imageView: ImageView&lt;/div&gt;" style="text;strokeColor=none;fillColor=none;align=left;verticalAlign=top;spacingLeft=4;spacingRight=4;overflow=hidden;rotatable=0;points=[[0,0.5],[1,0.5]];portConstraint=eastwest;whiteSpace=wrap;html=1;rounded=0;" parent="4ze2XtRtzKSnxw6VI-vd-65" vertex="1">
          <mxGeometry y="26" width="360" height="104" as="geometry" />
        </mxCell>
        <mxCell id="4ze2XtRtzKSnxw6VI-vd-67" value="" style="line;strokeWidth=1;fillColor=none;align=left;verticalAlign=middle;spacingTop=-1;spacingLeft=3;spacingRight=3;rotatable=0;labelPosition=right;points=[];portConstraint=eastwest;strokeColor=inherit;rounded=0;" parent="4ze2XtRtzKSnxw6VI-vd-65" vertex="1">
          <mxGeometry y="130" width="360" height="8" as="geometry" />
        </mxCell>
        <mxCell id="4ze2XtRtzKSnxw6VI-vd-68" value="&lt;div&gt;+ ImageAdapter(context: Context, imageUrls: List&amp;lt;String&amp;gt;)&lt;/div&gt;&lt;div&gt;+ setOnImageLongClickListener(listener: OnImageLongClickListener): void&lt;/div&gt;&lt;div&gt;+ toggleSelection(position: int): void&lt;/div&gt;&lt;div&gt;+ getSelectedImages(): List&amp;lt;String&amp;gt;&lt;/div&gt;&lt;div&gt;+ onCreateViewHolder(parent: ViewGroup, viewType: int): ImageViewHolder&lt;/div&gt;&lt;div&gt;+ onBindViewHolder(holder: ImageViewHolder, position: int): void&lt;/div&gt;&lt;div&gt;+ getItemCount(): int&lt;/div&gt;&lt;div&gt;- onBindViewHolder(holder: ImageViewHolder, position: int): void&amp;nbsp;ImageViewHolder&lt;/div&gt;&lt;div&gt;&lt;div&gt;+ onLongClick(v: View): boolean&lt;/div&gt;&lt;div&gt;+ ImageViewHolder(itemView: View)&lt;/div&gt;&lt;div&gt;+ bind(position: int): void&lt;/div&gt;&lt;/div&gt;" style="text;strokeColor=none;fillColor=none;align=left;verticalAlign=top;spacingLeft=4;spacingRight=4;overflow=hidden;rotatable=0;points=[[0,0.5],[1,0.5]];portConstraint=eastwest;whiteSpace=wrap;html=1;rounded=0;" parent="4ze2XtRtzKSnxw6VI-vd-65" vertex="1">
          <mxGeometry y="138" width="360" height="212" as="geometry" />
        </mxCell>
        <mxCell id="4ze2XtRtzKSnxw6VI-vd-69" value="ImageDetail" style="swimlane;fontStyle=1;align=center;verticalAlign=top;childLayout=stackLayout;horizontal=1;startSize=26;horizontalStack=0;resizeParent=1;resizeParentMax=0;resizeLast=0;collapsible=1;marginBottom=0;whiteSpace=wrap;html=1;rounded=0;" parent="WIyWlLk6GJQsqaUBKTNV-1" vertex="1">
          <mxGeometry x="1957" y="-890" width="220" height="124" as="geometry" />
        </mxCell>
        <mxCell id="4ze2XtRtzKSnxw6VI-vd-71" value="" style="line;strokeWidth=1;fillColor=none;align=left;verticalAlign=middle;spacingTop=-1;spacingLeft=3;spacingRight=3;rotatable=0;labelPosition=right;points=[];portConstraint=eastwest;strokeColor=inherit;rounded=0;" parent="4ze2XtRtzKSnxw6VI-vd-69" vertex="1">
          <mxGeometry y="26" width="220" height="8" as="geometry" />
        </mxCell>
        <mxCell id="4ze2XtRtzKSnxw6VI-vd-72" value="&lt;div&gt;+ onCreateDialog(savedInstanceState: Bundle): Dialog&lt;/div&gt;&lt;div&gt;- getName(URL: String): String&lt;/div&gt;" style="text;strokeColor=none;fillColor=none;align=left;verticalAlign=top;spacingLeft=4;spacingRight=4;overflow=hidden;rotatable=0;points=[[0,0.5],[1,0.5]];portConstraint=eastwest;whiteSpace=wrap;html=1;rounded=0;" parent="4ze2XtRtzKSnxw6VI-vd-69" vertex="1">
          <mxGeometry y="34" width="220" height="90" as="geometry" />
        </mxCell>
        <mxCell id="4ze2XtRtzKSnxw6VI-vd-80" value="AttendanceActivity" style="swimlane;fontStyle=1;align=center;verticalAlign=top;childLayout=stackLayout;horizontal=1;startSize=26;horizontalStack=0;resizeParent=1;resizeParentMax=0;resizeLast=0;collapsible=1;marginBottom=0;whiteSpace=wrap;html=1;rounded=0;" parent="WIyWlLk6GJQsqaUBKTNV-1" vertex="1">
          <mxGeometry x="827" y="1810" width="270" height="140" as="geometry" />
        </mxCell>
        <mxCell id="4ze2XtRtzKSnxw6VI-vd-81" value="&lt;div&gt;- db: FirebaseFirestore&lt;/div&gt;&lt;div&gt;- docRefEvent: DocumentReference&lt;/div&gt;&lt;div&gt;- notifier: Notifier&lt;/div&gt;&lt;div&gt;- selectedUser: Map.Entry&amp;lt;String, Long&amp;gt;&lt;/div&gt;" style="text;strokeColor=none;fillColor=none;align=left;verticalAlign=top;spacingLeft=4;spacingRight=4;overflow=hidden;rotatable=0;points=[[0,0.5],[1,0.5]];portConstraint=eastwest;whiteSpace=wrap;html=1;rounded=0;" parent="4ze2XtRtzKSnxw6VI-vd-80" vertex="1">
          <mxGeometry y="26" width="270" height="74" as="geometry" />
        </mxCell>
        <mxCell id="4ze2XtRtzKSnxw6VI-vd-82" value="" style="line;strokeWidth=1;fillColor=none;align=left;verticalAlign=middle;spacingTop=-1;spacingLeft=3;spacingRight=3;rotatable=0;labelPosition=right;points=[];portConstraint=eastwest;strokeColor=inherit;rounded=0;" parent="4ze2XtRtzKSnxw6VI-vd-80" vertex="1">
          <mxGeometry y="100" width="270" height="8" as="geometry" />
        </mxCell>
        <mxCell id="4ze2XtRtzKSnxw6VI-vd-83" value="+ onCreate(savedInstanceState: Bundle): void" style="text;strokeColor=none;fillColor=none;align=left;verticalAlign=top;spacingLeft=4;spacingRight=4;overflow=hidden;rotatable=0;points=[[0,0.5],[1,0.5]];portConstraint=eastwest;whiteSpace=wrap;html=1;rounded=0;" parent="4ze2XtRtzKSnxw6VI-vd-80" vertex="1">
          <mxGeometry y="108" width="270" height="32" as="geometry" />
        </mxCell>
        <mxCell id="4ze2XtRtzKSnxw6VI-vd-88" value="AttendeeEventActivity" style="swimlane;fontStyle=1;align=center;verticalAlign=top;childLayout=stackLayout;horizontal=1;startSize=26;horizontalStack=0;resizeParent=1;resizeParentMax=0;resizeLast=0;collapsible=1;marginBottom=0;whiteSpace=wrap;html=1;rounded=0;" parent="WIyWlLk6GJQsqaUBKTNV-1" vertex="1">
          <mxGeometry x="1780" y="565" width="290" height="360" as="geometry" />
        </mxCell>
        <mxCell id="4ze2XtRtzKSnxw6VI-vd-89" value="&lt;div&gt;- db: FirebaseFirestore&lt;/div&gt;&lt;div&gt;- eventsRef: CollectionReference&lt;/div&gt;&lt;div&gt;- usersRef: CollectionReference&lt;/div&gt;&lt;div&gt;- userDocRef: DocumentReference&lt;/div&gt;&lt;div&gt;- fusedLocationClient: FusedLocationProviderClient&lt;/div&gt;&lt;div&gt;- attendeeEvents: List&amp;lt;String&amp;gt;&lt;/div&gt;&lt;div&gt;- eventDataList: ArrayList&amp;lt;Event&amp;gt;&lt;/div&gt;&lt;div&gt;- eventArrayAdapter: EventArrayAdapter&lt;/div&gt;&lt;div&gt;- executorService: ExecutorService&lt;/div&gt;&lt;div&gt;- mainThreadHandler: Handler&lt;/div&gt;&lt;div&gt;+ userID: String&lt;/div&gt;" style="text;strokeColor=none;fillColor=none;align=left;verticalAlign=top;spacingLeft=4;spacingRight=4;overflow=hidden;rotatable=0;points=[[0,0.5],[1,0.5]];portConstraint=eastwest;whiteSpace=wrap;html=1;rounded=0;" parent="4ze2XtRtzKSnxw6VI-vd-88" vertex="1">
          <mxGeometry y="26" width="290" height="194" as="geometry" />
        </mxCell>
        <mxCell id="4ze2XtRtzKSnxw6VI-vd-90" value="" style="line;strokeWidth=1;fillColor=none;align=left;verticalAlign=middle;spacingTop=-1;spacingLeft=3;spacingRight=3;rotatable=0;labelPosition=right;points=[];portConstraint=eastwest;strokeColor=inherit;rounded=0;" parent="4ze2XtRtzKSnxw6VI-vd-88" vertex="1">
          <mxGeometry y="220" width="290" height="8" as="geometry" />
        </mxCell>
        <mxCell id="4ze2XtRtzKSnxw6VI-vd-91" value="&lt;div&gt;+ onCreate(savedInstanceState: Bundle): void&lt;/div&gt;&lt;div&gt;+ fetchLocal(context: Context): void&lt;/div&gt;&lt;div&gt;+ fetchAttendeeEvents(): void&lt;/div&gt;&lt;div&gt;+ showEventDetailsDialog(event: Event): void&lt;/div&gt;&lt;div&gt;+ updateAdapter(events: ArrayList&amp;lt;Event&amp;gt;): void&lt;/div&gt;&lt;div&gt;+ setupRealTimeEventUpdates(): void&lt;/div&gt;&lt;div&gt;+ setupMilestoneListener(): void&lt;/div&gt;" style="text;strokeColor=none;fillColor=none;align=left;verticalAlign=top;spacingLeft=4;spacingRight=4;overflow=hidden;rotatable=0;points=[[0,0.5],[1,0.5]];portConstraint=eastwest;whiteSpace=wrap;html=1;rounded=0;" parent="4ze2XtRtzKSnxw6VI-vd-88" vertex="1">
          <mxGeometry y="228" width="290" height="132" as="geometry" />
        </mxCell>
        <mxCell id="4ze2XtRtzKSnxw6VI-vd-92" value="BrowseEventActivity" style="swimlane;fontStyle=1;align=center;verticalAlign=top;childLayout=stackLayout;horizontal=1;startSize=26;horizontalStack=0;resizeParent=1;resizeParentMax=0;resizeLast=0;collapsible=1;marginBottom=0;whiteSpace=wrap;html=1;rounded=0;" parent="WIyWlLk6GJQsqaUBKTNV-1" vertex="1">
          <mxGeometry x="2810" y="20" width="280" height="280" as="geometry" />
        </mxCell>
        <mxCell id="4ze2XtRtzKSnxw6VI-vd-93" value="&lt;div&gt;- db: FirebaseFirestore&lt;/div&gt;&lt;div&gt;- eventsRef: CollectionReference&lt;/div&gt;&lt;div&gt;- selectedEvent: Event&lt;/div&gt;&lt;div&gt;- isFetching: boolean&lt;/div&gt;&lt;div&gt;- lastVisible: DocumentSnapshot&lt;/div&gt;&lt;div&gt;- eventDataList: ArrayList&amp;lt;Event&amp;gt;&lt;/div&gt;&lt;div&gt;- eventArrayAdapter: EventArrayAdapter&lt;/div&gt;&lt;div&gt;- executorService: ExecutorService&lt;/div&gt;&lt;div&gt;- mainThreadHandler: Handler&lt;/div&gt;&lt;div&gt;+ PAGE_SIZE: int&lt;/div&gt;" style="text;strokeColor=none;fillColor=none;align=left;verticalAlign=top;spacingLeft=4;spacingRight=4;overflow=hidden;rotatable=0;points=[[0,0.5],[1,0.5]];portConstraint=eastwest;whiteSpace=wrap;html=1;rounded=0;" parent="4ze2XtRtzKSnxw6VI-vd-92" vertex="1">
          <mxGeometry y="26" width="280" height="154" as="geometry" />
        </mxCell>
        <mxCell id="4ze2XtRtzKSnxw6VI-vd-94" value="" style="line;strokeWidth=1;fillColor=none;align=left;verticalAlign=middle;spacingTop=-1;spacingLeft=3;spacingRight=3;rotatable=0;labelPosition=right;points=[];portConstraint=eastwest;strokeColor=inherit;rounded=0;" parent="4ze2XtRtzKSnxw6VI-vd-92" vertex="1">
          <mxGeometry y="180" width="280" height="8" as="geometry" />
        </mxCell>
        <mxCell id="4ze2XtRtzKSnxw6VI-vd-95" value="&lt;div&gt;+ onCreate(savedInstanceState: Bundle): void&lt;/div&gt;&lt;div&gt;- fetchEvents(): void&lt;/div&gt;&lt;div&gt;- fetchBrowseEvents(): void&lt;/div&gt;&lt;div&gt;- fetchLocal(context: Context): void&lt;/div&gt;&lt;div&gt;- setupRealTimeEventUpdates(): void&lt;/div&gt;" style="text;strokeColor=none;fillColor=none;align=left;verticalAlign=top;spacingLeft=4;spacingRight=4;overflow=hidden;rotatable=0;points=[[0,0.5],[1,0.5]];portConstraint=eastwest;whiteSpace=wrap;html=1;rounded=0;" parent="4ze2XtRtzKSnxw6VI-vd-92" vertex="1">
          <mxGeometry y="188" width="280" height="92" as="geometry" />
        </mxCell>
        <mxCell id="4ze2XtRtzKSnxw6VI-vd-96" value="CreateEventActivity" style="swimlane;fontStyle=1;align=center;verticalAlign=top;childLayout=stackLayout;horizontal=1;startSize=26;horizontalStack=0;resizeParent=1;resizeParentMax=0;resizeLast=0;collapsible=1;marginBottom=0;whiteSpace=wrap;html=1;rounded=0;" parent="WIyWlLk6GJQsqaUBKTNV-1" vertex="1">
          <mxGeometry x="653" y="810" width="519" height="550" as="geometry" />
        </mxCell>
        <mxCell id="4ze2XtRtzKSnxw6VI-vd-97" value="&lt;div&gt;- db: FirebaseFirestore&lt;/div&gt;&lt;div&gt;- eventsRef: CollectionReference&lt;/div&gt;&lt;div&gt;- qrCodeRef: CollectionReference&lt;/div&gt;&lt;div&gt;- eventDateTime: Calendar&lt;/div&gt;&lt;div&gt;- eventLocation: GeoPoint&lt;/div&gt;&lt;div&gt;- eventLocationName: String&lt;/div&gt;&lt;div&gt;- getLocation: EditText&lt;/div&gt;&lt;div&gt;- userName: String&lt;/div&gt;&lt;div&gt;- selectedQRCode: String&lt;/div&gt;&lt;div&gt;- qrCode: QRCode&lt;/div&gt;&lt;div&gt;- selectedPastEvent: String&lt;/div&gt;&lt;div&gt;- qrReuseCheckBox: CheckBox&lt;/div&gt;&lt;div&gt;- qrReuseWarning: TextView&lt;/div&gt;&lt;div&gt;- deviceID: String&lt;/div&gt;&lt;div&gt;- Poster: ImageView&lt;/div&gt;&lt;div&gt;- uploaded: Uri&lt;/div&gt;&lt;div&gt;- event: HashMap&amp;lt;String, Object&amp;gt;&lt;/div&gt;&lt;div&gt;- storage: StorageReference&lt;/div&gt;&lt;div&gt;- qrReuseButton: TextView&lt;/div&gt;&lt;div&gt;- generatedQRCode: String&lt;/div&gt;&lt;div&gt;- generatedPromotionalQRCode: String&lt;/div&gt;" style="text;strokeColor=none;fillColor=none;align=left;verticalAlign=top;spacingLeft=4;spacingRight=4;overflow=hidden;rotatable=0;points=[[0,0.5],[1,0.5]];portConstraint=eastwest;whiteSpace=wrap;html=1;rounded=0;" parent="4ze2XtRtzKSnxw6VI-vd-96" vertex="1">
          <mxGeometry y="26" width="519" height="314" as="geometry" />
        </mxCell>
        <mxCell id="4ze2XtRtzKSnxw6VI-vd-98" value="" style="line;strokeWidth=1;fillColor=none;align=left;verticalAlign=middle;spacingTop=-1;spacingLeft=3;spacingRight=3;rotatable=0;labelPosition=right;points=[];portConstraint=eastwest;strokeColor=inherit;rounded=0;" parent="4ze2XtRtzKSnxw6VI-vd-96" vertex="1">
          <mxGeometry y="340" width="519" height="8" as="geometry" />
        </mxCell>
        <mxCell id="4ze2XtRtzKSnxw6VI-vd-99" value="&lt;div&gt;+ onCreate(savedInstanceState: Bundle) : void&lt;/div&gt;&lt;div&gt;+ isUploaded(eventID: String) : void&lt;/div&gt;&lt;div&gt;+ AddEvent() : void&lt;/div&gt;&lt;div&gt;- showDatePickerDialog(eventDate: EditText) : void&lt;/div&gt;&lt;div&gt;- showTimePickerDialog(eventTime: EditText) : void&lt;/div&gt;&lt;div&gt;+ onActivityResult(requestCode: int, resultCode: int, data: Intent) : void&lt;/div&gt;&lt;div&gt;+ validateUserInput() : boolean&lt;/div&gt;&lt;div&gt;- updatePastEvent() : void&lt;/div&gt;&lt;div&gt;+ setReuseQRButtonVisible() : void&lt;/div&gt;&lt;div&gt;+ generateAndCheckQRCode() : void&lt;/div&gt;&lt;div&gt;- checkQRCodeExistence(db: FirebaseFirestore, qrCode: String, callback: ExistenceCallback) : void&lt;/div&gt;&lt;div&gt;- updateQRCodeReference(eventId: String) : void&lt;/div&gt;" style="text;strokeColor=none;fillColor=none;align=left;verticalAlign=top;spacingLeft=4;spacingRight=4;overflow=hidden;rotatable=0;points=[[0,0.5],[1,0.5]];portConstraint=eastwest;whiteSpace=wrap;html=1;rounded=0;" parent="4ze2XtRtzKSnxw6VI-vd-96" vertex="1">
          <mxGeometry y="348" width="519" height="202" as="geometry" />
        </mxCell>
        <mxCell id="4ze2XtRtzKSnxw6VI-vd-104" value="EventDetailsAttendeeActivity" style="swimlane;fontStyle=1;align=center;verticalAlign=top;childLayout=stackLayout;horizontal=1;startSize=26;horizontalStack=0;resizeParent=1;resizeParentMax=0;resizeLast=0;collapsible=1;marginBottom=0;whiteSpace=wrap;html=1;rounded=0;" parent="WIyWlLk6GJQsqaUBKTNV-1" vertex="1">
          <mxGeometry x="1880" y="1920" width="310" height="210" as="geometry" />
        </mxCell>
        <mxCell id="4ze2XtRtzKSnxw6VI-vd-105" value="&lt;div&gt;- db: FirebaseFirestore&lt;/div&gt;&lt;div&gt;- eventsRef: CollectionReference&lt;/div&gt;&lt;div&gt;- docRefUser: DocumentReference&lt;/div&gt;&lt;div&gt;- docRefEvent: DocumentReference&lt;/div&gt;&lt;div&gt;- selectedEvent: Event&lt;/div&gt;&lt;div&gt;- eventID: String&lt;/div&gt;&lt;div&gt;- userid: String&lt;/div&gt;" style="text;strokeColor=none;fillColor=none;align=left;verticalAlign=top;spacingLeft=4;spacingRight=4;overflow=hidden;rotatable=0;points=[[0,0.5],[1,0.5]];portConstraint=eastwest;whiteSpace=wrap;html=1;rounded=0;" parent="4ze2XtRtzKSnxw6VI-vd-104" vertex="1">
          <mxGeometry y="26" width="310" height="124" as="geometry" />
        </mxCell>
        <mxCell id="4ze2XtRtzKSnxw6VI-vd-106" value="" style="line;strokeWidth=1;fillColor=none;align=left;verticalAlign=middle;spacingTop=-1;spacingLeft=3;spacingRight=3;rotatable=0;labelPosition=right;points=[];portConstraint=eastwest;strokeColor=inherit;rounded=0;" parent="4ze2XtRtzKSnxw6VI-vd-104" vertex="1">
          <mxGeometry y="150" width="310" height="8" as="geometry" />
        </mxCell>
        <mxCell id="4ze2XtRtzKSnxw6VI-vd-107" value="&lt;div&gt;+ onCreate(savedInstanceState: Bundle) : void&lt;/div&gt;&lt;div&gt;+ startFromMap(context: Context, eventID: String) : void&lt;/div&gt;" style="text;strokeColor=none;fillColor=none;align=left;verticalAlign=top;spacingLeft=4;spacingRight=4;overflow=hidden;rotatable=0;points=[[0,0.5],[1,0.5]];portConstraint=eastwest;whiteSpace=wrap;html=1;rounded=0;" parent="4ze2XtRtzKSnxw6VI-vd-104" vertex="1">
          <mxGeometry y="158" width="310" height="52" as="geometry" />
        </mxCell>
        <mxCell id="4ze2XtRtzKSnxw6VI-vd-112" value="EventDetailsOrganizerActivity" style="swimlane;fontStyle=1;align=center;verticalAlign=top;childLayout=stackLayout;horizontal=1;startSize=26;horizontalStack=0;resizeParent=1;resizeParentMax=0;resizeLast=0;collapsible=1;marginBottom=0;whiteSpace=wrap;html=1;rounded=0;" parent="WIyWlLk6GJQsqaUBKTNV-1" vertex="1">
          <mxGeometry x="990" y="1440" width="300" height="270" as="geometry" />
        </mxCell>
        <mxCell id="4ze2XtRtzKSnxw6VI-vd-113" value="&lt;div&gt;- db: FirebaseFirestore&lt;/div&gt;&lt;div&gt;- docRefEvent: DocumentReference&lt;/div&gt;&lt;div&gt;- qrRef: CollectionReference&lt;/div&gt;&lt;div&gt;- usersRef: CollectionReference&lt;/div&gt;&lt;div&gt;- eventsRef: CollectionReference&lt;/div&gt;&lt;div&gt;- qrCode: QRCode&lt;/div&gt;&lt;div&gt;- qrCodePromotional: QRCode&lt;/div&gt;&lt;div&gt;- eventID: String&lt;/div&gt;&lt;div&gt;- TAG: String&lt;/div&gt;" style="text;strokeColor=none;fillColor=none;align=left;verticalAlign=top;spacingLeft=4;spacingRight=4;overflow=hidden;rotatable=0;points=[[0,0.5],[1,0.5]];portConstraint=eastwest;whiteSpace=wrap;html=1;rounded=0;" parent="4ze2XtRtzKSnxw6VI-vd-112" vertex="1">
          <mxGeometry y="26" width="300" height="134" as="geometry" />
        </mxCell>
        <mxCell id="4ze2XtRtzKSnxw6VI-vd-114" value="" style="line;strokeWidth=1;fillColor=none;align=left;verticalAlign=middle;spacingTop=-1;spacingLeft=3;spacingRight=3;rotatable=0;labelPosition=right;points=[];portConstraint=eastwest;strokeColor=inherit;rounded=0;" parent="4ze2XtRtzKSnxw6VI-vd-112" vertex="1">
          <mxGeometry y="160" width="300" height="8" as="geometry" />
        </mxCell>
        <mxCell id="4ze2XtRtzKSnxw6VI-vd-115" value="&lt;div&gt;+ onCreate(savedInstanceState: Bundle) : void&lt;/div&gt;&lt;div&gt;+ goToMapActivity() : void&lt;/div&gt;&lt;div&gt;+ fetchPromotionalQRCode() : void&lt;/div&gt;&lt;div&gt;+ removeEvent(eventID: String, eventsRef: CollectionReference, usersRef: CollectionReference) : void&lt;/div&gt;" style="text;strokeColor=none;fillColor=none;align=left;verticalAlign=top;spacingLeft=4;spacingRight=4;overflow=hidden;rotatable=0;points=[[0,0.5],[1,0.5]];portConstraint=eastwest;whiteSpace=wrap;html=1;rounded=0;" parent="4ze2XtRtzKSnxw6VI-vd-112" vertex="1">
          <mxGeometry y="168" width="300" height="102" as="geometry" />
        </mxCell>
        <mxCell id="4ze2XtRtzKSnxw6VI-vd-116" value="EventRemoveAttendeeActivity" style="swimlane;fontStyle=1;align=center;verticalAlign=top;childLayout=stackLayout;horizontal=1;startSize=26;horizontalStack=0;resizeParent=1;resizeParentMax=0;resizeLast=0;collapsible=1;marginBottom=0;whiteSpace=wrap;html=1;rounded=0;" parent="WIyWlLk6GJQsqaUBKTNV-1" vertex="1">
          <mxGeometry x="3270" y="40" width="300" height="220" as="geometry" />
        </mxCell>
        <mxCell id="4ze2XtRtzKSnxw6VI-vd-117" value="&lt;div&gt;- db: FirebaseFirestore&lt;/div&gt;&lt;div&gt;- eventsRef: CollectionReference&lt;/div&gt;&lt;div&gt;- docRefUser: DocumentReference&lt;/div&gt;&lt;div&gt;- docRefEvent: DocumentReference&lt;/div&gt;&lt;div&gt;- selectedEvent: Event&lt;/div&gt;&lt;div&gt;- TAG: String&lt;/div&gt;" style="text;strokeColor=none;fillColor=none;align=left;verticalAlign=top;spacingLeft=4;spacingRight=4;overflow=hidden;rotatable=0;points=[[0,0.5],[1,0.5]];portConstraint=eastwest;whiteSpace=wrap;html=1;rounded=0;" parent="4ze2XtRtzKSnxw6VI-vd-116" vertex="1">
          <mxGeometry y="26" width="300" height="104" as="geometry" />
        </mxCell>
        <mxCell id="4ze2XtRtzKSnxw6VI-vd-118" value="" style="line;strokeWidth=1;fillColor=none;align=left;verticalAlign=middle;spacingTop=-1;spacingLeft=3;spacingRight=3;rotatable=0;labelPosition=right;points=[];portConstraint=eastwest;strokeColor=inherit;rounded=0;" parent="4ze2XtRtzKSnxw6VI-vd-116" vertex="1">
          <mxGeometry y="130" width="300" height="8" as="geometry" />
        </mxCell>
        <mxCell id="4ze2XtRtzKSnxw6VI-vd-119" value="&lt;div&gt;+ onCreate(savedInstanceState: Bundle) : void&lt;/div&gt;&lt;div&gt;+ getDb() : FirebaseFirestore&lt;/div&gt;&lt;div&gt;+ getDocRefEvent() : DocumentReference&lt;/div&gt;&lt;div&gt;+ getDocRefUser() : DocumentReference&lt;/div&gt;" style="text;strokeColor=none;fillColor=none;align=left;verticalAlign=top;spacingLeft=4;spacingRight=4;overflow=hidden;rotatable=0;points=[[0,0.5],[1,0.5]];portConstraint=eastwest;whiteSpace=wrap;html=1;rounded=0;" parent="4ze2XtRtzKSnxw6VI-vd-116" vertex="1">
          <mxGeometry y="138" width="300" height="82" as="geometry" />
        </mxCell>
        <mxCell id="4ze2XtRtzKSnxw6VI-vd-124" value="UserDetailsOrganizerActivity" style="swimlane;fontStyle=1;align=center;verticalAlign=top;childLayout=stackLayout;horizontal=1;startSize=26;horizontalStack=0;resizeParent=1;resizeParentMax=0;resizeLast=0;collapsible=1;marginBottom=0;whiteSpace=wrap;html=1;rounded=0;" parent="WIyWlLk6GJQsqaUBKTNV-1" vertex="1">
          <mxGeometry x="837" y="2060" width="260" height="100" as="geometry" />
        </mxCell>
        <mxCell id="4ze2XtRtzKSnxw6VI-vd-125" value="&lt;div&gt;- db: FirebaseFirestore&lt;/div&gt;&lt;div&gt;- docRefUser: DocumentReference&lt;/div&gt;" style="text;strokeColor=none;fillColor=none;align=left;verticalAlign=top;spacingLeft=4;spacingRight=4;overflow=hidden;rotatable=0;points=[[0,0.5],[1,0.5]];portConstraint=eastwest;whiteSpace=wrap;html=1;rounded=0;" parent="4ze2XtRtzKSnxw6VI-vd-124" vertex="1">
          <mxGeometry y="26" width="260" height="44" as="geometry" />
        </mxCell>
        <mxCell id="4ze2XtRtzKSnxw6VI-vd-126" value="" style="line;strokeWidth=1;fillColor=none;align=left;verticalAlign=middle;spacingTop=-1;spacingLeft=3;spacingRight=3;rotatable=0;labelPosition=right;points=[];portConstraint=eastwest;strokeColor=inherit;rounded=0;" parent="4ze2XtRtzKSnxw6VI-vd-124" vertex="1">
          <mxGeometry y="70" width="260" height="8" as="geometry" />
        </mxCell>
        <mxCell id="4ze2XtRtzKSnxw6VI-vd-127" value="&lt;div&gt;+ onCreate(savedInstanceState: Bundle) : void&lt;/div&gt;&lt;div&gt;&lt;br&gt;&lt;/div&gt;" style="text;strokeColor=none;fillColor=none;align=left;verticalAlign=top;spacingLeft=4;spacingRight=4;overflow=hidden;rotatable=0;points=[[0,0.5],[1,0.5]];portConstraint=eastwest;whiteSpace=wrap;html=1;rounded=0;" parent="4ze2XtRtzKSnxw6VI-vd-124" vertex="1">
          <mxGeometry y="78" width="260" height="22" as="geometry" />
        </mxCell>
        <mxCell id="4ze2XtRtzKSnxw6VI-vd-156" value="ProfilePictureFrag" style="swimlane;fontStyle=1;align=center;verticalAlign=top;childLayout=stackLayout;horizontal=1;startSize=26;horizontalStack=0;resizeParent=1;resizeParentMax=0;resizeLast=0;collapsible=1;marginBottom=0;whiteSpace=wrap;html=1;rounded=0;" parent="WIyWlLk6GJQsqaUBKTNV-1" vertex="1">
          <mxGeometry x="-150" y="245" width="390" height="100" as="geometry" />
        </mxCell>
        <mxCell id="4ze2XtRtzKSnxw6VI-vd-157" value="" style="line;strokeWidth=1;fillColor=none;align=left;verticalAlign=middle;spacingTop=-1;spacingLeft=3;spacingRight=3;rotatable=0;labelPosition=right;points=[];portConstraint=eastwest;strokeColor=inherit;rounded=0;" parent="4ze2XtRtzKSnxw6VI-vd-156" vertex="1">
          <mxGeometry y="26" width="390" height="8" as="geometry" />
        </mxCell>
        <mxCell id="4ze2XtRtzKSnxw6VI-vd-158" value="&lt;div&gt;+ onCreateView(inflater: LayoutInflater, container: ViewGroup, savedInstanceState: Bundle): View&lt;/div&gt;&lt;div&gt;+ onActivityResult(requestCode: int, resultCode: int, data: Intent): void&lt;/div&gt;" style="text;strokeColor=none;fillColor=none;align=left;verticalAlign=top;spacingLeft=4;spacingRight=4;overflow=hidden;rotatable=0;points=[[0,0.5],[1,0.5]];portConstraint=eastwest;whiteSpace=wrap;html=1;rounded=0;" parent="4ze2XtRtzKSnxw6VI-vd-156" vertex="1">
          <mxGeometry y="34" width="390" height="66" as="geometry" />
        </mxCell>
        <mxCell id="4ze2XtRtzKSnxw6VI-vd-168" value="LaunchSetUp" style="swimlane;fontStyle=1;align=center;verticalAlign=top;childLayout=stackLayout;horizontal=1;startSize=26;horizontalStack=0;resizeParent=1;resizeParentMax=0;resizeLast=0;collapsible=1;marginBottom=0;whiteSpace=wrap;html=1;rounded=0;" parent="WIyWlLk6GJQsqaUBKTNV-1" vertex="1">
          <mxGeometry x="2180" y="575" width="290" height="300" as="geometry" />
        </mxCell>
        <mxCell id="4ze2XtRtzKSnxw6VI-vd-169" value="&lt;div&gt;- context: Context&lt;/div&gt;&lt;div&gt;- db: FirebaseFirestore&lt;/div&gt;&lt;div&gt;- eventsRef: CollectionReference&lt;/div&gt;&lt;div&gt;- docRefUser: DocumentReference&lt;/div&gt;&lt;div&gt;- location: Location&lt;/div&gt;&lt;div&gt;- user: User&lt;/div&gt;&lt;div&gt;- userId: String&lt;/div&gt;" style="text;strokeColor=none;fillColor=none;align=left;verticalAlign=top;spacingLeft=4;spacingRight=4;overflow=hidden;rotatable=0;points=[[0,0.5],[1,0.5]];portConstraint=eastwest;whiteSpace=wrap;html=1;rounded=0;" parent="4ze2XtRtzKSnxw6VI-vd-168" vertex="1">
          <mxGeometry y="26" width="290" height="114" as="geometry" />
        </mxCell>
        <mxCell id="4ze2XtRtzKSnxw6VI-vd-170" value="" style="line;strokeWidth=1;fillColor=none;align=left;verticalAlign=middle;spacingTop=-1;spacingLeft=3;spacingRight=3;rotatable=0;labelPosition=right;points=[];portConstraint=eastwest;strokeColor=inherit;rounded=0;" parent="4ze2XtRtzKSnxw6VI-vd-168" vertex="1">
          <mxGeometry y="140" width="290" height="8" as="geometry" />
        </mxCell>
        <mxCell id="4ze2XtRtzKSnxw6VI-vd-171" value="&lt;div&gt;+ LaunchSetUp(context: Context, location: Location)&lt;/div&gt;&lt;div&gt;+ setup(): void&lt;/div&gt;&lt;div&gt;- initializeFirestore(): void&lt;/div&gt;&lt;div&gt;- showToast(message: String): void&lt;/div&gt;&lt;div&gt;- areNotificationsEnabled(): boolean&lt;/div&gt;&lt;div&gt;- showEnableNotificationsDialog(): void&lt;/div&gt;&lt;div&gt;- openAppSettings(): void&lt;/div&gt;&lt;div&gt;- setupNotificationChannel(): void&lt;/div&gt;&lt;div&gt;- setupBroadcastReceiver(): void&lt;/div&gt;" style="text;strokeColor=none;fillColor=none;align=left;verticalAlign=top;spacingLeft=4;spacingRight=4;overflow=hidden;rotatable=0;points=[[0,0.5],[1,0.5]];portConstraint=eastwest;whiteSpace=wrap;html=1;rounded=0;" parent="4ze2XtRtzKSnxw6VI-vd-168" vertex="1">
          <mxGeometry y="148" width="290" height="152" as="geometry" />
        </mxCell>
        <mxCell id="4ze2XtRtzKSnxw6VI-vd-179" value="SetDefaultProfile" style="swimlane;fontStyle=1;align=center;verticalAlign=top;childLayout=stackLayout;horizontal=1;startSize=26;horizontalStack=0;resizeParent=1;resizeParentMax=0;resizeLast=0;collapsible=1;marginBottom=0;whiteSpace=wrap;html=1;rounded=0;" parent="WIyWlLk6GJQsqaUBKTNV-1" vertex="1">
          <mxGeometry x="120" y="-107" width="380" height="84" as="geometry" />
        </mxCell>
        <mxCell id="4ze2XtRtzKSnxw6VI-vd-181" value="" style="line;strokeWidth=1;fillColor=none;align=left;verticalAlign=middle;spacingTop=-1;spacingLeft=3;spacingRight=3;rotatable=0;labelPosition=right;points=[];portConstraint=eastwest;strokeColor=inherit;rounded=0;" parent="4ze2XtRtzKSnxw6VI-vd-179" vertex="1">
          <mxGeometry y="26" width="380" height="8" as="geometry" />
        </mxCell>
        <mxCell id="4ze2XtRtzKSnxw6VI-vd-182" value="&lt;div&gt;+ generateNoName(SetCode: int, newUser: Map&amp;lt;String, Object&amp;gt;, userDoc: DocumentReference, callback: ProfilePicCallback): void&lt;/div&gt;&lt;div&gt;+ generateName(letter: String, callback: ProfilePicCallback): void&lt;/div&gt;" style="text;strokeColor=none;fillColor=none;align=left;verticalAlign=top;spacingLeft=4;spacingRight=4;overflow=hidden;rotatable=0;points=[[0,0.5],[1,0.5]];portConstraint=eastwest;whiteSpace=wrap;html=1;rounded=0;" parent="4ze2XtRtzKSnxw6VI-vd-179" vertex="1">
          <mxGeometry y="34" width="380" height="50" as="geometry" />
        </mxCell>
        <mxCell id="4ze2XtRtzKSnxw6VI-vd-183" value="CameraActivity" style="swimlane;fontStyle=1;align=center;verticalAlign=top;childLayout=stackLayout;horizontal=1;startSize=26;horizontalStack=0;resizeParent=1;resizeParentMax=0;resizeLast=0;collapsible=1;marginBottom=0;whiteSpace=wrap;html=1;rounded=0;" parent="WIyWlLk6GJQsqaUBKTNV-1" vertex="1">
          <mxGeometry x="1450" y="565" width="280" height="230" as="geometry" />
        </mxCell>
        <mxCell id="4ze2XtRtzKSnxw6VI-vd-184" value="&lt;div&gt;- db: FirebaseFirestore&lt;/div&gt;&lt;div&gt;- scanButton: Button&lt;/div&gt;&lt;div&gt;- thisView: View&lt;/div&gt;&lt;div&gt;- userID: String&lt;/div&gt;&lt;div&gt;- scanHandler: ScanHandler&lt;/div&gt;" style="text;strokeColor=none;fillColor=none;align=left;verticalAlign=top;spacingLeft=4;spacingRight=4;overflow=hidden;rotatable=0;points=[[0,0.5],[1,0.5]];portConstraint=eastwest;whiteSpace=wrap;html=1;rounded=0;" parent="4ze2XtRtzKSnxw6VI-vd-183" vertex="1">
          <mxGeometry y="26" width="280" height="94" as="geometry" />
        </mxCell>
        <mxCell id="4ze2XtRtzKSnxw6VI-vd-185" value="" style="line;strokeWidth=1;fillColor=none;align=left;verticalAlign=middle;spacingTop=-1;spacingLeft=3;spacingRight=3;rotatable=0;labelPosition=right;points=[];portConstraint=eastwest;strokeColor=inherit;rounded=0;" parent="4ze2XtRtzKSnxw6VI-vd-183" vertex="1">
          <mxGeometry y="120" width="280" height="8" as="geometry" />
        </mxCell>
        <mxCell id="4ze2XtRtzKSnxw6VI-vd-186" value="&lt;div&gt;+ startScan(): void&lt;/div&gt;&lt;div&gt;+ onActivityResult(requestCode: int, resultCode: int, data: Intent): void&lt;/div&gt;&lt;div&gt;+ onCreate(savedInstanceState: Bundle): void&lt;/div&gt;&lt;div&gt;+ getLayoutResourceId(): int&lt;/div&gt;&lt;div&gt;+ onClick(v: View): void&lt;/div&gt;" style="text;strokeColor=none;fillColor=none;align=left;verticalAlign=top;spacingLeft=4;spacingRight=4;overflow=hidden;rotatable=0;points=[[0,0.5],[1,0.5]];portConstraint=eastwest;whiteSpace=wrap;html=1;rounded=0;" parent="4ze2XtRtzKSnxw6VI-vd-183" vertex="1">
          <mxGeometry y="128" width="280" height="102" as="geometry" />
        </mxCell>
        <mxCell id="4ze2XtRtzKSnxw6VI-vd-187" value="DisplayQRCode" style="swimlane;fontStyle=1;align=center;verticalAlign=top;childLayout=stackLayout;horizontal=1;startSize=26;horizontalStack=0;resizeParent=1;resizeParentMax=0;resizeLast=0;collapsible=1;marginBottom=0;whiteSpace=wrap;html=1;rounded=0;" parent="WIyWlLk6GJQsqaUBKTNV-1" vertex="1">
          <mxGeometry x="430" y="1753.5" width="360" height="230" as="geometry" />
        </mxCell>
        <mxCell id="4ze2XtRtzKSnxw6VI-vd-188" value="&lt;div&gt;- type: String&lt;/div&gt;&lt;div&gt;- qrCodeBitmap: Bitmap&lt;/div&gt;&lt;div&gt;- qrCodeBitmapPromotional: Bitmap&lt;/div&gt;&lt;div&gt;- displayingQR: String&lt;/div&gt;&lt;div&gt;- qrCode: String&lt;/div&gt;&lt;div&gt;- qrCodePromotional: String&lt;/div&gt;" style="text;strokeColor=none;fillColor=none;align=left;verticalAlign=top;spacingLeft=4;spacingRight=4;overflow=hidden;rotatable=0;points=[[0,0.5],[1,0.5]];portConstraint=eastwest;whiteSpace=wrap;html=1;rounded=0;" parent="4ze2XtRtzKSnxw6VI-vd-187" vertex="1">
          <mxGeometry y="26" width="360" height="104" as="geometry" />
        </mxCell>
        <mxCell id="4ze2XtRtzKSnxw6VI-vd-189" value="" style="line;strokeWidth=1;fillColor=none;align=left;verticalAlign=middle;spacingTop=-1;spacingLeft=3;spacingRight=3;rotatable=0;labelPosition=right;points=[];portConstraint=eastwest;strokeColor=inherit;rounded=0;" parent="4ze2XtRtzKSnxw6VI-vd-187" vertex="1">
          <mxGeometry y="130" width="360" height="8" as="geometry" />
        </mxCell>
        <mxCell id="4ze2XtRtzKSnxw6VI-vd-190" value="&lt;div&gt;+ onCreate(savedInstanceState: Bundle): void&lt;/div&gt;&lt;div&gt;- bitmapToFile(bitmap: Bitmap, context: Context): File&lt;/div&gt;&lt;div&gt;- shareImageFile(file: File, context: Context): void&lt;/div&gt;&lt;div&gt;+ getDisplayingQR(): String&lt;/div&gt;&lt;div&gt;+ getType(): String&lt;/div&gt;" style="text;strokeColor=none;fillColor=none;align=left;verticalAlign=top;spacingLeft=4;spacingRight=4;overflow=hidden;rotatable=0;points=[[0,0.5],[1,0.5]];portConstraint=eastwest;whiteSpace=wrap;html=1;rounded=0;" parent="4ze2XtRtzKSnxw6VI-vd-187" vertex="1">
          <mxGeometry y="138" width="360" height="92" as="geometry" />
        </mxCell>
        <mxCell id="4ze2XtRtzKSnxw6VI-vd-191" value="MapViewOrganizer" style="swimlane;fontStyle=1;align=center;verticalAlign=top;childLayout=stackLayout;horizontal=1;startSize=26;horizontalStack=0;resizeParent=1;resizeParentMax=0;resizeLast=0;collapsible=1;marginBottom=0;whiteSpace=wrap;html=1;rounded=0;" parent="WIyWlLk6GJQsqaUBKTNV-1" vertex="1">
          <mxGeometry x="470" y="1450" width="380" height="250" as="geometry" />
        </mxCell>
        <mxCell id="4ze2XtRtzKSnxw6VI-vd-192" value="&lt;div&gt;- fusedLocationClient: FusedLocationProviderClient&lt;/div&gt;&lt;div&gt;- map: GoogleMap&lt;/div&gt;&lt;div&gt;- eventID: String&lt;/div&gt;&lt;div&gt;- markers: List&amp;lt;Marker&amp;gt;&lt;/div&gt;&lt;div&gt;- db: FirebaseFirestore&lt;/div&gt;" style="text;strokeColor=none;fillColor=none;align=left;verticalAlign=top;spacingLeft=4;spacingRight=4;overflow=hidden;rotatable=0;points=[[0,0.5],[1,0.5]];portConstraint=eastwest;whiteSpace=wrap;html=1;rounded=0;" parent="4ze2XtRtzKSnxw6VI-vd-191" vertex="1">
          <mxGeometry y="26" width="380" height="94" as="geometry" />
        </mxCell>
        <mxCell id="4ze2XtRtzKSnxw6VI-vd-193" value="" style="line;strokeWidth=1;fillColor=none;align=left;verticalAlign=middle;spacingTop=-1;spacingLeft=3;spacingRight=3;rotatable=0;labelPosition=right;points=[];portConstraint=eastwest;strokeColor=inherit;rounded=0;" parent="4ze2XtRtzKSnxw6VI-vd-191" vertex="1">
          <mxGeometry y="120" width="380" height="8" as="geometry" />
        </mxCell>
        <mxCell id="4ze2XtRtzKSnxw6VI-vd-194" value="# onCreate(savedInstanceState: Bundle): void&lt;br&gt;+ onMapReady(googleMap: GoogleMap): void&lt;br&gt;+&amp;nbsp;onRequestPermissionsResult(requestCode : Integer, permissions : ArrayList&amp;lt;String&amp;gt;, grantResults : ArrayList&amp;lt;Int&amp;gt;): void&lt;br&gt;- placePins(map: GoogleMap): void&lt;div&gt;&lt;div&gt;+ getMarkers(): List&amp;lt;Marker&amp;gt;&lt;/div&gt;&lt;div&gt;+ addTestMarker(latitude: double, longitude: double): void&lt;/div&gt;&lt;/div&gt;" style="text;strokeColor=none;fillColor=none;align=left;verticalAlign=top;spacingLeft=4;spacingRight=4;overflow=hidden;rotatable=0;points=[[0,0.5],[1,0.5]];portConstraint=eastwest;whiteSpace=wrap;html=1;rounded=0;" parent="4ze2XtRtzKSnxw6VI-vd-191" vertex="1">
          <mxGeometry y="128" width="380" height="122" as="geometry" />
        </mxCell>
        <mxCell id="4ze2XtRtzKSnxw6VI-vd-195" value="MilestoneListeningService" style="swimlane;fontStyle=1;align=center;verticalAlign=top;childLayout=stackLayout;horizontal=1;startSize=26;horizontalStack=0;resizeParent=1;resizeParentMax=0;resizeLast=0;collapsible=1;marginBottom=0;whiteSpace=wrap;html=1;rounded=0;" parent="WIyWlLk6GJQsqaUBKTNV-1" vertex="1">
          <mxGeometry x="480" y="2310" width="320" height="120" as="geometry" />
        </mxCell>
        <mxCell id="4ze2XtRtzKSnxw6VI-vd-196" value="" style="line;strokeWidth=1;fillColor=none;align=left;verticalAlign=middle;spacingTop=-1;spacingLeft=3;spacingRight=3;rotatable=0;labelPosition=right;points=[];portConstraint=eastwest;strokeColor=inherit;rounded=0;" parent="4ze2XtRtzKSnxw6VI-vd-195" vertex="1">
          <mxGeometry y="26" width="320" height="8" as="geometry" />
        </mxCell>
        <mxCell id="4ze2XtRtzKSnxw6VI-vd-197" value="&lt;div&gt;+ onBind(intent: Intent): IBinder&lt;/div&gt;&lt;div&gt;+ onStartCommand(intent: Intent, flags: int, startId: int): int&lt;/div&gt;&lt;div&gt;- listenForMilestones(): void&lt;/div&gt;" style="text;strokeColor=none;fillColor=none;align=left;verticalAlign=top;spacingLeft=4;spacingRight=4;overflow=hidden;rotatable=0;points=[[0,0.5],[1,0.5]];portConstraint=eastwest;whiteSpace=wrap;html=1;rounded=0;" parent="4ze2XtRtzKSnxw6VI-vd-195" vertex="1">
          <mxGeometry y="34" width="320" height="86" as="geometry" />
        </mxCell>
        <mxCell id="4ze2XtRtzKSnxw6VI-vd-209" value="ScanHandler" style="swimlane;fontStyle=1;align=center;verticalAlign=top;childLayout=stackLayout;horizontal=1;startSize=26;horizontalStack=0;resizeParent=1;resizeParentMax=0;resizeLast=0;collapsible=1;marginBottom=0;whiteSpace=wrap;html=1;rounded=0;" parent="WIyWlLk6GJQsqaUBKTNV-1" vertex="1">
          <mxGeometry x="1280" y="1974" width="410" height="210" as="geometry" />
        </mxCell>
        <mxCell id="4ze2XtRtzKSnxw6VI-vd-210" value="&lt;div&gt;- db: FirebaseFirestore&lt;/div&gt;&lt;div&gt;- userID: String&lt;/div&gt;&lt;div&gt;- context: Context&lt;/div&gt;" style="text;strokeColor=none;fillColor=none;align=left;verticalAlign=top;spacingLeft=4;spacingRight=4;overflow=hidden;rotatable=0;points=[[0,0.5],[1,0.5]];portConstraint=eastwest;whiteSpace=wrap;html=1;rounded=0;" parent="4ze2XtRtzKSnxw6VI-vd-209" vertex="1">
          <mxGeometry y="26" width="410" height="64" as="geometry" />
        </mxCell>
        <mxCell id="4ze2XtRtzKSnxw6VI-vd-211" value="" style="line;strokeWidth=1;fillColor=none;align=left;verticalAlign=middle;spacingTop=-1;spacingLeft=3;spacingRight=3;rotatable=0;labelPosition=right;points=[];portConstraint=eastwest;strokeColor=inherit;rounded=0;" parent="4ze2XtRtzKSnxw6VI-vd-209" vertex="1">
          <mxGeometry y="90" width="410" height="8" as="geometry" />
        </mxCell>
        <mxCell id="4ze2XtRtzKSnxw6VI-vd-212" value="&lt;div&gt;+ ScanHandler(db: FirebaseFirestore, userID: String, context: Context)&lt;/div&gt;&lt;div&gt;+ scannedCode(code: String): void&lt;/div&gt;&lt;div&gt;- findEvent(code: String): void&lt;/div&gt;&lt;div&gt;- handlePromotionalCode(eventId: String): void&lt;/div&gt;&lt;div&gt;- updateAttendance(event: String): void&lt;/div&gt;&lt;div&gt;+ addAttendee(event: String, userID: String): void&lt;/div&gt;&lt;div&gt;&lt;br&gt;&lt;/div&gt;" style="text;strokeColor=none;fillColor=none;align=left;verticalAlign=top;spacingLeft=4;spacingRight=4;overflow=hidden;rotatable=0;points=[[0,0.5],[1,0.5]];portConstraint=eastwest;whiteSpace=wrap;html=1;rounded=0;" parent="4ze2XtRtzKSnxw6VI-vd-209" vertex="1">
          <mxGeometry y="98" width="410" height="112" as="geometry" />
        </mxCell>
        <mxCell id="4ze2XtRtzKSnxw6VI-vd-213" value="1" style="endArrow=open;html=1;endSize=12;startArrow=diamondThin;startSize=14;startFill=0;edgeStyle=orthogonalEdgeStyle;align=left;verticalAlign=bottom;rounded=0;exitX=0.996;exitY=0.3;exitDx=0;exitDy=0;exitPerimeter=0;" parent="WIyWlLk6GJQsqaUBKTNV-1" source="4ze2XtRtzKSnxw6VI-vd-89" edge="1">
          <mxGeometry x="-1" y="3" relative="1" as="geometry">
            <mxPoint x="2060" y="655" as="sourcePoint" />
            <mxPoint x="2180" y="649" as="targetPoint" />
          </mxGeometry>
        </mxCell>
        <mxCell id="4ze2XtRtzKSnxw6VI-vd-507" value="&lt;i&gt;NavBar&lt;/i&gt;" style="swimlane;fontStyle=1;align=center;verticalAlign=top;childLayout=stackLayout;horizontal=1;startSize=26;horizontalStack=0;resizeParent=1;resizeParentMax=0;resizeLast=0;collapsible=1;marginBottom=0;whiteSpace=wrap;html=1;rounded=0;" parent="WIyWlLk6GJQsqaUBKTNV-1" vertex="1">
          <mxGeometry x="1790" y="281" width="220" height="134" as="geometry" />
        </mxCell>
        <mxCell id="4ze2XtRtzKSnxw6VI-vd-508" value="" style="line;strokeWidth=1;fillColor=none;align=left;verticalAlign=middle;spacingTop=-1;spacingLeft=3;spacingRight=3;rotatable=0;labelPosition=right;points=[];portConstraint=eastwest;strokeColor=inherit;rounded=0;" parent="4ze2XtRtzKSnxw6VI-vd-507" vertex="1">
          <mxGeometry y="26" width="220" height="8" as="geometry" />
        </mxCell>
        <mxCell id="4ze2XtRtzKSnxw6VI-vd-509" value="&lt;div&gt;# getLayoutResourceId(): int&lt;/div&gt;&lt;div&gt;# setupTextViewButton(viewId: int): void&lt;/div&gt;&lt;div&gt;# onTextViewButtonClicked(viewId: int): void&lt;/div&gt;" style="text;strokeColor=none;fillColor=none;align=left;verticalAlign=top;spacingLeft=4;spacingRight=4;overflow=hidden;rotatable=0;points=[[0,0.5],[1,0.5]];portConstraint=eastwest;whiteSpace=wrap;html=1;rounded=0;" parent="4ze2XtRtzKSnxw6VI-vd-507" vertex="1">
          <mxGeometry y="34" width="220" height="100" as="geometry" />
        </mxCell>
        <mxCell id="4ze2XtRtzKSnxw6VI-vd-510" value="Extends" style="endArrow=block;endSize=16;endFill=0;html=1;rounded=0;entryX=0.54;entryY=1.023;entryDx=0;entryDy=0;entryPerimeter=0;" parent="WIyWlLk6GJQsqaUBKTNV-1" target="4ze2XtRtzKSnxw6VI-vd-509" edge="1">
          <mxGeometry width="160" relative="1" as="geometry">
            <mxPoint x="1909" y="567" as="sourcePoint" />
            <mxPoint x="1390" y="545" as="targetPoint" />
          </mxGeometry>
        </mxCell>
        <mxCell id="4ze2XtRtzKSnxw6VI-vd-511" value="Extends" style="endArrow=block;endSize=16;endFill=0;html=1;rounded=0;exitX=0.5;exitY=0;exitDx=0;exitDy=0;entryX=0;entryY=0.5;entryDx=0;entryDy=0;" parent="WIyWlLk6GJQsqaUBKTNV-1" source="4ze2XtRtzKSnxw6VI-vd-183" target="4ze2XtRtzKSnxw6VI-vd-509" edge="1">
          <mxGeometry width="160" relative="1" as="geometry">
            <mxPoint x="1580" y="565" as="sourcePoint" />
            <mxPoint x="1760" y="641" as="targetPoint" />
            <Array as="points">
              <mxPoint x="1590" y="365" />
            </Array>
          </mxGeometry>
        </mxCell>
        <mxCell id="4ze2XtRtzKSnxw6VI-vd-512" value="NotificationsActivity" style="swimlane;fontStyle=1;align=center;verticalAlign=top;childLayout=stackLayout;horizontal=1;startSize=26;horizontalStack=0;resizeParent=1;resizeParentMax=0;resizeLast=0;collapsible=1;marginBottom=0;whiteSpace=wrap;html=1;rounded=0;" parent="WIyWlLk6GJQsqaUBKTNV-1" vertex="1">
          <mxGeometry x="2210" y="270" width="300" height="190" as="geometry" />
        </mxCell>
        <mxCell id="4ze2XtRtzKSnxw6VI-vd-513" value="&lt;div&gt;- deleteOne: TextView&lt;/div&gt;&lt;div&gt;- clearAll: TextView&lt;/div&gt;&lt;div&gt;- returnButton: TextView&lt;/div&gt;&lt;div&gt;- adapter: NotificationAdapter&lt;/div&gt;&lt;div&gt;- userID: String&lt;/div&gt;" style="text;strokeColor=none;fillColor=none;align=left;verticalAlign=top;spacingLeft=4;spacingRight=4;overflow=hidden;rotatable=0;points=[[0,0.5],[1,0.5]];portConstraint=eastwest;whiteSpace=wrap;html=1;rounded=0;" parent="4ze2XtRtzKSnxw6VI-vd-512" vertex="1">
          <mxGeometry y="26" width="300" height="94" as="geometry" />
        </mxCell>
        <mxCell id="4ze2XtRtzKSnxw6VI-vd-514" value="" style="line;strokeWidth=1;fillColor=none;align=left;verticalAlign=middle;spacingTop=-1;spacingLeft=3;spacingRight=3;rotatable=0;labelPosition=right;points=[];portConstraint=eastwest;strokeColor=inherit;rounded=0;" parent="4ze2XtRtzKSnxw6VI-vd-512" vertex="1">
          <mxGeometry y="120" width="300" height="8" as="geometry" />
        </mxCell>
        <mxCell id="4ze2XtRtzKSnxw6VI-vd-515" value="&lt;div&gt;+ onCreate(savedInstanceState: Bundle): void&lt;/div&gt;&lt;div&gt;+ getLayoutResourceId(): int&lt;/div&gt;&lt;div&gt;- removeItem(item: NotificationDetail): void&lt;/div&gt;" style="text;strokeColor=none;fillColor=none;align=left;verticalAlign=top;spacingLeft=4;spacingRight=4;overflow=hidden;rotatable=0;points=[[0,0.5],[1,0.5]];portConstraint=eastwest;whiteSpace=wrap;html=1;rounded=0;" parent="4ze2XtRtzKSnxw6VI-vd-512" vertex="1">
          <mxGeometry y="128" width="300" height="62" as="geometry" />
        </mxCell>
        <mxCell id="4ze2XtRtzKSnxw6VI-vd-516" value="Extends" style="endArrow=block;endSize=16;endFill=0;html=1;rounded=0;entryX=1.015;entryY=0.334;entryDx=0;entryDy=0;entryPerimeter=0;" parent="WIyWlLk6GJQsqaUBKTNV-1" source="4ze2XtRtzKSnxw6VI-vd-513" target="4ze2XtRtzKSnxw6VI-vd-509" edge="1">
          <mxGeometry width="160" relative="1" as="geometry">
            <mxPoint x="1940" y="591" as="sourcePoint" />
            <mxPoint x="2100" y="591" as="targetPoint" />
          </mxGeometry>
        </mxCell>
        <mxCell id="4ze2XtRtzKSnxw6VI-vd-517" value="OrganizerEventActivity" style="swimlane;fontStyle=1;align=center;verticalAlign=top;childLayout=stackLayout;horizontal=1;startSize=26;horizontalStack=0;resizeParent=1;resizeParentMax=0;resizeLast=0;collapsible=1;marginBottom=0;whiteSpace=wrap;html=1;rounded=0;" parent="WIyWlLk6GJQsqaUBKTNV-1" vertex="1">
          <mxGeometry x="1450" y="850" width="290" height="360" as="geometry" />
        </mxCell>
        <mxCell id="4ze2XtRtzKSnxw6VI-vd-518" value="&lt;div&gt;- db: FirebaseFirestore&lt;/div&gt;&lt;div&gt;- eventsRef: CollectionReference&lt;/div&gt;&lt;div&gt;- pastEventsRef: CollectionReference&lt;/div&gt;&lt;div&gt;- userid: String&lt;/div&gt;&lt;div&gt;- username: String&lt;/div&gt;&lt;div&gt;- eventList: ListView&lt;/div&gt;&lt;div&gt;- eventArrayAdapter: EventArrayAdapter&lt;/div&gt;&lt;div&gt;- eventDataList: ArrayList&amp;lt;Event&amp;gt;&lt;/div&gt;&lt;div&gt;- executorService: ExecutorService&lt;/div&gt;&lt;div&gt;- mainThreadHandler: Handler&lt;/div&gt;" style="text;strokeColor=none;fillColor=none;align=left;verticalAlign=top;spacingLeft=4;spacingRight=4;overflow=hidden;rotatable=0;points=[[0,0.5],[1,0.5]];portConstraint=eastwest;whiteSpace=wrap;html=1;rounded=0;" parent="4ze2XtRtzKSnxw6VI-vd-517" vertex="1">
          <mxGeometry y="26" width="290" height="194" as="geometry" />
        </mxCell>
        <mxCell id="4ze2XtRtzKSnxw6VI-vd-519" value="" style="line;strokeWidth=1;fillColor=none;align=left;verticalAlign=middle;spacingTop=-1;spacingLeft=3;spacingRight=3;rotatable=0;labelPosition=right;points=[];portConstraint=eastwest;strokeColor=inherit;rounded=0;" parent="4ze2XtRtzKSnxw6VI-vd-517" vertex="1">
          <mxGeometry y="220" width="290" height="8" as="geometry" />
        </mxCell>
        <mxCell id="4ze2XtRtzKSnxw6VI-vd-520" value="&lt;div&gt;+ onCreate(savedInstanceState: Bundle) : void&lt;/div&gt;&lt;div&gt;+ fetchEvents(context: Context) : void&lt;/div&gt;&lt;div&gt;+ fetchOrganizerEvents() : void&lt;/div&gt;&lt;div&gt;+ updateAdapter(events: ArrayList&amp;lt;Event&amp;gt;) : void&lt;/div&gt;&lt;div&gt;+ setupRealTimeEventUpdates() : void&lt;/div&gt;&lt;div&gt;+ fetchLocal(context: Context) : void&lt;/div&gt;" style="text;strokeColor=none;fillColor=none;align=left;verticalAlign=top;spacingLeft=4;spacingRight=4;overflow=hidden;rotatable=0;points=[[0,0.5],[1,0.5]];portConstraint=eastwest;whiteSpace=wrap;html=1;rounded=0;" parent="4ze2XtRtzKSnxw6VI-vd-517" vertex="1">
          <mxGeometry y="228" width="290" height="132" as="geometry" />
        </mxCell>
        <mxCell id="4ze2XtRtzKSnxw6VI-vd-521" value="Extends" style="endArrow=block;endSize=16;endFill=0;html=1;rounded=0;" parent="WIyWlLk6GJQsqaUBKTNV-1" edge="1">
          <mxGeometry width="160" relative="1" as="geometry">
            <mxPoint x="1742" y="1030" as="sourcePoint" />
            <mxPoint x="1800" y="400" as="targetPoint" />
            <Array as="points">
              <mxPoint x="1760" y="1030" />
              <mxPoint x="1760" y="730" />
              <mxPoint x="1760" y="570" />
              <mxPoint x="1760" y="400" />
            </Array>
          </mxGeometry>
        </mxCell>
        <mxCell id="4ze2XtRtzKSnxw6VI-vd-522" value="ProfileActivity" style="swimlane;fontStyle=1;align=center;verticalAlign=top;childLayout=stackLayout;horizontal=1;startSize=26;horizontalStack=0;resizeParent=1;resizeParentMax=0;resizeLast=0;collapsible=1;marginBottom=0;whiteSpace=wrap;html=1;rounded=0;" parent="WIyWlLk6GJQsqaUBKTNV-1" vertex="1">
          <mxGeometry x="1260" y="244" width="290" height="270" as="geometry" />
        </mxCell>
        <mxCell id="4ze2XtRtzKSnxw6VI-vd-523" value="&lt;div&gt;- Picture: ImageView&lt;/div&gt;&lt;div&gt;- docRefUser: DocumentReference&lt;/div&gt;&lt;div&gt;- name: TextView&lt;/div&gt;&lt;div&gt;- email: TextView&lt;/div&gt;&lt;div&gt;- phone: TextView&lt;/div&gt;&lt;div&gt;- region: TextView&lt;/div&gt;&lt;div&gt;- pictureURL: String&lt;/div&gt;&lt;div&gt;- reviewLocationPermissions: TextView&lt;/div&gt;" style="text;strokeColor=none;fillColor=none;align=left;verticalAlign=top;spacingLeft=4;spacingRight=4;overflow=hidden;rotatable=0;points=[[0,0.5],[1,0.5]];portConstraint=eastwest;whiteSpace=wrap;html=1;rounded=0;" parent="4ze2XtRtzKSnxw6VI-vd-522" vertex="1">
          <mxGeometry y="26" width="290" height="124" as="geometry" />
        </mxCell>
        <mxCell id="4ze2XtRtzKSnxw6VI-vd-524" value="" style="line;strokeWidth=1;fillColor=none;align=left;verticalAlign=middle;spacingTop=-1;spacingLeft=3;spacingRight=3;rotatable=0;labelPosition=right;points=[];portConstraint=eastwest;strokeColor=inherit;rounded=0;" parent="4ze2XtRtzKSnxw6VI-vd-522" vertex="1">
          <mxGeometry y="150" width="290" height="8" as="geometry" />
        </mxCell>
        <mxCell id="4ze2XtRtzKSnxw6VI-vd-525" value="&lt;div&gt;+ onCreate(savedInstanceState: Bundle): void&lt;/div&gt;&lt;div&gt;+ getLayoutResourceId(): int&lt;/div&gt;&lt;div&gt;- removeItem(item: NotificationDetail): void&lt;/div&gt;&lt;div&gt;+ onSaveClicked(EditName: String, EditEmail: String, EditPhone: String, EditRegion: String, upload: Uri): void&lt;/div&gt;&lt;div&gt;+ onResume(): void&lt;/div&gt;" style="text;strokeColor=none;fillColor=none;align=left;verticalAlign=top;spacingLeft=4;spacingRight=4;overflow=hidden;rotatable=0;points=[[0,0.5],[1,0.5]];portConstraint=eastwest;whiteSpace=wrap;html=1;rounded=0;" parent="4ze2XtRtzKSnxw6VI-vd-522" vertex="1">
          <mxGeometry y="158" width="290" height="112" as="geometry" />
        </mxCell>
        <mxCell id="4ze2XtRtzKSnxw6VI-vd-526" value="Extends" style="endArrow=block;endSize=16;endFill=0;html=1;rounded=0;exitX=1.008;exitY=0.276;exitDx=0;exitDy=0;exitPerimeter=0;entryX=0;entryY=0.164;entryDx=0;entryDy=0;entryPerimeter=0;" parent="WIyWlLk6GJQsqaUBKTNV-1" source="4ze2XtRtzKSnxw6VI-vd-523" target="4ze2XtRtzKSnxw6VI-vd-507" edge="1">
          <mxGeometry width="160" relative="1" as="geometry">
            <mxPoint x="1570" y="550" as="sourcePoint" />
            <mxPoint x="1730" y="550" as="targetPoint" />
          </mxGeometry>
        </mxCell>
        <mxCell id="4ze2XtRtzKSnxw6VI-vd-527" value="1" style="endArrow=open;html=1;endSize=12;startArrow=diamondThin;startSize=14;startFill=0;edgeStyle=orthogonalEdgeStyle;align=left;verticalAlign=bottom;rounded=0;exitX=0.467;exitY=1.002;exitDx=0;exitDy=0;exitPerimeter=0;" parent="WIyWlLk6GJQsqaUBKTNV-1" source="4ze2XtRtzKSnxw6VI-vd-91" edge="1">
          <mxGeometry x="-1" y="3" relative="1" as="geometry">
            <mxPoint x="1700" y="860" as="sourcePoint" />
            <mxPoint x="2080" y="1060" as="targetPoint" />
          </mxGeometry>
        </mxCell>
        <mxCell id="4ze2XtRtzKSnxw6VI-vd-532" value="EventArrayAdapter" style="swimlane;fontStyle=1;align=center;verticalAlign=top;childLayout=stackLayout;horizontal=1;startSize=26;horizontalStack=0;resizeParent=1;resizeParentMax=0;resizeLast=0;collapsible=1;marginBottom=0;whiteSpace=wrap;html=1;rounded=0;" parent="WIyWlLk6GJQsqaUBKTNV-1" vertex="1">
          <mxGeometry x="1850" y="1060" width="380" height="200" as="geometry" />
        </mxCell>
        <mxCell id="4ze2XtRtzKSnxw6VI-vd-533" value="- events : ArrayList&amp;lt;Event&amp;gt;&lt;br&gt;- context : Context" style="text;strokeColor=none;fillColor=none;align=left;verticalAlign=top;spacingLeft=4;spacingRight=4;overflow=hidden;rotatable=0;points=[[0,0.5],[1,0.5]];portConstraint=eastwest;whiteSpace=wrap;html=1;rounded=0;" parent="4ze2XtRtzKSnxw6VI-vd-532" vertex="1">
          <mxGeometry y="26" width="380" height="44" as="geometry" />
        </mxCell>
        <mxCell id="4ze2XtRtzKSnxw6VI-vd-534" value="" style="line;strokeWidth=1;fillColor=none;align=left;verticalAlign=middle;spacingTop=-1;spacingLeft=3;spacingRight=3;rotatable=0;labelPosition=right;points=[];portConstraint=eastwest;strokeColor=inherit;rounded=0;" parent="4ze2XtRtzKSnxw6VI-vd-532" vertex="1">
          <mxGeometry y="70" width="380" height="8" as="geometry" />
        </mxCell>
        <mxCell id="4ze2XtRtzKSnxw6VI-vd-535" value="+ EventArrayAdapter(context : Context, events ArrayList&amp;lt;Event&amp;gt;) : void&amp;nbsp;&lt;br&gt;+ getView(position: Integer, convertView : View, parent : ViewGroup) : View&lt;br&gt;+ addEvent(eventID: String, name : String, organizer : String, location : GeoPoint, timestamp : Timestamp, organizer : String, organizerID : String, qrCode : QRCode, attendees : Map&amp;lt;String, Long&amp;gt;)" style="text;strokeColor=none;fillColor=none;align=left;verticalAlign=top;spacingLeft=4;spacingRight=4;overflow=hidden;rotatable=0;points=[[0,0.5],[1,0.5]];portConstraint=eastwest;whiteSpace=wrap;html=1;rounded=0;" parent="4ze2XtRtzKSnxw6VI-vd-532" vertex="1">
          <mxGeometry y="78" width="380" height="122" as="geometry" />
        </mxCell>
        <mxCell id="4ze2XtRtzKSnxw6VI-vd-536" value="1" style="endArrow=open;html=1;endSize=12;startArrow=diamondThin;startSize=14;startFill=0;edgeStyle=orthogonalEdgeStyle;align=left;verticalAlign=bottom;rounded=0;exitX=0.503;exitY=1.034;exitDx=0;exitDy=0;exitPerimeter=0;" parent="WIyWlLk6GJQsqaUBKTNV-1" target="4ze2XtRtzKSnxw6VI-vd-8" edge="1">
          <mxGeometry x="-1" y="3" relative="1" as="geometry">
            <mxPoint x="2034.1599999999994" y="1259.998" as="sourcePoint" />
            <mxPoint x="2030.0000000000005" y="1366.7299999999996" as="targetPoint" />
            <Array as="points">
              <mxPoint x="2034" y="1310" />
              <mxPoint x="1965" y="1310" />
            </Array>
          </mxGeometry>
        </mxCell>
        <mxCell id="4ze2XtRtzKSnxw6VI-vd-537" value="" style="endArrow=diamondThin;endFill=0;endSize=24;html=1;rounded=0;exitX=-0.013;exitY=0.048;exitDx=0;exitDy=0;exitPerimeter=0;" parent="WIyWlLk6GJQsqaUBKTNV-1" source="4ze2XtRtzKSnxw6VI-vd-535" edge="1">
          <mxGeometry width="160" relative="1" as="geometry">
            <mxPoint x="2110" y="1020" as="sourcePoint" />
            <mxPoint x="1730" y="1144" as="targetPoint" />
          </mxGeometry>
        </mxCell>
        <mxCell id="F41nxcX5hdtxwhOi84b6-4" value="QRCode" style="swimlane;fontStyle=1;align=center;verticalAlign=top;childLayout=stackLayout;horizontal=1;startSize=26;horizontalStack=0;resizeParent=1;resizeParentMax=0;resizeLast=0;collapsible=1;marginBottom=0;whiteSpace=wrap;html=1;rounded=0;" parent="WIyWlLk6GJQsqaUBKTNV-1" vertex="1">
          <mxGeometry x="2380" y="1460" width="280" height="150" as="geometry" />
        </mxCell>
        <mxCell id="F41nxcX5hdtxwhOi84b6-5" value="+ bitmap : Bitmap&lt;br&gt;+ qrCodeString : String" style="text;strokeColor=none;fillColor=none;align=left;verticalAlign=top;spacingLeft=4;spacingRight=4;overflow=hidden;rotatable=0;points=[[0,0.5],[1,0.5]];portConstraint=eastwest;whiteSpace=wrap;html=1;rounded=0;" parent="F41nxcX5hdtxwhOi84b6-4" vertex="1">
          <mxGeometry y="26" width="280" height="34" as="geometry" />
        </mxCell>
        <mxCell id="F41nxcX5hdtxwhOi84b6-6" value="" style="line;strokeWidth=1;fillColor=none;align=left;verticalAlign=middle;spacingTop=-1;spacingLeft=3;spacingRight=3;rotatable=0;labelPosition=right;points=[];portConstraint=eastwest;strokeColor=inherit;rounded=0;" parent="F41nxcX5hdtxwhOi84b6-4" vertex="1">
          <mxGeometry y="60" width="280" height="8" as="geometry" />
        </mxCell>
        <mxCell id="F41nxcX5hdtxwhOi84b6-7" value="+ QRCode(qrCodeString : String) : void&lt;br&gt;+ getBitmap() : Bitmap&lt;br&gt;+&lt;u&gt; generateRandomString(length : Integer): String&lt;/u&gt;&lt;br&gt;- generateQRCodeImage(text : String) : Bitmap&lt;br&gt;+ getString() : String" style="text;strokeColor=none;fillColor=none;align=left;verticalAlign=top;spacingLeft=4;spacingRight=4;overflow=hidden;rotatable=0;points=[[0,0.5],[1,0.5]];portConstraint=eastwest;whiteSpace=wrap;html=1;rounded=0;" parent="F41nxcX5hdtxwhOi84b6-4" vertex="1">
          <mxGeometry y="68" width="280" height="82" as="geometry" />
        </mxCell>
        <mxCell id="F41nxcX5hdtxwhOi84b6-9" value="" style="endArrow=diamondThin;endFill=0;endSize=24;html=1;rounded=0;entryX=0.571;entryY=1.053;entryDx=0;entryDy=0;entryPerimeter=0;exitX=0.533;exitY=-0.023;exitDx=0;exitDy=0;exitPerimeter=0;" parent="WIyWlLk6GJQsqaUBKTNV-1" source="4ze2XtRtzKSnxw6VI-vd-16" target="4ze2XtRtzKSnxw6VI-vd-36" edge="1">
          <mxGeometry width="160" relative="1" as="geometry">
            <mxPoint x="2180" y="590" as="sourcePoint" />
            <mxPoint x="2340" y="590" as="targetPoint" />
          </mxGeometry>
        </mxCell>
        <mxCell id="F41nxcX5hdtxwhOi84b6-10" value="" style="endArrow=diamondThin;endFill=1;endSize=24;html=1;rounded=0;entryX=1.015;entryY=0.953;entryDx=0;entryDy=0;entryPerimeter=0;exitX=-0.004;exitY=0.134;exitDx=0;exitDy=0;exitPerimeter=0;" parent="WIyWlLk6GJQsqaUBKTNV-1" source="4ze2XtRtzKSnxw6VI-vd-19" target="4ze2XtRtzKSnxw6VI-vd-169" edge="1">
          <mxGeometry width="160" relative="1" as="geometry">
            <mxPoint x="2180" y="590" as="sourcePoint" />
            <mxPoint x="2340" y="590" as="targetPoint" />
          </mxGeometry>
        </mxCell>
        <mxCell id="4ze2XtRtzKSnxw6VI-vd-84" value="userDetailsAdminActivity" style="swimlane;fontStyle=1;align=center;verticalAlign=top;childLayout=stackLayout;horizontal=1;startSize=26;horizontalStack=0;resizeParent=1;resizeParentMax=0;resizeLast=0;collapsible=1;marginBottom=0;whiteSpace=wrap;html=1;rounded=0;" parent="WIyWlLk6GJQsqaUBKTNV-1" vertex="1">
          <mxGeometry x="590" y="-370" width="220" height="310" as="geometry" />
        </mxCell>
        <mxCell id="4ze2XtRtzKSnxw6VI-vd-85" value="&lt;div&gt;- db: FirebaseFirestore&lt;/div&gt;&lt;div&gt;- usersRef: CollectionReference&lt;/div&gt;&lt;div&gt;- eventsRef: CollectionReference&lt;/div&gt;&lt;div&gt;- docRefUser: DocumentReference&lt;/div&gt;&lt;div&gt;- TAG: String&lt;/div&gt;&lt;div&gt;- Picture: ImageView&lt;/div&gt;&lt;div&gt;- name: TextView&lt;/div&gt;&lt;div&gt;- email: TextView&lt;/div&gt;&lt;div&gt;- phone: TextView&lt;/div&gt;&lt;div&gt;- region: TextView&lt;/div&gt;&lt;div&gt;- pictureUri: Uri&lt;/div&gt;&lt;div&gt;- userID: String&lt;/div&gt;" style="text;strokeColor=none;fillColor=none;align=left;verticalAlign=top;spacingLeft=4;spacingRight=4;overflow=hidden;rotatable=0;points=[[0,0.5],[1,0.5]];portConstraint=eastwest;whiteSpace=wrap;html=1;rounded=0;" parent="4ze2XtRtzKSnxw6VI-vd-84" vertex="1">
          <mxGeometry y="26" width="220" height="184" as="geometry" />
        </mxCell>
        <mxCell id="4ze2XtRtzKSnxw6VI-vd-86" value="" style="line;strokeWidth=1;fillColor=none;align=left;verticalAlign=middle;spacingTop=-1;spacingLeft=3;spacingRight=3;rotatable=0;labelPosition=right;points=[];portConstraint=eastwest;strokeColor=inherit;rounded=0;" parent="4ze2XtRtzKSnxw6VI-vd-84" vertex="1">
          <mxGeometry y="210" width="220" height="8" as="geometry" />
        </mxCell>
        <mxCell id="4ze2XtRtzKSnxw6VI-vd-87" value="&lt;div&gt;+ onCreate(savedInstanceState: Bundle): void&lt;/div&gt;&lt;div&gt;+ CheckEmpty(text: String): String&lt;/div&gt;&lt;div&gt;+ removeUser(userID: String, usersRef: CollectionReference, eventsRef: CollectionReference): void&lt;/div&gt;" style="text;strokeColor=none;fillColor=none;align=left;verticalAlign=top;spacingLeft=4;spacingRight=4;overflow=hidden;rotatable=0;points=[[0,0.5],[1,0.5]];portConstraint=eastwest;whiteSpace=wrap;html=1;rounded=0;" parent="4ze2XtRtzKSnxw6VI-vd-84" vertex="1">
          <mxGeometry y="218" width="220" height="92" as="geometry" />
        </mxCell>
        <mxCell id="_h1Wf59ER6TPHkNUMhwf-4" value="&amp;lt;&amp;lt;interface&amp;gt;&amp;gt;&lt;div&gt;OnSaveClickListener&lt;br&gt;&lt;/div&gt;&lt;div&gt;&lt;br&gt;&lt;/div&gt;" style="swimlane;fontStyle=1;align=center;verticalAlign=top;childLayout=stackLayout;horizontal=1;startSize=40;horizontalStack=0;resizeParent=1;resizeParentMax=0;resizeLast=0;collapsible=1;marginBottom=0;whiteSpace=wrap;html=1;rounded=0;" parent="WIyWlLk6GJQsqaUBKTNV-1" vertex="1">
          <mxGeometry x="836" y="260" width="350" height="90" as="geometry">
            <mxRectangle x="1400" y="390" width="160" height="60" as="alternateBounds" />
          </mxGeometry>
        </mxCell>
        <mxCell id="_h1Wf59ER6TPHkNUMhwf-5" value="" style="line;strokeWidth=1;fillColor=none;align=left;verticalAlign=middle;spacingTop=-1;spacingLeft=3;spacingRight=3;rotatable=0;labelPosition=right;points=[];portConstraint=eastwest;strokeColor=inherit;rounded=0;" parent="_h1Wf59ER6TPHkNUMhwf-4" vertex="1">
          <mxGeometry y="40" width="350" height="8" as="geometry" />
        </mxCell>
        <mxCell id="_h1Wf59ER6TPHkNUMhwf-6" value="&lt;div&gt;&lt;span style=&quot;background-color: initial;&quot;&gt;+ onSaveClicked(EditName:&lt;/span&gt;&lt;span style=&quot;background-color: initial;&quot;&gt;String&lt;/span&gt;&lt;span style=&quot;background-color: initial;&quot;&gt;, EditRegion:&lt;/span&gt;&lt;span style=&quot;background-color: initial;&quot;&gt;String&lt;/span&gt;&lt;span style=&quot;background-color: initial;&quot;&gt;, EditPhone:&lt;/span&gt;&lt;span style=&quot;background-color: initial;&quot;&gt;String&lt;/span&gt;&lt;span style=&quot;background-color: initial;&quot;&gt;, EditEmail:&lt;/span&gt;&lt;span style=&quot;background-color: initial;&quot;&gt;String&lt;/span&gt;&lt;span style=&quot;background-color: initial;&quot;&gt;, EditPicture:&lt;/span&gt;&lt;span style=&quot;background-color: initial;&quot;&gt;Uri&lt;/span&gt;&lt;span style=&quot;background-color: initial;&quot;&gt;):&amp;nbsp;&lt;/span&gt;&lt;span style=&quot;background-color: initial;&quot;&gt;void&lt;/span&gt;&lt;/div&gt;" style="text;strokeColor=none;fillColor=none;align=left;verticalAlign=top;spacingLeft=4;spacingRight=4;overflow=hidden;rotatable=0;points=[[0,0.5],[1,0.5]];portConstraint=eastwest;whiteSpace=wrap;html=1;rounded=0;" parent="_h1Wf59ER6TPHkNUMhwf-4" vertex="1">
          <mxGeometry y="48" width="350" height="42" as="geometry" />
        </mxCell>
        <mxCell id="_h1Wf59ER6TPHkNUMhwf-8" value="ProfileEditFrag" style="swimlane;fontStyle=1;align=center;verticalAlign=top;childLayout=stackLayout;horizontal=1;startSize=26;horizontalStack=0;resizeParent=1;resizeParentMax=0;resizeLast=0;collapsible=1;marginBottom=0;whiteSpace=wrap;html=1;rounded=0;" parent="WIyWlLk6GJQsqaUBKTNV-1" vertex="1">
          <mxGeometry x="430" y="123" width="320" height="230" as="geometry" />
        </mxCell>
        <mxCell id="_h1Wf59ER6TPHkNUMhwf-9" value="&lt;div&gt;- Picture:&amp;nbsp;&lt;span style=&quot;background-color: initial;&quot;&gt;ImageView&lt;/span&gt;&lt;/div&gt;&lt;div&gt;- image:&amp;nbsp;&lt;span style=&quot;background-color: initial;&quot;&gt;String&lt;/span&gt;&lt;/div&gt;&lt;div&gt;&lt;span style=&quot;background-color: initial;&quot;&gt;- docRefUser:&amp;nbsp;&lt;/span&gt;&lt;span style=&quot;background-color: initial;&quot;&gt;DocumentReference&lt;/span&gt;&lt;span style=&quot;background-color: initial;&quot;&gt;&amp;nbsp;&lt;/span&gt;&lt;/div&gt;&lt;div&gt;- uploaded:&amp;nbsp;&lt;span style=&quot;background-color: initial;&quot;&gt;Uri&lt;/span&gt;&lt;span style=&quot;background-color: initial;&quot;&gt;&amp;nbsp;&lt;/span&gt;&lt;/div&gt;&lt;div&gt;- PhoneLength:&amp;nbsp;&lt;span style=&quot;background-color: initial;&quot;&gt;int&lt;/span&gt;&lt;span style=&quot;background-color: initial;&quot;&gt;&amp;nbsp;&lt;/span&gt;&lt;/div&gt;&lt;div&gt;&lt;span style=&quot;background-color: initial;&quot;&gt;- ETphone:&amp;nbsp;&lt;/span&gt;&lt;span style=&quot;background-color: initial;&quot;&gt;EditText&lt;/span&gt;&lt;/div&gt;&lt;div&gt;- onSaveClickListener:&amp;nbsp;&lt;span style=&quot;background-color: initial;&quot;&gt;OnSaveClickListener&lt;/span&gt;&lt;/div&gt;" style="text;strokeColor=none;fillColor=none;align=left;verticalAlign=top;spacingLeft=4;spacingRight=4;overflow=hidden;rotatable=0;points=[[0,0.5],[1,0.5]];portConstraint=eastwest;whiteSpace=wrap;html=1;rounded=0;" parent="_h1Wf59ER6TPHkNUMhwf-8" vertex="1">
          <mxGeometry y="26" width="320" height="114" as="geometry" />
        </mxCell>
        <mxCell id="_h1Wf59ER6TPHkNUMhwf-10" value="" style="line;strokeWidth=1;fillColor=none;align=left;verticalAlign=middle;spacingTop=-1;spacingLeft=3;spacingRight=3;rotatable=0;labelPosition=right;points=[];portConstraint=eastwest;strokeColor=inherit;rounded=0;" parent="_h1Wf59ER6TPHkNUMhwf-8" vertex="1">
          <mxGeometry y="140" width="320" height="8" as="geometry" />
        </mxCell>
        <mxCell id="_h1Wf59ER6TPHkNUMhwf-11" value="+ onCreateDialog(savedInstanceState:Bundle): Dialog&lt;div&gt;+ isUploaded(deviceID:&lt;span style=&quot;background-color: initial;&quot;&gt;String&lt;/span&gt;&lt;span style=&quot;background-color: initial;&quot;&gt;):&amp;nbsp;&lt;/span&gt;&lt;span style=&quot;background-color: initial;&quot;&gt;void&lt;/span&gt;&lt;/div&gt;&lt;div&gt;&lt;span style=&quot;background-color: initial;&quot;&gt;-&amp;nbsp; setRegionPhone(regionCode:&lt;/span&gt;&lt;span style=&quot;background-color: initial;&quot;&gt;String&lt;/span&gt;&lt;span style=&quot;background-color: initial;&quot;&gt;):&amp;nbsp;&lt;/span&gt;&lt;span style=&quot;background-color: initial;&quot;&gt;void&lt;/span&gt;&lt;/div&gt;&lt;div&gt;&lt;span style=&quot;background-color: initial;&quot;&gt;+&amp;nbsp;&lt;/span&gt;&lt;span style=&quot;background-color: initial;&quot;&gt;setPicture(uploaded:&lt;/span&gt;&lt;span style=&quot;background-color: initial;&quot;&gt;Uri&lt;/span&gt;&lt;span style=&quot;background-color: initial;&quot;&gt;, URL:&lt;/span&gt;&lt;span style=&quot;background-color: initial;&quot;&gt;String&lt;/span&gt;&lt;span style=&quot;background-color: initial;&quot;&gt;): void&lt;/span&gt;&lt;/div&gt;&lt;div&gt;&lt;br&gt;&lt;/div&gt;" style="text;strokeColor=none;fillColor=none;align=left;verticalAlign=top;spacingLeft=4;spacingRight=4;overflow=hidden;rotatable=0;points=[[0,0.5],[1,0.5]];portConstraint=eastwest;whiteSpace=wrap;html=1;rounded=0;" parent="_h1Wf59ER6TPHkNUMhwf-8" vertex="1">
          <mxGeometry y="148" width="320" height="82" as="geometry" />
        </mxCell>
        <mxCell id="_h1Wf59ER6TPHkNUMhwf-16" value="&lt;span style=&quot;font-weight: normal;&quot;&gt;&amp;lt;&amp;lt;interface&amp;gt;&amp;gt;&lt;/span&gt;&lt;div&gt;ImageUpload&lt;/div&gt;" style="swimlane;fontStyle=1;align=center;verticalAlign=top;childLayout=stackLayout;horizontal=1;startSize=40;horizontalStack=0;resizeParent=1;resizeParentMax=0;resizeLast=0;collapsible=1;marginBottom=0;whiteSpace=wrap;html=1;rounded=0;" parent="WIyWlLk6GJQsqaUBKTNV-1" vertex="1">
          <mxGeometry x="130" y="123" width="220" height="70" as="geometry">
            <mxRectangle x="1400" y="390" width="160" height="60" as="alternateBounds" />
          </mxGeometry>
        </mxCell>
        <mxCell id="_h1Wf59ER6TPHkNUMhwf-17" value="" style="line;strokeWidth=1;fillColor=none;align=left;verticalAlign=middle;spacingTop=-1;spacingLeft=3;spacingRight=3;rotatable=0;labelPosition=right;points=[];portConstraint=eastwest;strokeColor=inherit;rounded=0;" parent="_h1Wf59ER6TPHkNUMhwf-16" vertex="1">
          <mxGeometry y="40" width="220" height="8" as="geometry" />
        </mxCell>
        <mxCell id="_h1Wf59ER6TPHkNUMhwf-18" value="&amp;nbsp;isUploaded(deviceID:&lt;span style=&quot;background-color: initial;&quot;&gt;String&lt;/span&gt;&lt;span style=&quot;background-color: initial;&quot;&gt;):&amp;nbsp;&lt;/span&gt;&lt;span style=&quot;background-color: initial;&quot;&gt;void&lt;/span&gt;" style="text;strokeColor=none;fillColor=none;align=left;verticalAlign=top;spacingLeft=4;spacingRight=4;overflow=hidden;rotatable=0;points=[[0,0.5],[1,0.5]];portConstraint=eastwest;whiteSpace=wrap;html=1;rounded=0;" parent="_h1Wf59ER6TPHkNUMhwf-16" vertex="1">
          <mxGeometry y="48" width="220" height="22" as="geometry" />
        </mxCell>
        <mxCell id="_h1Wf59ER6TPHkNUMhwf-19" value="DialogFragment" style="swimlane;fontStyle=1;align=center;verticalAlign=top;childLayout=stackLayout;horizontal=1;startSize=26;horizontalStack=0;resizeParent=1;resizeParentMax=0;resizeLast=0;collapsible=1;marginBottom=0;whiteSpace=wrap;html=1;rounded=0;" parent="WIyWlLk6GJQsqaUBKTNV-1" vertex="1">
          <mxGeometry x="600" y="30" width="160" height="34" as="geometry" />
        </mxCell>
        <mxCell id="_h1Wf59ER6TPHkNUMhwf-20" value="" style="line;strokeWidth=1;fillColor=none;align=left;verticalAlign=middle;spacingTop=-1;spacingLeft=3;spacingRight=3;rotatable=0;labelPosition=right;points=[];portConstraint=eastwest;strokeColor=inherit;rounded=0;" parent="_h1Wf59ER6TPHkNUMhwf-19" vertex="1">
          <mxGeometry y="26" width="160" height="8" as="geometry" />
        </mxCell>
        <mxCell id="_h1Wf59ER6TPHkNUMhwf-21" value="" style="endArrow=block;endFill=1;html=1;edgeStyle=orthogonalEdgeStyle;align=left;verticalAlign=top;rounded=0;entryX=0.5;entryY=1;entryDx=0;entryDy=0;exitX=0.782;exitY=-0.009;exitDx=0;exitDy=0;exitPerimeter=0;" parent="WIyWlLk6GJQsqaUBKTNV-1" source="_h1Wf59ER6TPHkNUMhwf-8" target="_h1Wf59ER6TPHkNUMhwf-19" edge="1">
          <mxGeometry x="-1" relative="1" as="geometry">
            <mxPoint x="570" y="90" as="sourcePoint" />
            <mxPoint x="730" y="90" as="targetPoint" />
          </mxGeometry>
        </mxCell>
        <mxCell id="_h1Wf59ER6TPHkNUMhwf-27" value="" style="endArrow=block;dashed=1;endFill=0;endSize=12;html=1;rounded=0;entryX=1;entryY=0.5;entryDx=0;entryDy=0;exitX=-0.001;exitY=0.291;exitDx=0;exitDy=0;exitPerimeter=0;" parent="WIyWlLk6GJQsqaUBKTNV-1" source="_h1Wf59ER6TPHkNUMhwf-9" target="_h1Wf59ER6TPHkNUMhwf-18" edge="1">
          <mxGeometry width="160" relative="1" as="geometry">
            <mxPoint x="410" y="190" as="sourcePoint" />
            <mxPoint x="640" y="240" as="targetPoint" />
          </mxGeometry>
        </mxCell>
        <mxCell id="_h1Wf59ER6TPHkNUMhwf-28" value="" style="endArrow=diamondThin;endFill=1;endSize=24;html=1;rounded=0;fontSize=12;curved=1;entryX=1;entryY=0.75;entryDx=0;entryDy=0;" parent="WIyWlLk6GJQsqaUBKTNV-1" target="_h1Wf59ER6TPHkNUMhwf-8" edge="1">
          <mxGeometry width="160" relative="1" as="geometry">
            <mxPoint x="840" y="296" as="sourcePoint" />
            <mxPoint x="1140" y="320" as="targetPoint" />
          </mxGeometry>
        </mxCell>
        <mxCell id="_h1Wf59ER6TPHkNUMhwf-29" value="1" style="text;html=1;align=center;verticalAlign=middle;resizable=0;points=[];autosize=1;strokeColor=none;fillColor=none;fontSize=16;rounded=0;" parent="WIyWlLk6GJQsqaUBKTNV-1" vertex="1">
          <mxGeometry x="750" y="260" width="30" height="30" as="geometry" />
        </mxCell>
        <mxCell id="_h1Wf59ER6TPHkNUMhwf-30" value="1" style="text;html=1;align=center;verticalAlign=middle;resizable=0;points=[];autosize=1;strokeColor=none;fillColor=none;fontSize=16;rounded=0;" parent="WIyWlLk6GJQsqaUBKTNV-1" vertex="1">
          <mxGeometry x="806" y="260" width="30" height="30" as="geometry" />
        </mxCell>
        <mxCell id="_h1Wf59ER6TPHkNUMhwf-32" value="" style="endArrow=none;html=1;rounded=0;fontSize=12;startSize=8;endSize=8;curved=1;entryX=0;entryY=0.5;entryDx=0;entryDy=0;exitX=1;exitY=0.5;exitDx=0;exitDy=0;" parent="WIyWlLk6GJQsqaUBKTNV-1" source="4ze2XtRtzKSnxw6VI-vd-158" target="_h1Wf59ER6TPHkNUMhwf-11" edge="1">
          <mxGeometry width="50" height="50" relative="1" as="geometry">
            <mxPoint x="320" y="340" as="sourcePoint" />
            <mxPoint x="370" y="290" as="targetPoint" />
          </mxGeometry>
        </mxCell>
        <mxCell id="_h1Wf59ER6TPHkNUMhwf-33" value="Changes Picture" style="text;html=1;align=center;verticalAlign=middle;resizable=0;points=[];autosize=1;strokeColor=none;fillColor=none;fontSize=16;rounded=0;" parent="WIyWlLk6GJQsqaUBKTNV-1" vertex="1">
          <mxGeometry x="270" y="277" width="140" height="30" as="geometry" />
        </mxCell>
        <mxCell id="4NAL1XkJ4b_aBACoTBwn-4" value="" style="endArrow=block;dashed=1;endFill=0;endSize=12;html=1;rounded=0;fontSize=12;curved=0;exitX=0;exitY=0.5;exitDx=0;exitDy=0;entryX=0.83;entryY=1.109;entryDx=0;entryDy=0;entryPerimeter=0;" parent="WIyWlLk6GJQsqaUBKTNV-1" source="4ze2XtRtzKSnxw6VI-vd-525" target="_h1Wf59ER6TPHkNUMhwf-6" edge="1">
          <mxGeometry width="160" relative="1" as="geometry">
            <mxPoint x="1040" y="420" as="sourcePoint" />
            <mxPoint x="1200" y="420" as="targetPoint" />
            <Array as="points">
              <mxPoint x="1127" y="458" />
            </Array>
          </mxGeometry>
        </mxCell>
        <mxCell id="4NAL1XkJ4b_aBACoTBwn-6" value="" style="endArrow=none;html=1;rounded=0;fontSize=12;startSize=8;endSize=8;curved=1;entryX=0.278;entryY=1.013;entryDx=0;entryDy=0;entryPerimeter=0;exitX=0.25;exitY=0;exitDx=0;exitDy=0;" parent="WIyWlLk6GJQsqaUBKTNV-1" source="4ze2XtRtzKSnxw6VI-vd-522" target="4ze2XtRtzKSnxw6VI-vd-40" edge="1">
          <mxGeometry width="50" height="50" relative="1" as="geometry">
            <mxPoint x="1410" y="220" as="sourcePoint" />
            <mxPoint x="1460" y="170" as="targetPoint" />
          </mxGeometry>
        </mxCell>
        <mxCell id="4NAL1XkJ4b_aBACoTBwn-13" value="" style="endArrow=none;html=1;fontSize=12;startSize=8;endSize=8;curved=0;rounded=0;entryX=0;entryY=0.5;entryDx=0;entryDy=0;exitX=0.729;exitY=1.044;exitDx=0;exitDy=0;exitPerimeter=0;" parent="WIyWlLk6GJQsqaUBKTNV-1" source="4ze2XtRtzKSnxw6VI-vd-60" target="4ze2XtRtzKSnxw6VI-vd-40" edge="1">
          <mxGeometry width="50" height="50" relative="1" as="geometry">
            <mxPoint x="1110" y="190" as="sourcePoint" />
            <mxPoint x="1160" y="140" as="targetPoint" />
            <Array as="points">
              <mxPoint x="1096" y="93" />
            </Array>
          </mxGeometry>
        </mxCell>
        <mxCell id="4NAL1XkJ4b_aBACoTBwn-15" value="" style="endArrow=none;html=1;fontSize=12;startSize=8;endSize=8;curved=1;entryX=0;entryY=0.5;entryDx=0;entryDy=0;exitX=1.008;exitY=0.624;exitDx=0;exitDy=0;exitPerimeter=0;" parent="WIyWlLk6GJQsqaUBKTNV-1" source="4ze2XtRtzKSnxw6VI-vd-85" target="4ze2XtRtzKSnxw6VI-vd-58" edge="1">
          <mxGeometry width="50" height="50" relative="1" as="geometry">
            <mxPoint x="780" y="-120" as="sourcePoint" />
            <mxPoint x="830" y="-170" as="targetPoint" />
          </mxGeometry>
        </mxCell>
        <mxCell id="4NAL1XkJ4b_aBACoTBwn-16" value="" style="endArrow=diamondThin;endFill=1;endSize=24;html=1;fontSize=12;curved=0;entryX=0.294;entryY=1.036;entryDx=0;entryDy=0;entryPerimeter=0;rounded=0;exitX=0.25;exitY=0;exitDx=0;exitDy=0;" parent="WIyWlLk6GJQsqaUBKTNV-1" source="4ze2XtRtzKSnxw6VI-vd-33" edge="1">
          <mxGeometry width="160" relative="1" as="geometry">
            <mxPoint x="2430" y="210" as="sourcePoint" />
            <mxPoint x="1022.7999999999997" y="-80.48000000000002" as="targetPoint" />
            <Array as="points">
              <mxPoint x="2711" y="190" />
              <mxPoint x="1023" y="180" />
            </Array>
          </mxGeometry>
        </mxCell>
        <mxCell id="4NAL1XkJ4b_aBACoTBwn-17" value="1" style="text;html=1;align=center;verticalAlign=middle;resizable=0;points=[];autosize=1;strokeColor=none;fillColor=none;fontSize=16;" parent="WIyWlLk6GJQsqaUBKTNV-1" vertex="1">
          <mxGeometry x="970" y="-80" width="30" height="30" as="geometry" />
        </mxCell>
        <mxCell id="4NAL1XkJ4b_aBACoTBwn-18" value="1" style="text;html=1;align=center;verticalAlign=middle;resizable=0;points=[];autosize=1;strokeColor=none;fillColor=none;fontSize=16;" parent="WIyWlLk6GJQsqaUBKTNV-1" vertex="1">
          <mxGeometry x="2720" y="340" width="30" height="30" as="geometry" />
        </mxCell>
        <mxCell id="4NAL1XkJ4b_aBACoTBwn-19" value="0...*" style="text;html=1;align=center;verticalAlign=middle;resizable=0;points=[];autosize=1;strokeColor=none;fillColor=none;fontSize=16;" parent="WIyWlLk6GJQsqaUBKTNV-1" vertex="1">
          <mxGeometry x="2800" y="554" width="50" height="30" as="geometry" />
        </mxCell>
        <mxCell id="4NAL1XkJ4b_aBACoTBwn-20" value="1" style="text;html=1;align=center;verticalAlign=middle;resizable=0;points=[];autosize=1;strokeColor=none;fillColor=none;fontSize=16;" parent="WIyWlLk6GJQsqaUBKTNV-1" vertex="1">
          <mxGeometry x="2810" y="520" width="30" height="30" as="geometry" />
        </mxCell>
        <mxCell id="4NAL1XkJ4b_aBACoTBwn-21" value="" style="endArrow=none;html=1;fontSize=12;startSize=8;endSize=8;curved=1;exitX=0.25;exitY=0;exitDx=0;exitDy=0;entryX=0.322;entryY=1.029;entryDx=0;entryDy=0;entryPerimeter=0;" parent="WIyWlLk6GJQsqaUBKTNV-1" source="4ze2XtRtzKSnxw6VI-vd-37" target="4ze2XtRtzKSnxw6VI-vd-44" edge="1">
          <mxGeometry width="50" height="50" relative="1" as="geometry">
            <mxPoint x="1360" y="-40" as="sourcePoint" />
            <mxPoint x="1410" y="-90" as="targetPoint" />
          </mxGeometry>
        </mxCell>
        <mxCell id="4NAL1XkJ4b_aBACoTBwn-22" value="" style="endArrow=none;html=1;fontSize=12;startSize=8;endSize=8;curved=1;entryX=0.343;entryY=1.046;entryDx=0;entryDy=0;entryPerimeter=0;" parent="WIyWlLk6GJQsqaUBKTNV-1" target="4ze2XtRtzKSnxw6VI-vd-64" edge="1">
          <mxGeometry width="50" height="50" relative="1" as="geometry">
            <mxPoint x="1320" y="-330" as="sourcePoint" />
            <mxPoint x="1380" y="-360" as="targetPoint" />
          </mxGeometry>
        </mxCell>
        <mxCell id="4NAL1XkJ4b_aBACoTBwn-23" value="" style="endArrow=diamondThin;endFill=0;endSize=24;html=1;fontSize=12;curved=0;entryX=0.894;entryY=1.116;entryDx=0;entryDy=0;entryPerimeter=0;exitX=0;exitY=0.5;exitDx=0;exitDy=0;rounded=0;" parent="WIyWlLk6GJQsqaUBKTNV-1" source="4ze2XtRtzKSnxw6VI-vd-9" target="4ze2XtRtzKSnxw6VI-vd-44" edge="1">
          <mxGeometry width="160" relative="1" as="geometry">
            <mxPoint x="1790" y="1100" as="sourcePoint" />
            <mxPoint x="1430" y="-100" as="targetPoint" />
            <Array as="points">
              <mxPoint x="1620" y="1453" />
              <mxPoint x="1620" y="1240" />
              <mxPoint x="1390" y="1240" />
              <mxPoint x="1390" y="730" />
              <mxPoint x="1200" y="730" />
              <mxPoint x="1200" y="-10" />
              <mxPoint x="1515" y="-10" />
            </Array>
          </mxGeometry>
        </mxCell>
        <mxCell id="4NAL1XkJ4b_aBACoTBwn-24" value="0...*" style="text;html=1;align=center;verticalAlign=middle;resizable=0;points=[];autosize=1;strokeColor=none;fillColor=none;fontSize=16;" parent="WIyWlLk6GJQsqaUBKTNV-1" vertex="1">
          <mxGeometry x="1530" y="-100" width="50" height="30" as="geometry" />
        </mxCell>
        <mxCell id="4NAL1XkJ4b_aBACoTBwn-25" value="1" style="text;html=1;align=center;verticalAlign=middle;resizable=0;points=[];autosize=1;strokeColor=none;fillColor=none;fontSize=16;" parent="WIyWlLk6GJQsqaUBKTNV-1" vertex="1">
          <mxGeometry x="1640" y="1410" width="30" height="30" as="geometry" />
        </mxCell>
        <mxCell id="4NAL1XkJ4b_aBACoTBwn-27" value="" style="endArrow=none;html=1;fontSize=12;startSize=8;endSize=8;curved=0;exitX=1;exitY=0.5;exitDx=0;exitDy=0;entryX=0.329;entryY=1.015;entryDx=0;entryDy=0;entryPerimeter=0;rounded=0;" parent="WIyWlLk6GJQsqaUBKTNV-1" source="4ze2XtRtzKSnxw6VI-vd-37" target="4ze2XtRtzKSnxw6VI-vd-48" edge="1">
          <mxGeometry width="50" height="50" relative="1" as="geometry">
            <mxPoint x="1590" y="-20" as="sourcePoint" />
            <mxPoint x="1640" y="-70" as="targetPoint" />
            <Array as="points">
              <mxPoint x="1692" y="76" />
            </Array>
          </mxGeometry>
        </mxCell>
        <mxCell id="4NAL1XkJ4b_aBACoTBwn-28" value="" style="endArrow=none;html=1;fontSize=12;startSize=8;endSize=8;curved=1;exitX=1.018;exitY=0.116;exitDx=0;exitDy=0;exitPerimeter=0;" parent="WIyWlLk6GJQsqaUBKTNV-1" source="4ze2XtRtzKSnxw6VI-vd-48" edge="1">
          <mxGeometry width="50" height="50" relative="1" as="geometry">
            <mxPoint x="1800" y="-360" as="sourcePoint" />
            <mxPoint x="1960" y="-428" as="targetPoint" />
          </mxGeometry>
        </mxCell>
        <mxCell id="4NAL1XkJ4b_aBACoTBwn-31" value="" style="endArrow=diamondThin;endFill=1;endSize=24;html=1;fontSize=12;curved=1;entryX=1;entryY=0.5;entryDx=0;entryDy=0;exitX=-0.006;exitY=0.401;exitDx=0;exitDy=0;exitPerimeter=0;" parent="WIyWlLk6GJQsqaUBKTNV-1" source="4ze2XtRtzKSnxw6VI-vd-68" target="4ze2XtRtzKSnxw6VI-vd-56" edge="1">
          <mxGeometry width="160" relative="1" as="geometry">
            <mxPoint x="2270" y="-420" as="sourcePoint" />
            <mxPoint x="2430" y="-420" as="targetPoint" />
          </mxGeometry>
        </mxCell>
        <mxCell id="4NAL1XkJ4b_aBACoTBwn-32" value="1" style="text;html=1;align=center;verticalAlign=middle;resizable=0;points=[];autosize=1;strokeColor=none;fillColor=none;fontSize=16;" parent="WIyWlLk6GJQsqaUBKTNV-1" vertex="1">
          <mxGeometry x="2183" y="-480" width="30" height="30" as="geometry" />
        </mxCell>
        <mxCell id="4NAL1XkJ4b_aBACoTBwn-33" value="1" style="text;html=1;align=center;verticalAlign=middle;resizable=0;points=[];autosize=1;strokeColor=none;fillColor=none;fontSize=16;" parent="WIyWlLk6GJQsqaUBKTNV-1" vertex="1">
          <mxGeometry x="2320" y="-470" width="30" height="30" as="geometry" />
        </mxCell>
        <mxCell id="4NAL1XkJ4b_aBACoTBwn-34" value="" style="endArrow=none;html=1;fontSize=12;startSize=8;endSize=8;curved=1;entryX=0.25;entryY=1;entryDx=0;entryDy=0;exitX=0.25;exitY=0;exitDx=0;exitDy=0;" parent="WIyWlLk6GJQsqaUBKTNV-1" source="4ze2XtRtzKSnxw6VI-vd-53" target="4ze2XtRtzKSnxw6VI-vd-69" edge="1">
          <mxGeometry width="50" height="50" relative="1" as="geometry">
            <mxPoint x="1970" y="-610" as="sourcePoint" />
            <mxPoint x="2020" y="-660" as="targetPoint" />
          </mxGeometry>
        </mxCell>
        <mxCell id="4NAL1XkJ4b_aBACoTBwn-35" value="Gets detail of an image in&lt;br&gt;loadedImages" style="text;html=1;align=center;verticalAlign=middle;resizable=0;points=[];autosize=1;strokeColor=none;fillColor=none;fontSize=16;" parent="WIyWlLk6GJQsqaUBKTNV-1" vertex="1">
          <mxGeometry x="2015" y="-720" width="200" height="50" as="geometry" />
        </mxCell>
        <mxCell id="4NAL1XkJ4b_aBACoTBwn-36" value="" style="endArrow=none;html=1;fontSize=12;startSize=8;endSize=8;curved=1;entryX=0;entryY=0.5;entryDx=0;entryDy=0;exitX=1.003;exitY=0.438;exitDx=0;exitDy=0;exitPerimeter=0;" parent="WIyWlLk6GJQsqaUBKTNV-1" source="4ze2XtRtzKSnxw6VI-vd-97" target="4ze2XtRtzKSnxw6VI-vd-518" edge="1">
          <mxGeometry width="50" height="50" relative="1" as="geometry">
            <mxPoint x="1270" y="1050" as="sourcePoint" />
            <mxPoint x="1320" y="1000" as="targetPoint" />
          </mxGeometry>
        </mxCell>
        <mxCell id="4NAL1XkJ4b_aBACoTBwn-37" value="Adds to&lt;div&gt;eventDataList&lt;/div&gt;" style="text;html=1;align=center;verticalAlign=middle;resizable=0;points=[];autosize=1;strokeColor=none;fillColor=none;fontSize=16;" parent="WIyWlLk6GJQsqaUBKTNV-1" vertex="1">
          <mxGeometry x="1172" y="925" width="120" height="50" as="geometry" />
        </mxCell>
        <mxCell id="4NAL1XkJ4b_aBACoTBwn-38" value="" style="endArrow=none;html=1;fontSize=12;startSize=8;endSize=8;curved=0;entryX=0.001;entryY=0.782;entryDx=0;entryDy=0;entryPerimeter=0;rounded=0;exitX=0.839;exitY=0.02;exitDx=0;exitDy=0;exitPerimeter=0;" parent="WIyWlLk6GJQsqaUBKTNV-1" source="4ze2XtRtzKSnxw6VI-vd-112" target="4ze2XtRtzKSnxw6VI-vd-518" edge="1">
          <mxGeometry width="50" height="50" relative="1" as="geometry">
            <mxPoint x="1240" y="1430" as="sourcePoint" />
            <mxPoint x="1270" y="1250" as="targetPoint" />
            <Array as="points">
              <mxPoint x="1240" y="1028" />
            </Array>
          </mxGeometry>
        </mxCell>
        <mxCell id="4NAL1XkJ4b_aBACoTBwn-39" value="Expands event in&lt;div&gt;eventDataList&lt;/div&gt;" style="text;html=1;align=center;verticalAlign=middle;resizable=0;points=[];autosize=1;strokeColor=none;fillColor=none;fontSize=16;" parent="WIyWlLk6GJQsqaUBKTNV-1" vertex="1">
          <mxGeometry x="1101" y="1390" width="140" height="50" as="geometry" />
        </mxCell>
        <mxCell id="4NAL1XkJ4b_aBACoTBwn-43" value="" style="endArrow=none;html=1;fontSize=12;startSize=8;endSize=8;curved=1;entryX=0;entryY=0.5;entryDx=0;entryDy=0;" parent="WIyWlLk6GJQsqaUBKTNV-1" target="4ze2XtRtzKSnxw6VI-vd-113" edge="1">
          <mxGeometry width="50" height="50" relative="1" as="geometry">
            <mxPoint x="850" y="1533" as="sourcePoint" />
            <mxPoint x="970" y="1590" as="targetPoint" />
          </mxGeometry>
        </mxCell>
        <mxCell id="4NAL1XkJ4b_aBACoTBwn-44" value="" style="endArrow=none;html=1;fontSize=12;startSize=8;endSize=8;curved=1;entryX=0.196;entryY=1.032;entryDx=0;entryDy=0;entryPerimeter=0;" parent="WIyWlLk6GJQsqaUBKTNV-1" target="4ze2XtRtzKSnxw6VI-vd-115" edge="1">
          <mxGeometry width="50" height="50" relative="1" as="geometry">
            <mxPoint x="1049" y="1810" as="sourcePoint" />
            <mxPoint x="1100" y="1840" as="targetPoint" />
          </mxGeometry>
        </mxCell>
        <mxCell id="4NAL1XkJ4b_aBACoTBwn-45" value="" style="endArrow=none;html=1;fontSize=12;startSize=8;endSize=8;curved=0;exitX=0.25;exitY=0;exitDx=0;exitDy=0;entryX=0.769;entryY=1.01;entryDx=0;entryDy=0;entryPerimeter=0;rounded=0;" parent="WIyWlLk6GJQsqaUBKTNV-1" source="_h1Wf59ER6TPHkNUMhwf-8" target="4ze2XtRtzKSnxw6VI-vd-182" edge="1">
          <mxGeometry width="50" height="50" relative="1" as="geometry">
            <mxPoint x="410" y="140" as="sourcePoint" />
            <mxPoint x="460" y="90" as="targetPoint" />
            <Array as="points">
              <mxPoint x="510" y="70" />
              <mxPoint x="412" y="70" />
            </Array>
          </mxGeometry>
        </mxCell>
        <mxCell id="4NAL1XkJ4b_aBACoTBwn-46" value="utilizes methods" style="text;html=1;align=center;verticalAlign=middle;resizable=0;points=[];autosize=1;strokeColor=none;fillColor=none;fontSize=16;" parent="WIyWlLk6GJQsqaUBKTNV-1" vertex="1">
          <mxGeometry x="414" y="34" width="130" height="30" as="geometry" />
        </mxCell>
        <mxCell id="4NAL1XkJ4b_aBACoTBwn-48" value="" style="endArrow=none;html=1;fontSize=12;startSize=8;endSize=8;curved=0;exitX=0.5;exitY=0;exitDx=0;exitDy=0;entryX=0;entryY=0.5;entryDx=0;entryDy=0;rounded=0;" parent="WIyWlLk6GJQsqaUBKTNV-1" source="4ze2XtRtzKSnxw6VI-vd-156" target="4ze2XtRtzKSnxw6VI-vd-182" edge="1">
          <mxGeometry width="50" height="50" relative="1" as="geometry">
            <mxPoint x="170" y="200" as="sourcePoint" />
            <mxPoint x="220" y="150" as="targetPoint" />
            <Array as="points">
              <mxPoint x="45" y="-48" />
            </Array>
          </mxGeometry>
        </mxCell>
        <mxCell id="4NAL1XkJ4b_aBACoTBwn-50" value="utilizes methods" style="text;html=1;align=center;verticalAlign=middle;resizable=0;points=[];autosize=1;strokeColor=none;fillColor=none;fontSize=16;" parent="WIyWlLk6GJQsqaUBKTNV-1" vertex="1">
          <mxGeometry x="40" y="44" width="130" height="30" as="geometry" />
        </mxCell>
        <mxCell id="4NAL1XkJ4b_aBACoTBwn-51" value="" style="endArrow=none;html=1;fontSize=12;startSize=8;endSize=8;curved=0;rounded=0;exitX=0.992;exitY=-0.044;exitDx=0;exitDy=0;exitPerimeter=0;" parent="WIyWlLk6GJQsqaUBKTNV-1" source="4ze2XtRtzKSnxw6VI-vd-188" edge="1">
          <mxGeometry width="50" height="50" relative="1" as="geometry">
            <mxPoint x="980" y="1760" as="sourcePoint" />
            <mxPoint x="1020" y="1710" as="targetPoint" />
            <Array as="points">
              <mxPoint x="1020" y="1775" />
            </Array>
          </mxGeometry>
        </mxCell>
        <mxCell id="4NAL1XkJ4b_aBACoTBwn-52" value="" style="endArrow=none;html=1;fontSize=12;startSize=8;endSize=8;curved=0;exitX=0.75;exitY=0;exitDx=0;exitDy=0;entryX=0;entryY=0.5;entryDx=0;entryDy=0;rounded=0;" parent="WIyWlLk6GJQsqaUBKTNV-1" source="4ze2XtRtzKSnxw6VI-vd-88" target="4ze2XtRtzKSnxw6VI-vd-95" edge="1">
          <mxGeometry width="50" height="50" relative="1" as="geometry">
            <mxPoint x="2300" y="460" as="sourcePoint" />
            <mxPoint x="2630" y="340" as="targetPoint" />
            <Array as="points">
              <mxPoint x="1998" y="500" />
              <mxPoint x="2580" y="500" />
              <mxPoint x="2580" y="254" />
            </Array>
          </mxGeometry>
        </mxCell>
        <mxCell id="4NAL1XkJ4b_aBACoTBwn-53" value="" style="endArrow=diamondThin;endFill=0;endSize=24;html=1;fontSize=12;curved=0;entryX=0.651;entryY=1.023;entryDx=0;entryDy=0;entryPerimeter=0;exitX=1.003;exitY=0.039;exitDx=0;exitDy=0;rounded=0;exitPerimeter=0;" parent="WIyWlLk6GJQsqaUBKTNV-1" source="4ze2XtRtzKSnxw6VI-vd-8" target="4ze2XtRtzKSnxw6VI-vd-95" edge="1">
          <mxGeometry width="160" relative="1" as="geometry">
            <mxPoint x="2340" y="1240" as="sourcePoint" />
            <mxPoint x="2870" y="410" as="targetPoint" />
            <Array as="points">
              <mxPoint x="2992" y="1387" />
            </Array>
          </mxGeometry>
        </mxCell>
        <mxCell id="4NAL1XkJ4b_aBACoTBwn-54" value="1" style="text;html=1;align=center;verticalAlign=middle;resizable=0;points=[];autosize=1;strokeColor=none;fillColor=none;fontSize=16;" parent="WIyWlLk6GJQsqaUBKTNV-1" vertex="1">
          <mxGeometry x="2950" y="300" width="30" height="30" as="geometry" />
        </mxCell>
        <mxCell id="4NAL1XkJ4b_aBACoTBwn-55" value="0...*" style="text;html=1;align=center;verticalAlign=middle;resizable=0;points=[];autosize=1;strokeColor=none;fillColor=none;fontSize=16;" parent="WIyWlLk6GJQsqaUBKTNV-1" vertex="1">
          <mxGeometry x="2260" y="1350" width="50" height="30" as="geometry" />
        </mxCell>
        <mxCell id="4NAL1XkJ4b_aBACoTBwn-57" value="" style="endArrow=diamondThin;endFill=0;endSize=24;html=1;fontSize=12;curved=0;entryX=0.899;entryY=1.046;entryDx=0;entryDy=0;entryPerimeter=0;exitX=1;exitY=0.5;exitDx=0;exitDy=0;rounded=0;" parent="WIyWlLk6GJQsqaUBKTNV-1" source="4ze2XtRtzKSnxw6VI-vd-535" target="4ze2XtRtzKSnxw6VI-vd-95" edge="1">
          <mxGeometry width="160" relative="1" as="geometry">
            <mxPoint x="2740" y="1440" as="sourcePoint" />
            <mxPoint x="3060" y="370" as="targetPoint" />
            <Array as="points">
              <mxPoint x="3062" y="1199" />
            </Array>
          </mxGeometry>
        </mxCell>
        <mxCell id="4NAL1XkJ4b_aBACoTBwn-58" value="1" style="text;html=1;align=center;verticalAlign=middle;resizable=0;points=[];autosize=1;strokeColor=none;fillColor=none;fontSize=16;" parent="WIyWlLk6GJQsqaUBKTNV-1" vertex="1">
          <mxGeometry x="3070" y="300" width="30" height="30" as="geometry" />
        </mxCell>
        <mxCell id="4NAL1XkJ4b_aBACoTBwn-61" value="1" style="text;html=1;align=center;verticalAlign=middle;resizable=0;points=[];autosize=1;strokeColor=none;fillColor=none;fontSize=16;" parent="WIyWlLk6GJQsqaUBKTNV-1" vertex="1">
          <mxGeometry x="2240" y="1150" width="30" height="30" as="geometry" />
        </mxCell>
        <mxCell id="4NAL1XkJ4b_aBACoTBwn-62" value="" style="endArrow=none;html=1;fontSize=12;startSize=8;endSize=8;curved=1;entryX=0.495;entryY=1.1;entryDx=0;entryDy=0;entryPerimeter=0;" parent="WIyWlLk6GJQsqaUBKTNV-1" target="4ze2XtRtzKSnxw6VI-vd-83" edge="1">
          <mxGeometry width="50" height="50" relative="1" as="geometry">
            <mxPoint x="961" y="2060" as="sourcePoint" />
            <mxPoint x="1020" y="2010" as="targetPoint" />
          </mxGeometry>
        </mxCell>
        <mxCell id="4NAL1XkJ4b_aBACoTBwn-63" value="Expands attendee of event" style="text;html=1;align=center;verticalAlign=middle;resizable=0;points=[];autosize=1;strokeColor=none;fillColor=none;fontSize=16;" parent="WIyWlLk6GJQsqaUBKTNV-1" vertex="1">
          <mxGeometry x="960" y="2000" width="210" height="30" as="geometry" />
        </mxCell>
        <mxCell id="4NAL1XkJ4b_aBACoTBwn-64" value="" style="endArrow=none;html=1;fontSize=12;startSize=8;endSize=8;curved=0;entryX=0.318;entryY=1.173;entryDx=0;entryDy=0;entryPerimeter=0;rounded=0;exitX=0.75;exitY=0;exitDx=0;exitDy=0;" parent="WIyWlLk6GJQsqaUBKTNV-1" source="4ze2XtRtzKSnxw6VI-vd-12" target="4ze2XtRtzKSnxw6VI-vd-83" edge="1">
          <mxGeometry width="50" height="50" relative="1" as="geometry">
            <mxPoint x="670" y="2070" as="sourcePoint" />
            <mxPoint x="720" y="2020" as="targetPoint" />
            <Array as="points">
              <mxPoint x="680" y="2010" />
              <mxPoint x="913" y="2010" />
            </Array>
          </mxGeometry>
        </mxCell>
        <mxCell id="4NAL1XkJ4b_aBACoTBwn-65" value="Get attendees of event" style="text;html=1;align=center;verticalAlign=middle;resizable=0;points=[];autosize=1;strokeColor=none;fillColor=none;fontSize=16;" parent="WIyWlLk6GJQsqaUBKTNV-1" vertex="1">
          <mxGeometry x="1056" y="1770" width="180" height="30" as="geometry" />
        </mxCell>
        <mxCell id="4NAL1XkJ4b_aBACoTBwn-66" value="" style="endArrow=diamondThin;endFill=1;endSize=24;html=1;fontSize=12;curved=0;entryX=0;entryY=0.5;entryDx=0;entryDy=0;rounded=0;exitX=0.191;exitY=0.009;exitDx=0;exitDy=0;exitPerimeter=0;" parent="WIyWlLk6GJQsqaUBKTNV-1" source="4ze2XtRtzKSnxw6VI-vd-209" target="4ze2XtRtzKSnxw6VI-vd-184" edge="1">
          <mxGeometry width="160" relative="1" as="geometry">
            <mxPoint x="1360" y="1830" as="sourcePoint" />
            <mxPoint x="1370" y="1050" as="targetPoint" />
            <Array as="points">
              <mxPoint x="1360" y="640" />
            </Array>
          </mxGeometry>
        </mxCell>
        <mxCell id="4NAL1XkJ4b_aBACoTBwn-67" value="1" style="text;html=1;align=center;verticalAlign=middle;resizable=0;points=[];autosize=1;strokeColor=none;fillColor=none;fontSize=16;" parent="WIyWlLk6GJQsqaUBKTNV-1" vertex="1">
          <mxGeometry x="1420" y="594" width="30" height="30" as="geometry" />
        </mxCell>
        <mxCell id="4NAL1XkJ4b_aBACoTBwn-68" value="1" style="text;html=1;align=center;verticalAlign=middle;resizable=0;points=[];autosize=1;strokeColor=none;fillColor=none;fontSize=16;" parent="WIyWlLk6GJQsqaUBKTNV-1" vertex="1">
          <mxGeometry x="1370" y="1930" width="30" height="30" as="geometry" />
        </mxCell>
        <mxCell id="4NAL1XkJ4b_aBACoTBwn-69" value="" style="endArrow=diamondThin;endFill=0;endSize=24;html=1;fontSize=12;curved=1;entryX=0.25;entryY=0;entryDx=0;entryDy=0;" parent="WIyWlLk6GJQsqaUBKTNV-1" target="4ze2XtRtzKSnxw6VI-vd-104" edge="1">
          <mxGeometry width="160" relative="1" as="geometry">
            <mxPoint x="1960" y="1810" as="sourcePoint" />
            <mxPoint x="1880" y="1840" as="targetPoint" />
          </mxGeometry>
        </mxCell>
        <mxCell id="4NAL1XkJ4b_aBACoTBwn-70" value="1" style="text;html=1;align=center;verticalAlign=middle;resizable=0;points=[];autosize=1;strokeColor=none;fillColor=none;fontSize=16;" parent="WIyWlLk6GJQsqaUBKTNV-1" vertex="1">
          <mxGeometry x="1970" y="1810" width="30" height="30" as="geometry" />
        </mxCell>
        <mxCell id="4NAL1XkJ4b_aBACoTBwn-71" value="1" style="text;html=1;align=center;verticalAlign=middle;resizable=0;points=[];autosize=1;strokeColor=none;fillColor=none;fontSize=16;" parent="WIyWlLk6GJQsqaUBKTNV-1" vertex="1">
          <mxGeometry x="1980" y="1890" width="30" height="30" as="geometry" />
        </mxCell>
        <mxCell id="4NAL1XkJ4b_aBACoTBwn-72" value="" style="endArrow=none;html=1;fontSize=12;startSize=8;endSize=8;curved=0;entryX=0.075;entryY=1.033;entryDx=0;entryDy=0;entryPerimeter=0;exitX=0;exitY=0.5;exitDx=0;exitDy=0;rounded=0;" parent="WIyWlLk6GJQsqaUBKTNV-1" source="4ze2XtRtzKSnxw6VI-vd-105" target="4ze2XtRtzKSnxw6VI-vd-91" edge="1">
          <mxGeometry width="50" height="50" relative="1" as="geometry">
            <mxPoint x="1800" y="1510" as="sourcePoint" />
            <mxPoint x="1850" y="1460" as="targetPoint" />
            <Array as="points">
              <mxPoint x="1740" y="2010" />
              <mxPoint x="1740" y="1900" />
              <mxPoint x="1580" y="1900" />
              <mxPoint x="1580" y="1310" />
              <mxPoint x="1802" y="1310" />
            </Array>
          </mxGeometry>
        </mxCell>
        <mxCell id="4NAL1XkJ4b_aBACoTBwn-73" value="Expands event" style="text;html=1;align=center;verticalAlign=middle;resizable=0;points=[];autosize=1;strokeColor=none;fillColor=none;fontSize=16;" parent="WIyWlLk6GJQsqaUBKTNV-1" vertex="1">
          <mxGeometry x="1610" y="1870" width="130" height="30" as="geometry" />
        </mxCell>
        <mxCell id="4NAL1XkJ4b_aBACoTBwn-75" value="" style="endArrow=none;html=1;fontSize=12;startSize=8;endSize=8;curved=1;entryX=0;entryY=0.5;entryDx=0;entryDy=0;exitX=1.003;exitY=0.229;exitDx=0;exitDy=0;exitPerimeter=0;" parent="WIyWlLk6GJQsqaUBKTNV-1" source="4ze2XtRtzKSnxw6VI-vd-105" target="4ze2XtRtzKSnxw6VI-vd-21" edge="1">
          <mxGeometry width="50" height="50" relative="1" as="geometry">
            <mxPoint x="2300" y="2100" as="sourcePoint" />
            <mxPoint x="2350" y="2050" as="targetPoint" />
          </mxGeometry>
        </mxCell>
        <mxCell id="4NAL1XkJ4b_aBACoTBwn-76" value="" style="endArrow=none;html=1;fontSize=12;startSize=8;endSize=8;curved=0;exitX=0.25;exitY=0;exitDx=0;exitDy=0;entryX=0;entryY=0.5;entryDx=0;entryDy=0;rounded=0;" parent="WIyWlLk6GJQsqaUBKTNV-1" source="4ze2XtRtzKSnxw6VI-vd-156" target="4ze2XtRtzKSnxw6VI-vd-54" edge="1">
          <mxGeometry width="50" height="50" relative="1" as="geometry">
            <mxPoint x="190" y="60" as="sourcePoint" />
            <mxPoint x="1570" y="-340" as="targetPoint" />
            <Array as="points">
              <mxPoint x="-60" y="-820" />
              <mxPoint x="1770" y="-820" />
              <mxPoint x="1770" y="-541" />
            </Array>
          </mxGeometry>
        </mxCell>
        <mxCell id="4NAL1XkJ4b_aBACoTBwn-77" value="utilizes methods" style="text;html=1;align=center;verticalAlign=middle;resizable=0;points=[];autosize=1;strokeColor=none;fillColor=none;fontSize=16;" parent="WIyWlLk6GJQsqaUBKTNV-1" vertex="1">
          <mxGeometry x="790" y="-850" width="130" height="30" as="geometry" />
        </mxCell>
        <mxCell id="4NAL1XkJ4b_aBACoTBwn-80" value="" style="endArrow=none;html=1;fontSize=12;startSize=8;endSize=8;curved=1;exitX=1;exitY=0.5;exitDx=0;exitDy=0;entryX=0;entryY=0.5;entryDx=0;entryDy=0;" parent="WIyWlLk6GJQsqaUBKTNV-1" source="4ze2XtRtzKSnxw6VI-vd-93" target="4ze2XtRtzKSnxw6VI-vd-117" edge="1">
          <mxGeometry width="50" height="50" relative="1" as="geometry">
            <mxPoint x="3280" y="170" as="sourcePoint" />
            <mxPoint x="3330" y="120" as="targetPoint" />
          </mxGeometry>
        </mxCell>
        <mxCell id="4NAL1XkJ4b_aBACoTBwn-81" value="expands event" style="text;html=1;align=center;verticalAlign=middle;resizable=0;points=[];autosize=1;strokeColor=none;fillColor=none;fontSize=16;" parent="WIyWlLk6GJQsqaUBKTNV-1" vertex="1">
          <mxGeometry x="3120" y="80" width="120" height="30" as="geometry" />
        </mxCell>
        <mxCell id="4NAL1XkJ4b_aBACoTBwn-83" value="" style="endArrow=diamondThin;endFill=0;endSize=24;html=1;fontSize=12;curved=0;entryX=0.231;entryY=1.076;entryDx=0;entryDy=0;entryPerimeter=0;exitX=1;exitY=0.5;exitDx=0;exitDy=0;rounded=0;" parent="WIyWlLk6GJQsqaUBKTNV-1" source="4ze2XtRtzKSnxw6VI-vd-11" target="4ze2XtRtzKSnxw6VI-vd-119" edge="1">
          <mxGeometry width="160" relative="1" as="geometry">
            <mxPoint x="2480" y="1100" as="sourcePoint" />
            <mxPoint x="3270" y="460" as="targetPoint" />
            <Array as="points">
              <mxPoint x="3339" y="1664" />
            </Array>
          </mxGeometry>
        </mxCell>
        <mxCell id="4NAL1XkJ4b_aBACoTBwn-84" value="1" style="text;html=1;align=center;verticalAlign=middle;resizable=0;points=[];autosize=1;strokeColor=none;fillColor=none;fontSize=16;" parent="WIyWlLk6GJQsqaUBKTNV-1" vertex="1">
          <mxGeometry x="3350" y="260" width="30" height="30" as="geometry" />
        </mxCell>
        <mxCell id="4NAL1XkJ4b_aBACoTBwn-85" value="1" style="text;html=1;align=center;verticalAlign=middle;resizable=0;points=[];autosize=1;strokeColor=none;fillColor=none;fontSize=16;" parent="WIyWlLk6GJQsqaUBKTNV-1" vertex="1">
          <mxGeometry x="2270" y="1632" width="30" height="30" as="geometry" />
        </mxCell>
        <mxCell id="4NAL1XkJ4b_aBACoTBwn-86" value="1" style="text;html=1;align=center;verticalAlign=middle;resizable=0;points=[];autosize=1;strokeColor=none;fillColor=none;fontSize=16;" parent="WIyWlLk6GJQsqaUBKTNV-1" vertex="1">
          <mxGeometry x="2340" y="1480" width="30" height="30" as="geometry" />
        </mxCell>
        <mxCell id="4NAL1XkJ4b_aBACoTBwn-87" value="1" style="text;html=1;align=center;verticalAlign=middle;resizable=0;points=[];autosize=1;strokeColor=none;fillColor=none;fontSize=16;" parent="WIyWlLk6GJQsqaUBKTNV-1" vertex="1">
          <mxGeometry x="2270" y="1470" width="30" height="30" as="geometry" />
        </mxCell>
        <mxCell id="4NAL1XkJ4b_aBACoTBwn-88" value="" style="endArrow=diamondThin;endFill=0;endSize=24;html=1;fontSize=12;curved=1;entryX=1.006;entryY=0.006;entryDx=0;entryDy=0;entryPerimeter=0;exitX=-0.004;exitY=-0.155;exitDx=0;exitDy=0;exitPerimeter=0;" parent="WIyWlLk6GJQsqaUBKTNV-1" source="F41nxcX5hdtxwhOi84b6-7" target="4ze2XtRtzKSnxw6VI-vd-11" edge="1">
          <mxGeometry width="160" relative="1" as="geometry">
            <mxPoint x="2170" y="1540" as="sourcePoint" />
            <mxPoint x="2330" y="1540" as="targetPoint" />
          </mxGeometry>
        </mxCell>
        <mxCell id="4NAL1XkJ4b_aBACoTBwn-89" value="" style="endArrow=none;html=1;fontSize=12;startSize=8;endSize=8;curved=0;exitX=0.25;exitY=0;exitDx=0;exitDy=0;entryX=0.25;entryY=0;entryDx=0;entryDy=0;rounded=0;" parent="WIyWlLk6GJQsqaUBKTNV-1" source="4ze2XtRtzKSnxw6VI-vd-179" target="4ze2XtRtzKSnxw6VI-vd-168" edge="1">
          <mxGeometry width="50" height="50" relative="1" as="geometry">
            <mxPoint x="330" y="220" as="sourcePoint" />
            <mxPoint x="1820" y="520" as="targetPoint" />
            <Array as="points">
              <mxPoint x="210" y="-270" />
              <mxPoint x="-230" y="-270" />
              <mxPoint x="-240" y="530" />
              <mxPoint x="2253" y="540" />
            </Array>
          </mxGeometry>
        </mxCell>
        <mxCell id="4NAL1XkJ4b_aBACoTBwn-90" value="utilizes methods" style="text;html=1;align=center;verticalAlign=middle;resizable=0;points=[];autosize=1;strokeColor=none;fillColor=none;fontSize=16;" parent="WIyWlLk6GJQsqaUBKTNV-1" vertex="1">
          <mxGeometry x="50" y="500" width="130" height="30" as="geometry" />
        </mxCell>
        <mxCell id="4ze2XtRtzKSnxw6VI-vd-205" value="Notifier" style="swimlane;fontStyle=1;align=center;verticalAlign=top;childLayout=stackLayout;horizontal=1;startSize=26;horizontalStack=0;resizeParent=1;resizeParentMax=0;resizeLast=0;collapsible=1;marginBottom=0;whiteSpace=wrap;html=1;rounded=0;" parent="WIyWlLk6GJQsqaUBKTNV-1" vertex="1">
          <mxGeometry x="1000" y="2260" width="410" height="260" as="geometry" />
        </mxCell>
        <mxCell id="4ze2XtRtzKSnxw6VI-vd-206" value="&lt;div&gt;- context: Context&lt;/div&gt;&lt;div&gt;- db: FirebaseFirestore&lt;/div&gt;&lt;div&gt;- notifier: Notifier&lt;/div&gt;" style="text;strokeColor=none;fillColor=none;align=left;verticalAlign=top;spacingLeft=4;spacingRight=4;overflow=hidden;rotatable=0;points=[[0,0.5],[1,0.5]];portConstraint=eastwest;whiteSpace=wrap;html=1;rounded=0;" parent="4ze2XtRtzKSnxw6VI-vd-205" vertex="1">
          <mxGeometry y="26" width="410" height="64" as="geometry" />
        </mxCell>
        <mxCell id="4ze2XtRtzKSnxw6VI-vd-207" value="" style="line;strokeWidth=1;fillColor=none;align=left;verticalAlign=middle;spacingTop=-1;spacingLeft=3;spacingRight=3;rotatable=0;labelPosition=right;points=[];portConstraint=eastwest;strokeColor=inherit;rounded=0;" parent="4ze2XtRtzKSnxw6VI-vd-205" vertex="1">
          <mxGeometry y="90" width="410" height="8" as="geometry" />
        </mxCell>
        <mxCell id="4ze2XtRtzKSnxw6VI-vd-208" value="&lt;div&gt;+ getInstance(context: Context): Notifier&lt;/div&gt;&lt;div&gt;+ notifyUsers(attendees: ArrayList&amp;lt;Map.Entry&amp;lt;String, Long&amp;gt;&amp;gt;, text: String[], event: String): void&lt;/div&gt;&lt;div&gt;- getToken(userID: String, title: String, body: String, event: String): void&lt;/div&gt;&lt;div&gt;+ prompt(context: Context, listener: OnInputListener): void&lt;/div&gt;&lt;div&gt;- findOrganizer(eventID: String, users: int): void&lt;/div&gt;&lt;div&gt;+ milestoneNotification(eventID: String, milestone: int): void&lt;/div&gt;&lt;div&gt;- notify(token: String, titleText: String, bodyText: String, eventID: String): void&lt;/div&gt;" style="text;strokeColor=none;fillColor=none;align=left;verticalAlign=top;spacingLeft=4;spacingRight=4;overflow=hidden;rotatable=0;points=[[0,0.5],[1,0.5]];portConstraint=eastwest;whiteSpace=wrap;html=1;rounded=0;" parent="4ze2XtRtzKSnxw6VI-vd-205" vertex="1">
          <mxGeometry y="98" width="410" height="162" as="geometry" />
        </mxCell>
        <mxCell id="EKnC79zXnXjXxToJCydo-0" value="MyFirebaseMessagingService" style="swimlane;fontStyle=1;align=center;verticalAlign=top;childLayout=stackLayout;horizontal=1;startSize=26;horizontalStack=0;resizeParent=1;resizeParentMax=0;resizeLast=0;collapsible=1;marginBottom=0;whiteSpace=wrap;html=1;rounded=0;" vertex="1" parent="WIyWlLk6GJQsqaUBKTNV-1">
          <mxGeometry x="2360" y="960" width="410" height="160" as="geometry" />
        </mxCell>
        <mxCell id="EKnC79zXnXjXxToJCydo-1" value="- ACTION_BROADCAST: String" style="text;strokeColor=none;fillColor=none;align=left;verticalAlign=top;spacingLeft=4;spacingRight=4;overflow=hidden;rotatable=0;points=[[0,0.5],[1,0.5]];portConstraint=eastwest;whiteSpace=wrap;html=1;rounded=0;" vertex="1" parent="EKnC79zXnXjXxToJCydo-0">
          <mxGeometry y="26" width="410" height="34" as="geometry" />
        </mxCell>
        <mxCell id="EKnC79zXnXjXxToJCydo-2" value="" style="line;strokeWidth=1;fillColor=none;align=left;verticalAlign=middle;spacingTop=-1;spacingLeft=3;spacingRight=3;rotatable=0;labelPosition=right;points=[];portConstraint=eastwest;strokeColor=inherit;rounded=0;" vertex="1" parent="EKnC79zXnXjXxToJCydo-0">
          <mxGeometry y="60" width="410" height="8" as="geometry" />
        </mxCell>
        <mxCell id="EKnC79zXnXjXxToJCydo-3" value="&lt;div&gt;+ onNewToken(token: String): void&lt;/div&gt;&lt;div&gt;+ onMessageReceived(remoteMessage: RemoteMessage): void&lt;/div&gt;&lt;div&gt;- sendNotification(title: String, messageBody: String, eventID: String): void&lt;/div&gt;&lt;div&gt;- store(title: String, messageBody: String, eventID: String): void&lt;/div&gt;&lt;div&gt;- broadcast(messageBody: String): void&lt;/div&gt;" style="text;strokeColor=none;fillColor=none;align=left;verticalAlign=top;spacingLeft=4;spacingRight=4;overflow=hidden;rotatable=0;points=[[0,0.5],[1,0.5]];portConstraint=eastwest;whiteSpace=wrap;html=1;rounded=0;" vertex="1" parent="EKnC79zXnXjXxToJCydo-0">
          <mxGeometry y="68" width="410" height="92" as="geometry" />
        </mxCell>
        <mxCell id="EKnC79zXnXjXxToJCydo-4" value="" style="endArrow=none;html=1;rounded=0;entryX=0.713;entryY=1.023;entryDx=0;entryDy=0;entryPerimeter=0;exitX=0.069;exitY=-0.019;exitDx=0;exitDy=0;exitPerimeter=0;" edge="1" parent="WIyWlLk6GJQsqaUBKTNV-1" source="EKnC79zXnXjXxToJCydo-0" target="4ze2XtRtzKSnxw6VI-vd-171">
          <mxGeometry width="50" height="50" relative="1" as="geometry">
            <mxPoint x="2170" y="970" as="sourcePoint" />
            <mxPoint x="2220" y="920" as="targetPoint" />
          </mxGeometry>
        </mxCell>
        <mxCell id="EKnC79zXnXjXxToJCydo-6" value="CreateEventActivityBrowsePastEvent" style="swimlane;fontStyle=1;align=center;verticalAlign=top;childLayout=stackLayout;horizontal=1;startSize=26;horizontalStack=0;resizeParent=1;resizeParentMax=0;resizeLast=0;collapsible=1;marginBottom=0;whiteSpace=wrap;html=1;rounded=0;" vertex="1" parent="WIyWlLk6GJQsqaUBKTNV-1">
          <mxGeometry x="2770" y="1448" width="320" height="184" as="geometry" />
        </mxCell>
        <mxCell id="EKnC79zXnXjXxToJCydo-7" value="&lt;div&gt;- db: FirebaseFirestore&lt;/div&gt;&lt;div&gt;- eventsRef: CollectionReference&lt;/div&gt;&lt;div&gt;- userid: String&lt;/div&gt;&lt;div&gt;- username: String&lt;/div&gt;&lt;div&gt;- eventList: ListView&lt;/div&gt;&lt;div&gt;- eventArrayAdapter: EventArrayAdapter&lt;/div&gt;&lt;div&gt;- eventDataList: ArrayList&amp;lt;Event&amp;gt;&lt;/div&gt;" style="text;strokeColor=none;fillColor=none;align=left;verticalAlign=top;spacingLeft=4;spacingRight=4;overflow=hidden;rotatable=0;points=[[0,0.5],[1,0.5]];portConstraint=eastwest;whiteSpace=wrap;html=1;rounded=0;" vertex="1" parent="EKnC79zXnXjXxToJCydo-6">
          <mxGeometry y="26" width="320" height="124" as="geometry" />
        </mxCell>
        <mxCell id="EKnC79zXnXjXxToJCydo-8" value="" style="line;strokeWidth=1;fillColor=none;align=left;verticalAlign=middle;spacingTop=-1;spacingLeft=3;spacingRight=3;rotatable=0;labelPosition=right;points=[];portConstraint=eastwest;strokeColor=inherit;rounded=0;" vertex="1" parent="EKnC79zXnXjXxToJCydo-6">
          <mxGeometry y="150" width="320" height="8" as="geometry" />
        </mxCell>
        <mxCell id="EKnC79zXnXjXxToJCydo-9" value="+ onCreate(savedInstanceState: Bundle) : void" style="text;strokeColor=none;fillColor=none;align=left;verticalAlign=top;spacingLeft=4;spacingRight=4;overflow=hidden;rotatable=0;points=[[0,0.5],[1,0.5]];portConstraint=eastwest;whiteSpace=wrap;html=1;rounded=0;" vertex="1" parent="EKnC79zXnXjXxToJCydo-6">
          <mxGeometry y="158" width="320" height="26" as="geometry" />
        </mxCell>
        <mxCell id="EKnC79zXnXjXxToJCydo-10" value="" style="endArrow=none;html=1;rounded=0;exitX=0.999;exitY=-0.012;exitDx=0;exitDy=0;exitPerimeter=0;entryX=-0.001;entryY=0.404;entryDx=0;entryDy=0;entryPerimeter=0;" edge="1" parent="WIyWlLk6GJQsqaUBKTNV-1" source="F41nxcX5hdtxwhOi84b6-7" target="EKnC79zXnXjXxToJCydo-7">
          <mxGeometry width="50" height="50" relative="1" as="geometry">
            <mxPoint x="2800" y="1460" as="sourcePoint" />
            <mxPoint x="2850" y="1410" as="targetPoint" />
          </mxGeometry>
        </mxCell>
        <mxCell id="EKnC79zXnXjXxToJCydo-11" value="" style="endArrow=diamondThin;endFill=1;endSize=24;html=1;rounded=0;entryX=1;entryY=0.5;entryDx=0;entryDy=0;exitX=0.525;exitY=0.005;exitDx=0;exitDy=0;exitPerimeter=0;" edge="1" parent="WIyWlLk6GJQsqaUBKTNV-1" source="4ze2XtRtzKSnxw6VI-vd-205" target="4ze2XtRtzKSnxw6VI-vd-81">
          <mxGeometry width="160" relative="1" as="geometry">
            <mxPoint x="1210" y="1873" as="sourcePoint" />
            <mxPoint x="730" y="2030" as="targetPoint" />
            <Array as="points">
              <mxPoint x="1215" y="1873" />
            </Array>
          </mxGeometry>
        </mxCell>
        <mxCell id="EKnC79zXnXjXxToJCydo-12" value="&lt;b&gt;&lt;font style=&quot;font-size: 16px;&quot;&gt;Has instance&lt;/font&gt;&lt;/b&gt;" style="text;html=1;align=center;verticalAlign=middle;resizable=0;points=[];autosize=1;strokeColor=none;fillColor=none;" vertex="1" parent="WIyWlLk6GJQsqaUBKTNV-1">
          <mxGeometry x="1130" y="1840" width="120" height="30" as="geometry" />
        </mxCell>
        <mxCell id="EKnC79zXnXjXxToJCydo-13" value="&lt;font style=&quot;font-size: 16px;&quot;&gt;&lt;b&gt;1&lt;/b&gt;&lt;/font&gt;" style="text;html=1;align=center;verticalAlign=middle;resizable=0;points=[];autosize=1;strokeColor=none;fillColor=none;" vertex="1" parent="WIyWlLk6GJQsqaUBKTNV-1">
          <mxGeometry x="1225" y="2228" width="30" height="30" as="geometry" />
        </mxCell>
        <mxCell id="EKnC79zXnXjXxToJCydo-14" value="1" style="text;html=1;align=center;verticalAlign=middle;resizable=0;points=[];autosize=1;strokeColor=none;fillColor=none;" vertex="1" parent="WIyWlLk6GJQsqaUBKTNV-1">
          <mxGeometry x="1095" y="1828" width="30" height="30" as="geometry" />
        </mxCell>
        <mxCell id="EKnC79zXnXjXxToJCydo-15" value="" style="endArrow=diamondThin;endFill=1;endSize=24;html=1;rounded=0;exitX=0.654;exitY=0.005;exitDx=0;exitDy=0;exitPerimeter=0;" edge="1" parent="WIyWlLk6GJQsqaUBKTNV-1" source="4ze2XtRtzKSnxw6VI-vd-205">
          <mxGeometry width="160" relative="1" as="geometry">
            <mxPoint x="570" y="1890" as="sourcePoint" />
            <mxPoint x="1300" y="1570" as="targetPoint" />
            <Array as="points">
              <mxPoint x="1260" y="1900" />
              <mxPoint x="1300" y="1900" />
            </Array>
          </mxGeometry>
        </mxCell>
        <mxCell id="EKnC79zXnXjXxToJCydo-16" value="1" style="text;html=1;align=center;verticalAlign=middle;resizable=0;points=[];autosize=1;strokeColor=none;fillColor=none;" vertex="1" parent="WIyWlLk6GJQsqaUBKTNV-1">
          <mxGeometry x="1305" y="1588" width="30" height="30" as="geometry" />
        </mxCell>
        <mxCell id="EKnC79zXnXjXxToJCydo-17" value="&lt;font style=&quot;font-size: 16px;&quot;&gt;&lt;b&gt;1&lt;/b&gt;&lt;/font&gt;" style="text;html=1;align=center;verticalAlign=middle;resizable=0;points=[];autosize=1;strokeColor=none;fillColor=none;" vertex="1" parent="WIyWlLk6GJQsqaUBKTNV-1">
          <mxGeometry x="1275" y="2228" width="30" height="30" as="geometry" />
        </mxCell>
        <mxCell id="EKnC79zXnXjXxToJCydo-18" value="&lt;b&gt;&lt;font style=&quot;font-size: 16px;&quot;&gt;Has instance&lt;/font&gt;&lt;/b&gt;" style="text;html=1;align=center;verticalAlign=middle;resizable=0;points=[];autosize=1;strokeColor=none;fillColor=none;" vertex="1" parent="WIyWlLk6GJQsqaUBKTNV-1">
          <mxGeometry x="1230" y="1723.5" width="120" height="30" as="geometry" />
        </mxCell>
        <mxCell id="EKnC79zXnXjXxToJCydo-19" value="&lt;b&gt;&lt;font style=&quot;font-size: 16px;&quot;&gt;Has instance&lt;/font&gt;&lt;/b&gt;" style="text;html=1;align=center;verticalAlign=middle;resizable=0;points=[];autosize=1;strokeColor=none;fillColor=none;" vertex="1" parent="WIyWlLk6GJQsqaUBKTNV-1">
          <mxGeometry x="852.5" y="2338" width="120" height="30" as="geometry" />
        </mxCell>
        <mxCell id="EKnC79zXnXjXxToJCydo-20" value="" style="endArrow=diamondThin;endFill=1;endSize=24;html=1;rounded=0;entryX=1;entryY=0.5;entryDx=0;entryDy=0;exitX=-0.004;exitY=0.17;exitDx=0;exitDy=0;exitPerimeter=0;" edge="1" parent="WIyWlLk6GJQsqaUBKTNV-1" source="4ze2XtRtzKSnxw6VI-vd-208" target="4ze2XtRtzKSnxw6VI-vd-197">
          <mxGeometry width="160" relative="1" as="geometry">
            <mxPoint x="570" y="2170" as="sourcePoint" />
            <mxPoint x="730" y="2170" as="targetPoint" />
          </mxGeometry>
        </mxCell>
        <mxCell id="EKnC79zXnXjXxToJCydo-21" value="&lt;font style=&quot;font-size: 16px;&quot;&gt;&lt;b&gt;1&lt;/b&gt;&lt;/font&gt;" style="text;html=1;align=center;verticalAlign=middle;resizable=0;points=[];autosize=1;strokeColor=none;fillColor=none;" vertex="1" parent="WIyWlLk6GJQsqaUBKTNV-1">
          <mxGeometry x="810" y="2350" width="30" height="30" as="geometry" />
        </mxCell>
        <mxCell id="EKnC79zXnXjXxToJCydo-22" value="&lt;font style=&quot;font-size: 16px;&quot;&gt;&lt;b&gt;1&lt;/b&gt;&lt;/font&gt;" style="text;html=1;align=center;verticalAlign=middle;resizable=0;points=[];autosize=1;strokeColor=none;fillColor=none;" vertex="1" parent="WIyWlLk6GJQsqaUBKTNV-1">
          <mxGeometry x="970" y="2400" width="30" height="30" as="geometry" />
        </mxCell>
        <mxCell id="EKnC79zXnXjXxToJCydo-23" value="AppDataHolder" style="swimlane;fontStyle=1;align=center;verticalAlign=top;childLayout=stackLayout;horizontal=1;startSize=26;horizontalStack=0;resizeParent=1;resizeParentMax=0;resizeLast=0;collapsible=1;marginBottom=0;whiteSpace=wrap;html=1;rounded=0;" vertex="1" parent="WIyWlLk6GJQsqaUBKTNV-1">
          <mxGeometry x="2000" y="-240" width="360" height="380" as="geometry" />
        </mxCell>
        <mxCell id="EKnC79zXnXjXxToJCydo-24" value="&lt;div&gt;- currentUser: User&lt;/div&gt;&lt;div&gt;- instance: AppDataHolder&lt;/div&gt;&lt;div&gt;- browseEvents: ArrayList&amp;lt;Event&amp;gt;&lt;/div&gt;&lt;div&gt;- attendeeEvents: ArrayList&amp;lt;Event&amp;gt;&lt;/div&gt;&lt;div&gt;- organizerEvents: ArrayList&amp;lt;Event&amp;gt;&lt;/div&gt;&lt;div&gt;- pastEvents: ArrayList&amp;lt;Event&amp;gt;&lt;/div&gt;" style="text;strokeColor=none;fillColor=none;align=left;verticalAlign=top;spacingLeft=4;spacingRight=4;overflow=hidden;rotatable=0;points=[[0,0.5],[1,0.5]];portConstraint=eastwest;whiteSpace=wrap;html=1;rounded=0;" vertex="1" parent="EKnC79zXnXjXxToJCydo-23">
          <mxGeometry y="26" width="360" height="104" as="geometry" />
        </mxCell>
        <mxCell id="EKnC79zXnXjXxToJCydo-25" value="" style="line;strokeWidth=1;fillColor=none;align=left;verticalAlign=middle;spacingTop=-1;spacingLeft=3;spacingRight=3;rotatable=0;labelPosition=right;points=[];portConstraint=eastwest;strokeColor=inherit;rounded=0;" vertex="1" parent="EKnC79zXnXjXxToJCydo-23">
          <mxGeometry y="130" width="360" height="8" as="geometry" />
        </mxCell>
        <mxCell id="EKnC79zXnXjXxToJCydo-26" value="&lt;div&gt;+ getInstance(): AppDataHolder&lt;/div&gt;&lt;div&gt;+ getCurrentUser(context: Context): User&lt;/div&gt;&lt;div&gt;+ loadData(context: Context): void&lt;/div&gt;&lt;div&gt;+ loadBrowseEvents(context: Context): void&lt;/div&gt;&lt;div&gt;+ loadAttendeeEvents(context: Context): void&lt;/div&gt;&lt;div&gt;+ loadOrganizerEvents(context: Context): void&lt;/div&gt;&lt;div&gt;+ loadPastEvents(context: Context): void&lt;/div&gt;&lt;div&gt;+ getBrowseEvents(context: Context): ArrayList&amp;lt;Event&amp;gt;&lt;/div&gt;&lt;div&gt;+ getAttendeeEvents(context: Context): ArrayList&amp;lt;Event&amp;gt;&lt;/div&gt;&lt;div&gt;+ getOrganizerEvents(context: Context): ArrayList&amp;lt;Event&amp;gt;&lt;/div&gt;&lt;div&gt;+ getPastEvents(context: Context): ArrayList&amp;lt;Event&amp;gt;&lt;/div&gt;&lt;div&gt;+ loadOrganizerEventToLocal(events: ArrayList&amp;lt;Event&amp;gt;, context: Context): void&lt;/div&gt;&lt;div&gt;+ fetchAndUpdateUserInfo(userId: String, context: Context): void&lt;/div&gt;&lt;div&gt;+ fetchAndLoadBrowseEvents(context: Context): void&lt;/div&gt;" style="text;strokeColor=none;fillColor=none;align=left;verticalAlign=top;spacingLeft=4;spacingRight=4;overflow=hidden;rotatable=0;points=[[0,0.5],[1,0.5]];portConstraint=eastwest;whiteSpace=wrap;html=1;rounded=0;" vertex="1" parent="EKnC79zXnXjXxToJCydo-23">
          <mxGeometry y="138" width="360" height="242" as="geometry" />
        </mxCell>
        <mxCell id="EKnC79zXnXjXxToJCydo-27" value="" style="endArrow=none;html=1;rounded=0;entryX=0.995;entryY=0.002;entryDx=0;entryDy=0;entryPerimeter=0;exitX=0.545;exitY=-0.006;exitDx=0;exitDy=0;exitPerimeter=0;" edge="1" parent="WIyWlLk6GJQsqaUBKTNV-1" source="4ze2XtRtzKSnxw6VI-vd-92" target="EKnC79zXnXjXxToJCydo-26">
          <mxGeometry width="50" height="50" relative="1" as="geometry">
            <mxPoint x="2960" y="-94" as="sourcePoint" />
            <mxPoint x="2220" y="290" as="targetPoint" />
            <Array as="points">
              <mxPoint x="2960" y="-100" />
            </Array>
          </mxGeometry>
        </mxCell>
        <mxCell id="EKnC79zXnXjXxToJCydo-28" value="" style="endArrow=none;html=1;rounded=0;entryX=0;entryY=0.5;entryDx=0;entryDy=0;exitX=0.915;exitY=0.006;exitDx=0;exitDy=0;exitPerimeter=0;" edge="1" parent="WIyWlLk6GJQsqaUBKTNV-1" source="4ze2XtRtzKSnxw6VI-vd-522" target="EKnC79zXnXjXxToJCydo-26">
          <mxGeometry width="50" height="50" relative="1" as="geometry">
            <mxPoint x="2170" y="340" as="sourcePoint" />
            <mxPoint x="2220" y="290" as="targetPoint" />
            <Array as="points">
              <mxPoint x="1525" y="10" />
              <mxPoint x="1998" y="10" />
            </Array>
          </mxGeometry>
        </mxCell>
        <mxCell id="EKnC79zXnXjXxToJCydo-29" value="" style="endArrow=none;html=1;rounded=0;entryX=0.194;entryY=1.023;entryDx=0;entryDy=0;entryPerimeter=0;exitX=0.654;exitY=0.002;exitDx=0;exitDy=0;exitPerimeter=0;" edge="1" parent="WIyWlLk6GJQsqaUBKTNV-1" source="4ze2XtRtzKSnxw6VI-vd-88" target="EKnC79zXnXjXxToJCydo-26">
          <mxGeometry width="50" height="50" relative="1" as="geometry">
            <mxPoint x="2170" y="480" as="sourcePoint" />
            <mxPoint x="2220" y="430" as="targetPoint" />
            <Array as="points">
              <mxPoint x="1970" y="460" />
              <mxPoint x="2070" y="460" />
            </Array>
          </mxGeometry>
        </mxCell>
        <mxCell id="EKnC79zXnXjXxToJCydo-30" value="" style="endArrow=none;html=1;rounded=0;entryX=-0.013;entryY=0.592;entryDx=0;entryDy=0;entryPerimeter=0;" edge="1" parent="WIyWlLk6GJQsqaUBKTNV-1" source="4ze2XtRtzKSnxw6VI-vd-517" target="EKnC79zXnXjXxToJCydo-26">
          <mxGeometry width="50" height="50" relative="1" as="geometry">
            <mxPoint x="2170" y="480" as="sourcePoint" />
            <mxPoint x="2220" y="430" as="targetPoint" />
            <Array as="points">
              <mxPoint x="1610" y="820" />
              <mxPoint x="1740" y="820" />
              <mxPoint x="1740" y="41" />
            </Array>
          </mxGeometry>
        </mxCell>
        <mxCell id="EKnC79zXnXjXxToJCydo-31" value="NotificationAdapter" style="swimlane;fontStyle=1;align=center;verticalAlign=top;childLayout=stackLayout;horizontal=1;startSize=26;horizontalStack=0;resizeParent=1;resizeParentMax=0;resizeLast=0;collapsible=1;marginBottom=0;whiteSpace=wrap;html=1;rounded=0;" vertex="1" parent="WIyWlLk6GJQsqaUBKTNV-1">
          <mxGeometry x="2420" y="20" width="270" height="130" as="geometry" />
        </mxCell>
        <mxCell id="EKnC79zXnXjXxToJCydo-32" value="" style="line;strokeWidth=1;fillColor=none;align=left;verticalAlign=middle;spacingTop=-1;spacingLeft=3;spacingRight=3;rotatable=0;labelPosition=right;points=[];portConstraint=eastwest;strokeColor=inherit;rounded=0;" vertex="1" parent="EKnC79zXnXjXxToJCydo-31">
          <mxGeometry y="26" width="270" height="8" as="geometry" />
        </mxCell>
        <mxCell id="EKnC79zXnXjXxToJCydo-33" value="&lt;div&gt;+ NotificationAdapter(context: Context, notifications: List&amp;lt;NotificationDetail&amp;gt;)&lt;/div&gt;&lt;div&gt;+ getView(position: int, convertView: View, parent: ViewGroup): View&lt;/div&gt;&lt;div&gt;- DownloadImageTask extends AsyncTask&amp;lt;String, Void, Bitmap&amp;gt;&lt;/div&gt;" style="text;strokeColor=none;fillColor=none;align=left;verticalAlign=top;spacingLeft=4;spacingRight=4;overflow=hidden;rotatable=0;points=[[0,0.5],[1,0.5]];portConstraint=eastwest;whiteSpace=wrap;html=1;rounded=0;" vertex="1" parent="EKnC79zXnXjXxToJCydo-31">
          <mxGeometry y="34" width="270" height="96" as="geometry" />
        </mxCell>
        <mxCell id="EKnC79zXnXjXxToJCydo-34" value="" style="endArrow=diamondThin;endFill=0;endSize=24;html=1;rounded=0;entryX=0.75;entryY=0;entryDx=0;entryDy=0;exitX=0.056;exitY=1;exitDx=0;exitDy=0;exitPerimeter=0;" edge="1" parent="WIyWlLk6GJQsqaUBKTNV-1" source="EKnC79zXnXjXxToJCydo-33" target="4ze2XtRtzKSnxw6VI-vd-512">
          <mxGeometry width="160" relative="1" as="geometry">
            <mxPoint x="2340" y="170" as="sourcePoint" />
            <mxPoint x="2500" y="170" as="targetPoint" />
          </mxGeometry>
        </mxCell>
        <mxCell id="EKnC79zXnXjXxToJCydo-35" value="1" style="text;html=1;align=center;verticalAlign=middle;resizable=0;points=[];autosize=1;strokeColor=none;fillColor=none;fontSize=16;" vertex="1" parent="WIyWlLk6GJQsqaUBKTNV-1">
          <mxGeometry x="2440" y="160" width="30" height="30" as="geometry" />
        </mxCell>
        <mxCell id="EKnC79zXnXjXxToJCydo-36" value="1" style="text;html=1;align=center;verticalAlign=middle;resizable=0;points=[];autosize=1;strokeColor=none;fillColor=none;fontSize=16;" vertex="1" parent="WIyWlLk6GJQsqaUBKTNV-1">
          <mxGeometry x="2440" y="244" width="30" height="30" as="geometry" />
        </mxCell>
        <mxCell id="EKnC79zXnXjXxToJCydo-39" value="EventFetcher" style="swimlane;fontStyle=1;align=center;verticalAlign=top;childLayout=stackLayout;horizontal=1;startSize=26;horizontalStack=0;resizeParent=1;resizeParentMax=0;resizeLast=0;collapsible=1;marginBottom=0;whiteSpace=wrap;html=1;rounded=0;" vertex="1" parent="WIyWlLk6GJQsqaUBKTNV-1">
          <mxGeometry x="2810" y="-360" width="270" height="190" as="geometry" />
        </mxCell>
        <mxCell id="EKnC79zXnXjXxToJCydo-40" value="&lt;div&gt;- eventArrayAdapter: EventArrayAdapter&lt;/div&gt;&lt;div&gt;- context: Context&lt;/div&gt;" style="text;strokeColor=none;fillColor=none;align=left;verticalAlign=top;spacingLeft=4;spacingRight=4;overflow=hidden;rotatable=0;points=[[0,0.5],[1,0.5]];portConstraint=eastwest;whiteSpace=wrap;html=1;rounded=0;" vertex="1" parent="EKnC79zXnXjXxToJCydo-39">
          <mxGeometry y="26" width="270" height="44" as="geometry" />
        </mxCell>
        <mxCell id="EKnC79zXnXjXxToJCydo-41" value="" style="line;strokeWidth=1;fillColor=none;align=left;verticalAlign=middle;spacingTop=-1;spacingLeft=3;spacingRight=3;rotatable=0;labelPosition=right;points=[];portConstraint=eastwest;strokeColor=inherit;rounded=0;" vertex="1" parent="EKnC79zXnXjXxToJCydo-39">
          <mxGeometry y="70" width="270" height="8" as="geometry" />
        </mxCell>
        <mxCell id="EKnC79zXnXjXxToJCydo-42" value="&lt;div&gt;+ EventFetcher(eventArrayAdapter: EventArrayAdapter, context: Context)&lt;/div&gt;&lt;div&gt;+ fetchOrganizerEvents(): ArrayList&amp;lt;Event&amp;gt;&lt;/div&gt;&lt;div&gt;+ fetchAttendeeEvents(): void&lt;/div&gt;&lt;div&gt;+ fetchBrowseEvents(): void&lt;/div&gt;&lt;div&gt;- updateAdapter(events: ArrayList&amp;lt;Event&amp;gt;): void&lt;/div&gt;" style="text;strokeColor=none;fillColor=none;align=left;verticalAlign=top;spacingLeft=4;spacingRight=4;overflow=hidden;rotatable=0;points=[[0,0.5],[1,0.5]];portConstraint=eastwest;whiteSpace=wrap;html=1;rounded=0;" vertex="1" parent="EKnC79zXnXjXxToJCydo-39">
          <mxGeometry y="78" width="270" height="112" as="geometry" />
        </mxCell>
        <mxCell id="EKnC79zXnXjXxToJCydo-43" value="LocalEventsStorage" style="swimlane;fontStyle=1;align=center;verticalAlign=top;childLayout=stackLayout;horizontal=1;startSize=26;horizontalStack=0;resizeParent=1;resizeParentMax=0;resizeLast=0;collapsible=1;marginBottom=0;whiteSpace=wrap;html=1;rounded=0;" vertex="1" parent="WIyWlLk6GJQsqaUBKTNV-1">
          <mxGeometry x="3330" y="-370" width="440" height="80" as="geometry" />
        </mxCell>
        <mxCell id="EKnC79zXnXjXxToJCydo-44" value="" style="line;strokeWidth=1;fillColor=none;align=left;verticalAlign=middle;spacingTop=-1;spacingLeft=3;spacingRight=3;rotatable=0;labelPosition=right;points=[];portConstraint=eastwest;strokeColor=inherit;rounded=0;" vertex="1" parent="EKnC79zXnXjXxToJCydo-43">
          <mxGeometry y="26" width="440" height="8" as="geometry" />
        </mxCell>
        <mxCell id="EKnC79zXnXjXxToJCydo-45" value="&lt;div&gt;+ saveEvents(context: Context, events: ArrayList&amp;lt;Event&amp;gt;, fileName: String): void&lt;/div&gt;&lt;div&gt;+ loadEvents(context: Context, fileName: String): ArrayList&amp;lt;Event&amp;gt;&lt;/div&gt;" style="text;strokeColor=none;fillColor=none;align=left;verticalAlign=top;spacingLeft=4;spacingRight=4;overflow=hidden;rotatable=0;points=[[0,0.5],[1,0.5]];portConstraint=eastwest;whiteSpace=wrap;html=1;rounded=0;" vertex="1" parent="EKnC79zXnXjXxToJCydo-43">
          <mxGeometry y="34" width="440" height="46" as="geometry" />
        </mxCell>
        <mxCell id="EKnC79zXnXjXxToJCydo-46" value="" style="endArrow=none;html=1;rounded=0;exitX=1;exitY=0.5;exitDx=0;exitDy=0;" edge="1" parent="WIyWlLk6GJQsqaUBKTNV-1" source="EKnC79zXnXjXxToJCydo-40" target="EKnC79zXnXjXxToJCydo-45">
          <mxGeometry width="50" height="50" relative="1" as="geometry">
            <mxPoint x="3190" y="-280" as="sourcePoint" />
            <mxPoint x="3240" y="-330" as="targetPoint" />
          </mxGeometry>
        </mxCell>
        <mxCell id="EKnC79zXnXjXxToJCydo-47" value="&lt;font style=&quot;font-size: 16px;&quot;&gt;&lt;b&gt;Fetches&lt;/b&gt;&lt;/font&gt;" style="text;html=1;align=center;verticalAlign=middle;resizable=0;points=[];autosize=1;strokeColor=none;fillColor=none;" vertex="1" parent="WIyWlLk6GJQsqaUBKTNV-1">
          <mxGeometry x="3160" y="-355" width="80" height="30" as="geometry" />
        </mxCell>
        <mxCell id="EKnC79zXnXjXxToJCydo-49" value="" style="endArrow=diamondThin;endFill=0;endSize=24;html=1;rounded=0;entryX=1.003;entryY=0.394;entryDx=0;entryDy=0;entryPerimeter=0;exitX=-0.001;exitY=0.272;exitDx=0;exitDy=0;exitPerimeter=0;" edge="1" parent="WIyWlLk6GJQsqaUBKTNV-1" source="EKnC79zXnXjXxToJCydo-42" target="EKnC79zXnXjXxToJCydo-24">
          <mxGeometry width="160" relative="1" as="geometry">
            <mxPoint x="2800" as="sourcePoint" />
            <mxPoint x="2960" as="targetPoint" />
            <Array as="points">
              <mxPoint x="2590" y="-250" />
              <mxPoint x="2590" y="-173" />
            </Array>
          </mxGeometry>
        </mxCell>
        <mxCell id="EKnC79zXnXjXxToJCydo-50" value="1" style="text;html=1;align=center;verticalAlign=middle;resizable=0;points=[];autosize=1;strokeColor=none;fillColor=none;" vertex="1" parent="WIyWlLk6GJQsqaUBKTNV-1">
          <mxGeometry x="2365" y="-212" width="30" height="30" as="geometry" />
        </mxCell>
        <mxCell id="EKnC79zXnXjXxToJCydo-51" value="1" style="text;html=1;align=center;verticalAlign=middle;resizable=0;points=[];autosize=1;strokeColor=none;fillColor=none;" vertex="1" parent="WIyWlLk6GJQsqaUBKTNV-1">
          <mxGeometry x="2785" y="-292" width="30" height="30" as="geometry" />
        </mxCell>
        <mxCell id="EKnC79zXnXjXxToJCydo-52" value="" style="endArrow=none;html=1;rounded=0;exitX=0.892;exitY=0.005;exitDx=0;exitDy=0;exitPerimeter=0;entryX=0.545;entryY=1.09;entryDx=0;entryDy=0;entryPerimeter=0;" edge="1" parent="WIyWlLk6GJQsqaUBKTNV-1" source="4ze2XtRtzKSnxw6VI-vd-92" target="EKnC79zXnXjXxToJCydo-45">
          <mxGeometry width="50" height="50" relative="1" as="geometry">
            <mxPoint x="2860" y="30" as="sourcePoint" />
            <mxPoint x="2910" y="-20" as="targetPoint" />
            <Array as="points">
              <mxPoint x="3060" y="-110" />
              <mxPoint x="3570" y="-110" />
            </Array>
          </mxGeometry>
        </mxCell>
        <mxCell id="EKnC79zXnXjXxToJCydo-53" value="" style="endArrow=none;html=1;rounded=0;exitX=0.832;exitY=0.006;exitDx=0;exitDy=0;exitPerimeter=0;entryX=0.6;entryY=1.152;entryDx=0;entryDy=0;entryPerimeter=0;" edge="1" parent="WIyWlLk6GJQsqaUBKTNV-1" source="4ze2XtRtzKSnxw6VI-vd-88" target="EKnC79zXnXjXxToJCydo-45">
          <mxGeometry width="50" height="50" relative="1" as="geometry">
            <mxPoint x="2860" y="170" as="sourcePoint" />
            <mxPoint x="3140" y="567" as="targetPoint" />
            <Array as="points">
              <mxPoint x="3600" y="560" />
            </Array>
          </mxGeometry>
        </mxCell>
        <mxCell id="EKnC79zXnXjXxToJCydo-58" value="EventDetailsAttendeeScanActivity" style="swimlane;fontStyle=1;align=center;verticalAlign=top;childLayout=stackLayout;horizontal=1;startSize=26;horizontalStack=0;resizeParent=1;resizeParentMax=0;resizeLast=0;collapsible=1;marginBottom=0;whiteSpace=wrap;html=1;rounded=0;" vertex="1" parent="WIyWlLk6GJQsqaUBKTNV-1">
          <mxGeometry x="110" y="1315" width="300" height="220" as="geometry" />
        </mxCell>
        <mxCell id="EKnC79zXnXjXxToJCydo-59" value="&lt;div&gt;- db: FirebaseFirestore&lt;/div&gt;&lt;div&gt;- eventsRef: CollectionReference&lt;/div&gt;&lt;div&gt;- docRefUser: DocumentReference&lt;/div&gt;&lt;div&gt;- docRefEvent: DocumentReference&lt;/div&gt;&lt;div&gt;- selectedEvent: Event&lt;/div&gt;&lt;div&gt;- eventID: String&lt;/div&gt;&lt;div&gt;- userid: String&lt;/div&gt;" style="text;strokeColor=none;fillColor=none;align=left;verticalAlign=top;spacingLeft=4;spacingRight=4;overflow=hidden;rotatable=0;points=[[0,0.5],[1,0.5]];portConstraint=eastwest;whiteSpace=wrap;html=1;rounded=0;" vertex="1" parent="EKnC79zXnXjXxToJCydo-58">
          <mxGeometry y="26" width="300" height="124" as="geometry" />
        </mxCell>
        <mxCell id="EKnC79zXnXjXxToJCydo-60" value="" style="line;strokeWidth=1;fillColor=none;align=left;verticalAlign=middle;spacingTop=-1;spacingLeft=3;spacingRight=3;rotatable=0;labelPosition=right;points=[];portConstraint=eastwest;strokeColor=inherit;rounded=0;" vertex="1" parent="EKnC79zXnXjXxToJCydo-58">
          <mxGeometry y="150" width="300" height="8" as="geometry" />
        </mxCell>
        <mxCell id="EKnC79zXnXjXxToJCydo-61" value="+ onCreate(savedInstanceState: Bundle) : void&lt;div&gt;&lt;div&gt;+ getDb() : FirebaseFirestore&lt;/div&gt;&lt;div&gt;+ getDocRefEvent() : DocumentReference&lt;/div&gt;&lt;div&gt;&lt;br&gt;&lt;/div&gt;&lt;/div&gt;" style="text;strokeColor=none;fillColor=none;align=left;verticalAlign=top;spacingLeft=4;spacingRight=4;overflow=hidden;rotatable=0;points=[[0,0.5],[1,0.5]];portConstraint=eastwest;whiteSpace=wrap;html=1;rounded=0;" vertex="1" parent="EKnC79zXnXjXxToJCydo-58">
          <mxGeometry y="158" width="300" height="62" as="geometry" />
        </mxCell>
        <mxCell id="EKnC79zXnXjXxToJCydo-63" value="" style="endArrow=none;html=1;rounded=0;exitX=1;exitY=0.5;exitDx=0;exitDy=0;entryX=0.166;entryY=-0.001;entryDx=0;entryDy=0;entryPerimeter=0;" edge="1" parent="WIyWlLk6GJQsqaUBKTNV-1" source="EKnC79zXnXjXxToJCydo-59" target="4ze2XtRtzKSnxw6VI-vd-112">
          <mxGeometry width="50" height="50" relative="1" as="geometry">
            <mxPoint x="520" y="1630" as="sourcePoint" />
            <mxPoint x="1040" y="1403" as="targetPoint" />
            <Array as="points">
              <mxPoint x="1040" y="1400" />
            </Array>
          </mxGeometry>
        </mxCell>
        <mxCell id="EKnC79zXnXjXxToJCydo-64" value="NotificationDetail" style="swimlane;fontStyle=1;align=center;verticalAlign=top;childLayout=stackLayout;horizontal=1;startSize=26;horizontalStack=0;resizeParent=1;resizeParentMax=0;resizeLast=0;collapsible=1;marginBottom=0;whiteSpace=wrap;html=1;rounded=0;" vertex="1" parent="WIyWlLk6GJQsqaUBKTNV-1">
          <mxGeometry x="1720" y="-323" width="250" height="300" as="geometry" />
        </mxCell>
        <mxCell id="EKnC79zXnXjXxToJCydo-65" value="&lt;div&gt;- event: String&lt;/div&gt;&lt;div&gt;- title: String&lt;/div&gt;&lt;div&gt;- body: String&lt;/div&gt;&lt;div&gt;- userID: String&lt;/div&gt;" style="text;strokeColor=none;fillColor=none;align=left;verticalAlign=top;spacingLeft=4;spacingRight=4;overflow=hidden;rotatable=0;points=[[0,0.5],[1,0.5]];portConstraint=eastwest;whiteSpace=wrap;html=1;rounded=0;" vertex="1" parent="EKnC79zXnXjXxToJCydo-64">
          <mxGeometry y="26" width="250" height="84" as="geometry" />
        </mxCell>
        <mxCell id="EKnC79zXnXjXxToJCydo-66" value="" style="line;strokeWidth=1;fillColor=none;align=left;verticalAlign=middle;spacingTop=-1;spacingLeft=3;spacingRight=3;rotatable=0;labelPosition=right;points=[];portConstraint=eastwest;strokeColor=inherit;rounded=0;" vertex="1" parent="EKnC79zXnXjXxToJCydo-64">
          <mxGeometry y="110" width="250" height="8" as="geometry" />
        </mxCell>
        <mxCell id="EKnC79zXnXjXxToJCydo-67" value="&lt;div&gt;+ DeleteDocumentId(): void&lt;/div&gt;&lt;div&gt;+ RemoveFromFirebase(docID: String): void&lt;/div&gt;&lt;div&gt;+ getEvent(): String&lt;/div&gt;&lt;div&gt;+ setEvent(event: String): void&lt;/div&gt;&lt;div&gt;+ getTitle(): String&lt;/div&gt;&lt;div&gt;+ setTitle(title: String): void&lt;/div&gt;&lt;div&gt;+ getBody(): String&lt;/div&gt;&lt;div&gt;+ setBody(body: String): void&lt;/div&gt;&lt;div&gt;+ getPoster(): String&lt;/div&gt;&lt;div&gt;+ delete(): void&lt;/div&gt;" style="text;strokeColor=none;fillColor=none;align=left;verticalAlign=top;spacingLeft=4;spacingRight=4;overflow=hidden;rotatable=0;points=[[0,0.5],[1,0.5]];portConstraint=eastwest;whiteSpace=wrap;html=1;rounded=0;" vertex="1" parent="EKnC79zXnXjXxToJCydo-64">
          <mxGeometry y="118" width="250" height="152" as="geometry" />
        </mxCell>
        <mxCell id="EKnC79zXnXjXxToJCydo-72" value="1" style="text;html=1;align=center;verticalAlign=middle;resizable=0;points=[];autosize=1;strokeColor=none;fillColor=none;fontSize=16;" vertex="1" parent="EKnC79zXnXjXxToJCydo-64">
          <mxGeometry y="270" width="250" height="30" as="geometry" />
        </mxCell>
        <mxCell id="EKnC79zXnXjXxToJCydo-68" value="" style="endArrow=diamondThin;endFill=0;endSize=24;html=1;rounded=0;exitX=0.467;exitY=1.02;exitDx=0;exitDy=0;exitPerimeter=0;entryX=0.25;entryY=0;entryDx=0;entryDy=0;" edge="1" parent="WIyWlLk6GJQsqaUBKTNV-1" source="EKnC79zXnXjXxToJCydo-67" target="4ze2XtRtzKSnxw6VI-vd-512">
          <mxGeometry width="160" relative="1" as="geometry">
            <mxPoint x="2190" y="180" as="sourcePoint" />
            <mxPoint x="2350" y="180" as="targetPoint" />
            <Array as="points">
              <mxPoint x="1840" y="230" />
              <mxPoint x="2285" y="230" />
            </Array>
          </mxGeometry>
        </mxCell>
        <mxCell id="EKnC79zXnXjXxToJCydo-71" value="0...*" style="text;html=1;align=center;verticalAlign=middle;resizable=0;points=[];autosize=1;strokeColor=none;fillColor=none;fontSize=16;" vertex="1" parent="WIyWlLk6GJQsqaUBKTNV-1">
          <mxGeometry x="2310" y="240" width="50" height="30" as="geometry" />
        </mxCell>
        <mxCell id="EKnC79zXnXjXxToJCydo-73" value="LocalUserStorage" style="swimlane;fontStyle=1;align=center;verticalAlign=top;childLayout=stackLayout;horizontal=1;startSize=26;horizontalStack=0;resizeParent=1;resizeParentMax=0;resizeLast=0;collapsible=1;marginBottom=0;whiteSpace=wrap;html=1;rounded=0;" vertex="1" parent="WIyWlLk6GJQsqaUBKTNV-1">
          <mxGeometry x="2850" y="-520" width="260" height="100" as="geometry" />
        </mxCell>
        <mxCell id="EKnC79zXnXjXxToJCydo-74" value="- FILE_NAME: String" style="text;strokeColor=none;fillColor=none;align=left;verticalAlign=top;spacingLeft=4;spacingRight=4;overflow=hidden;rotatable=0;points=[[0,0.5],[1,0.5]];portConstraint=eastwest;whiteSpace=wrap;html=1;rounded=0;" vertex="1" parent="EKnC79zXnXjXxToJCydo-73">
          <mxGeometry y="26" width="260" height="26" as="geometry" />
        </mxCell>
        <mxCell id="EKnC79zXnXjXxToJCydo-75" value="" style="line;strokeWidth=1;fillColor=none;align=left;verticalAlign=middle;spacingTop=-1;spacingLeft=3;spacingRight=3;rotatable=0;labelPosition=right;points=[];portConstraint=eastwest;strokeColor=inherit;rounded=0;" vertex="1" parent="EKnC79zXnXjXxToJCydo-73">
          <mxGeometry y="52" width="260" height="8" as="geometry" />
        </mxCell>
        <mxCell id="EKnC79zXnXjXxToJCydo-76" value="&lt;div&gt;+ saveUser(context: Context, user: User): void&lt;/div&gt;&lt;div&gt;+ loadUser(context: Context): User&lt;/div&gt;" style="text;strokeColor=none;fillColor=none;align=left;verticalAlign=top;spacingLeft=4;spacingRight=4;overflow=hidden;rotatable=0;points=[[0,0.5],[1,0.5]];portConstraint=eastwest;whiteSpace=wrap;html=1;rounded=0;" vertex="1" parent="EKnC79zXnXjXxToJCydo-73">
          <mxGeometry y="60" width="260" height="40" as="geometry" />
        </mxCell>
        <mxCell id="EKnC79zXnXjXxToJCydo-77" value="" style="endArrow=diamondThin;endFill=0;endSize=24;html=1;rounded=0;entryX=1.003;entryY=0.048;entryDx=0;entryDy=0;entryPerimeter=0;exitX=-0.029;exitY=0.918;exitDx=0;exitDy=0;exitPerimeter=0;" edge="1" parent="WIyWlLk6GJQsqaUBKTNV-1" source="EKnC79zXnXjXxToJCydo-74" target="EKnC79zXnXjXxToJCydo-23">
          <mxGeometry width="160" relative="1" as="geometry">
            <mxPoint x="2530" y="-530" as="sourcePoint" />
            <mxPoint x="2690" y="-530" as="targetPoint" />
            <Array as="points">
              <mxPoint x="2760" y="-470" />
              <mxPoint x="2760" y="-280" />
              <mxPoint x="2450" y="-280" />
              <mxPoint x="2450" y="-222" />
            </Array>
          </mxGeometry>
        </mxCell>
        <mxCell id="EKnC79zXnXjXxToJCydo-78" value="NotificationsViewModel" style="swimlane;fontStyle=1;align=center;verticalAlign=top;childLayout=stackLayout;horizontal=1;startSize=26;horizontalStack=0;resizeParent=1;resizeParentMax=0;resizeLast=0;collapsible=1;marginBottom=0;whiteSpace=wrap;html=1;rounded=0;" vertex="1" parent="WIyWlLk6GJQsqaUBKTNV-1">
          <mxGeometry x="900" y="-474" width="260" height="108" as="geometry" />
        </mxCell>
        <mxCell id="EKnC79zXnXjXxToJCydo-79" value="- mText: MutableLiveData&amp;lt;String&amp;gt;" style="text;strokeColor=none;fillColor=none;align=left;verticalAlign=top;spacingLeft=4;spacingRight=4;overflow=hidden;rotatable=0;points=[[0,0.5],[1,0.5]];portConstraint=eastwest;whiteSpace=wrap;html=1;rounded=0;" vertex="1" parent="EKnC79zXnXjXxToJCydo-78">
          <mxGeometry y="26" width="260" height="34" as="geometry" />
        </mxCell>
        <mxCell id="EKnC79zXnXjXxToJCydo-80" value="" style="line;strokeWidth=1;fillColor=none;align=left;verticalAlign=middle;spacingTop=-1;spacingLeft=3;spacingRight=3;rotatable=0;labelPosition=right;points=[];portConstraint=eastwest;strokeColor=inherit;rounded=0;" vertex="1" parent="EKnC79zXnXjXxToJCydo-78">
          <mxGeometry y="60" width="260" height="8" as="geometry" />
        </mxCell>
        <mxCell id="EKnC79zXnXjXxToJCydo-81" value="&lt;div&gt;&lt;div&gt;+ NotificationsViewModel()&lt;/div&gt;&lt;div&gt;+ getText(): LiveData&amp;lt;String&amp;gt;&lt;/div&gt;&lt;/div&gt;" style="text;strokeColor=none;fillColor=none;align=left;verticalAlign=top;spacingLeft=4;spacingRight=4;overflow=hidden;rotatable=0;points=[[0,0.5],[1,0.5]];portConstraint=eastwest;whiteSpace=wrap;html=1;rounded=0;" vertex="1" parent="EKnC79zXnXjXxToJCydo-78">
          <mxGeometry y="68" width="260" height="40" as="geometry" />
        </mxCell>
        <mxCell id="EKnC79zXnXjXxToJCydo-82" value="" style="endArrow=diamondThin;endFill=0;endSize=24;html=1;rounded=0;entryX=-0.001;entryY=-0.088;entryDx=0;entryDy=0;entryPerimeter=0;exitX=0.988;exitY=0.125;exitDx=0;exitDy=0;exitPerimeter=0;" edge="1" parent="WIyWlLk6GJQsqaUBKTNV-1" source="EKnC79zXnXjXxToJCydo-80" target="EKnC79zXnXjXxToJCydo-65">
          <mxGeometry width="160" relative="1" as="geometry">
            <mxPoint x="1730" y="-250" as="sourcePoint" />
            <mxPoint x="1890" y="-250" as="targetPoint" />
            <Array as="points">
              <mxPoint x="1530" y="-410" />
              <mxPoint x="1530" y="-350" />
              <mxPoint x="1630" y="-350" />
              <mxPoint x="1630" y="-304" />
            </Array>
          </mxGeometry>
        </mxCell>
        <mxCell id="EKnC79zXnXjXxToJCydo-83" value="FirestoreManager" style="swimlane;fontStyle=1;align=center;verticalAlign=top;childLayout=stackLayout;horizontal=1;startSize=26;horizontalStack=0;resizeParent=1;resizeParentMax=0;resizeLast=0;collapsible=1;marginBottom=0;whiteSpace=wrap;html=1;rounded=0;" vertex="1" parent="WIyWlLk6GJQsqaUBKTNV-1">
          <mxGeometry x="2330" y="-1070" width="280" height="360" as="geometry" />
        </mxCell>
        <mxCell id="EKnC79zXnXjXxToJCydo-84" value="&lt;div&gt;- instance: FirestoreManager&lt;/div&gt;&lt;div&gt;- db: FirebaseFirestore&lt;/div&gt;&lt;div&gt;- userCollection: String&lt;/div&gt;&lt;div&gt;- eventCollection: String&lt;/div&gt;&lt;div&gt;- qrCodeCollection: String&lt;/div&gt;&lt;div&gt;- userDocRef: String&lt;/div&gt;&lt;div&gt;- eventDocRef: String&lt;/div&gt;&lt;div&gt;- FirestoreManager()&lt;/div&gt;" style="text;strokeColor=none;fillColor=none;align=left;verticalAlign=top;spacingLeft=4;spacingRight=4;overflow=hidden;rotatable=0;points=[[0,0.5],[1,0.5]];portConstraint=eastwest;whiteSpace=wrap;html=1;rounded=0;" vertex="1" parent="EKnC79zXnXjXxToJCydo-83">
          <mxGeometry y="26" width="280" height="134" as="geometry" />
        </mxCell>
        <mxCell id="EKnC79zXnXjXxToJCydo-85" value="" style="line;strokeWidth=1;fillColor=none;align=left;verticalAlign=middle;spacingTop=-1;spacingLeft=3;spacingRight=3;rotatable=0;labelPosition=right;points=[];portConstraint=eastwest;strokeColor=inherit;rounded=0;" vertex="1" parent="EKnC79zXnXjXxToJCydo-83">
          <mxGeometry y="160" width="280" height="8" as="geometry" />
        </mxCell>
        <mxCell id="EKnC79zXnXjXxToJCydo-86" value="&lt;div&gt;+ getInstance(): FirestoreManager&lt;/div&gt;&lt;div&gt;+ setUserCollection(collection: String): void&lt;/div&gt;&lt;div&gt;+ setEventCollection(collection: String): void&lt;/div&gt;&lt;div&gt;+ setUserDocRef(userDocRef: String): void&lt;/div&gt;&lt;div&gt;+ setEventDocRef(eventDocRef: String): void&lt;/div&gt;&lt;div&gt;+ getUserCollection(): CollectionReference&lt;/div&gt;&lt;div&gt;+ getEventCollection(): CollectionReference&lt;/div&gt;&lt;div&gt;+ getQrCodeCollection(): CollectionReference&lt;/div&gt;&lt;div&gt;+ getUserDocRef(): DocumentReference&lt;/div&gt;&lt;div&gt;+ getEventDocRef(): DocumentReference&lt;/div&gt;&lt;div&gt;+ getUserID(): String&lt;/div&gt;&lt;div&gt;+ getEventID(): String&lt;/div&gt;&lt;div&gt;+ getDb(): FirebaseFirestore&lt;/div&gt;&lt;div&gt;&lt;br&gt;&lt;/div&gt;" style="text;strokeColor=none;fillColor=none;align=left;verticalAlign=top;spacingLeft=4;spacingRight=4;overflow=hidden;rotatable=0;points=[[0,0.5],[1,0.5]];portConstraint=eastwest;whiteSpace=wrap;html=1;rounded=0;" vertex="1" parent="EKnC79zXnXjXxToJCydo-83">
          <mxGeometry y="168" width="280" height="192" as="geometry" />
        </mxCell>
        <mxCell id="EKnC79zXnXjXxToJCydo-87" value="Use" style="endArrow=open;endSize=12;dashed=1;html=1;rounded=0;entryX=1.009;entryY=0.24;entryDx=0;entryDy=0;entryPerimeter=0;exitX=0.132;exitY=-0.001;exitDx=0;exitDy=0;exitPerimeter=0;" edge="1" parent="WIyWlLk6GJQsqaUBKTNV-1" source="4ze2XtRtzKSnxw6VI-vd-92" target="EKnC79zXnXjXxToJCydo-86">
          <mxGeometry width="160" relative="1" as="geometry">
            <mxPoint x="1639" y="-720" as="sourcePoint" />
            <mxPoint x="2329" y="-839.9839999999999" as="targetPoint" />
            <Array as="points">
              <mxPoint x="2850" y="-120" />
              <mxPoint x="2760" y="-120" />
              <mxPoint x="2760" y="-330" />
              <mxPoint x="2760" y="-856" />
            </Array>
          </mxGeometry>
        </mxCell>
        <mxCell id="EKnC79zXnXjXxToJCydo-90" value="Use" style="endArrow=open;endSize=12;dashed=1;html=1;rounded=0;exitX=1;exitY=0;exitDx=0;exitDy=0;entryX=-0.006;entryY=0.047;entryDx=0;entryDy=0;entryPerimeter=0;" edge="1" parent="WIyWlLk6GJQsqaUBKTNV-1" source="4ze2XtRtzKSnxw6VI-vd-517" target="EKnC79zXnXjXxToJCydo-86">
          <mxGeometry width="160" relative="1" as="geometry">
            <mxPoint x="2190" y="-450" as="sourcePoint" />
            <mxPoint x="2350" y="-450" as="targetPoint" />
            <Array as="points">
              <mxPoint x="1770" y="80" />
              <mxPoint x="1970" y="80" />
              <mxPoint x="1980" y="-300" />
              <mxPoint x="2280" y="-300" />
              <mxPoint x="2270" y="-893" />
            </Array>
          </mxGeometry>
        </mxCell>
        <mxCell id="EKnC79zXnXjXxToJCydo-91" value="Use" style="endArrow=open;endSize=12;dashed=1;html=1;rounded=0;exitX=0.684;exitY=0.006;exitDx=0;exitDy=0;exitPerimeter=0;entryX=-0.021;entryY=0.382;entryDx=0;entryDy=0;entryPerimeter=0;" edge="1" parent="WIyWlLk6GJQsqaUBKTNV-1" source="4ze2XtRtzKSnxw6VI-vd-88" target="EKnC79zXnXjXxToJCydo-86">
          <mxGeometry width="160" relative="1" as="geometry">
            <mxPoint x="1980" y="470" as="sourcePoint" />
            <mxPoint x="2350" y="-450" as="targetPoint" />
            <Array as="points">
              <mxPoint x="1980" y="490" />
              <mxPoint x="2060" y="490" />
              <mxPoint x="2060" y="400" />
              <mxPoint x="2060" y="220" />
              <mxPoint x="1980" y="220" />
              <mxPoint x="1980" y="40" />
              <mxPoint x="1980" y="-300" />
              <mxPoint x="2280" y="-300" />
              <mxPoint x="2270" y="-829" />
            </Array>
          </mxGeometry>
        </mxCell>
        <mxCell id="EKnC79zXnXjXxToJCydo-92" value="Use" style="endArrow=open;endSize=12;dashed=1;html=1;rounded=0;entryX=0.009;entryY=0.754;entryDx=0;entryDy=0;entryPerimeter=0;exitX=0.75;exitY=0;exitDx=0;exitDy=0;" edge="1" parent="WIyWlLk6GJQsqaUBKTNV-1" source="4ze2XtRtzKSnxw6VI-vd-522" target="EKnC79zXnXjXxToJCydo-86">
          <mxGeometry width="160" relative="1" as="geometry">
            <mxPoint x="2175" y="-610" as="sourcePoint" />
            <mxPoint x="2335" y="-610" as="targetPoint" />
            <Array as="points">
              <mxPoint x="1480" y="180" />
              <mxPoint x="1980" y="180" />
              <mxPoint x="1980" y="-220" />
              <mxPoint x="1980" y="-300" />
              <mxPoint x="2280" y="-300" />
              <mxPoint x="2280" y="-757" />
            </Array>
          </mxGeometry>
        </mxCell>
      </root>
    </mxGraphModel>
  </diagram>
</mxfile>
